<?xml version="1.0" encoding="utf-8" standalone="no"?>
<!DOCTYPE svg PUBLIC "-//W3C//DTD SVG 1.1//EN"
  "http://www.w3.org/Graphics/SVG/1.1/DTD/svg11.dtd">
<svg xmlns:xlink="http://www.w3.org/1999/xlink" width="447.84pt" height="263.045575pt" viewBox="0 0 447.84 263.045575" xmlns="http://www.w3.org/2000/svg" version="1.1">
 <metadata>
  <rdf:RDF xmlns:dc="http://purl.org/dc/elements/1.1/" xmlns:cc="http://creativecommons.org/ns#" xmlns:rdf="http://www.w3.org/1999/02/22-rdf-syntax-ns#">
   <cc:Work>
    <dc:type rdf:resource="http://purl.org/dc/dcmitype/StillImage"/>
    <dc:format>image/svg+xml</dc:format>
   </cc:Work>
  </rdf:RDF>
 </metadata>
 <defs>
  <style type="text/css">*{stroke-linejoin: round; stroke-linecap: butt}</style>
 </defs>
 <g id="figure_1">
  <g id="patch_1">
   <path d="M 0 263.045575 
L 447.84 263.045575 
L 447.84 -0 
L 0 -0 
z
" style="fill: #ffffff"/>
  </g>
  <g id="axes_1">
   <g id="patch_2">
    <path d="M 198.324346 45.790578 
L 195.113747 40.898232 
L 187.74368 40.450331 
L 183.595384 44.895605 
L 176.228079 44.459772 
L 172.090284 48.915338 
L 175.316261 53.804191 
L 171.185434 58.267454 
L 174.407229 63.163222 
L 170.283345 67.63413 
L 162.941244 67.2118 
L 158.827881 71.692834 
L 162.052996 76.59366 
L 157.946529 81.082232 
L 161.167453 85.989862 
L 168.487406 86.410732 
L 171.696715 91.326928 
L 179.008587 91.758874 
L 182.20626 96.683557 
L 178.099579 101.17451 
L 181.293149 106.105844 
L 188.585867 106.547986 
L 191.767817 111.487679 
L 199.052255 111.940729 
L 203.165634 107.454948 
L 210.452554 107.919754 
L 214.576025 103.444048 
L 221.865267 103.92064 
L 225.020142 108.871979 
L 232.300682 109.359381 
L 236.437188 104.896446 
L 243.719739 105.395644 
L 247.866097 100.942921 
L 244.727009 95.988357 
L 248.880322 91.543251 
L 245.737331 86.595258 
L 249.897621 82.157825 
L 257.203749 82.671039 
L 261.373861 78.24398 
L 258.235046 73.301063 
L 262.412179 68.881781 
L 259.269476 63.945549 
L 251.941495 63.430142 
L 248.786744 58.502189 
L 241.449594 57.997735 
L 238.28281 53.078142 
L 242.461246 48.661427 
L 239.290483 43.748669 
L 231.933225 43.254226 
L 228.750407 38.349955 
L 221.384171 37.86664 
L 217.211872 42.288561 
L 209.84791 41.817354 
L 205.68587 46.249704 
z
" clip-path="url(#p63d9c2ad24)" style="fill: #6baed6; opacity: 0.5; stroke: #000000; stroke-width: 0.3; stroke-linejoin: miter"/>
   </g>
   <g id="patch_3">
    <path d="M 98.607613 130.114468 
L 101.851554 135.032557 
L 109.121424 135.393215 
L 112.354178 140.319856 
L 119.616841 140.691516 
L 123.657663 136.137066 
L 130.923903 136.520249 
L 134.975289 131.975406 
L 142.244951 132.370149 
L 145.452301 137.309106 
L 152.714331 137.714769 
L 156.779887 133.182148 
L 164.045032 133.599392 
L 168.12093 129.076529 
L 164.92813 124.133863 
L 169.010817 119.61825 
L 165.813904 114.682118 
L 169.903402 110.173815 
L 177.193326 110.604216 
L 181.293149 106.105844 
L 178.099579 101.17451 
L 182.20626 96.683557 
L 179.008587 91.758874 
L 171.696715 91.326928 
L 168.487406 86.410732 
L 161.167453 85.989862 
L 157.946529 81.082232 
L 162.052996 76.59366 
L 158.827881 71.692834 
L 151.488873 71.282416 
L 148.252126 66.390281 
L 140.905244 65.991104 
L 136.806261 70.484702 
L 129.46279 70.097417 
L 125.374558 74.600994 
L 118.034658 74.225567 
L 114.77185 69.346019 
L 107.424514 68.981915 
L 103.351177 73.497859 
L 96.007729 73.145588 
L 91.945367 77.671361 
L 95.222259 82.546963 
L 91.166675 87.080072 
L 94.439187 91.962556 
L 90.390359 96.502944 
L 83.07325 96.163272 
L 79.035405 100.713311 
L 82.310396 105.600592 
L 78.279256 110.1578 
L 81.549863 115.051847 
L 88.844811 115.390725 
L 92.104248 120.293526 
L 99.392203 120.643564 
L 102.640443 125.555043 
z
" clip-path="url(#p63d9c2ad24)" style="fill: #6baed6; opacity: 0.5; stroke: #000000; stroke-width: 0.3; stroke-linejoin: miter"/>
   </g>
   <g id="patch_4">
    <path d="M 297.217789 214.490521 
L 301.324882 209.995417 
L 308.469184 210.558681 
L 312.585325 206.073485 
L 309.554911 201.022231 
L 313.677844 196.5442 
L 310.643857 191.498742 
L 314.773603 187.027937 
L 321.939539 187.60539 
L 326.078297 183.144661 
L 323.048965 178.103691 
L 327.194576 173.650301 
L 324.161689 168.615257 
L 316.9749 168.034965 
L 313.930152 163.007264 
L 306.733726 162.437132 
L 303.677126 157.41686 
L 307.825179 152.965329 
L 304.764938 147.951148 
L 297.548425 147.389919 
L 294.476306 142.383304 
L 287.250321 141.832419 
L 283.107073 146.28943 
L 275.882358 145.750192 
L 271.748538 150.217351 
L 264.525252 149.689735 
L 261.425165 144.693774 
L 254.19281 144.176614 
L 250.071223 148.656558 
L 242.840603 148.151016 
L 238.728684 152.640974 
L 241.844536 157.633784 
L 237.739439 162.131015 
L 240.851448 167.129997 
L 236.753152 171.634442 
L 229.54574 171.142585 
L 225.45714 175.656873 
L 228.57301 180.660325 
L 224.491166 185.181712 
L 227.603181 190.19121 
L 234.789398 190.680972 
L 237.889931 195.698112 
L 245.067527 196.198184 
L 248.156561 201.222883 
L 244.075711 205.745884 
L 247.160974 210.776459 
L 254.319366 211.285634 
L 257.393152 216.323629 
L 264.542748 216.842933 
L 268.628974 212.325425 
L 275.780068 212.856024 
L 279.875579 208.348291 
L 287.028019 208.890212 
L 290.074536 213.938582 
z
" clip-path="url(#p63d9c2ad24)" style="fill: #6baed6; opacity: 0.5; stroke: #000000; stroke-width: 0.3; stroke-linejoin: miter"/>
   </g>
   <g id="patch_5">
    <path d="M 297.217789 214.490521 
L 300.252699 219.546081 
L 296.152358 224.048234 
L 299.183679 229.109459 
L 306.307333 229.669972 
L 309.327072 234.738247 
L 316.441376 235.308592 
L 319.449524 240.383828 
L 315.351438 244.887307 
L 318.35608 249.968035 
L 325.450733 250.546671 
L 328.44381 255.634219 
L 335.528955 256.222498 
L 339.631162 251.724745 
L 346.716822 252.32416 
L 350.827674 247.836237 
L 357.913697 248.44681 
L 360.878743 253.543692 
L 367.954887 254.163786 
L 372.076055 249.688651 
L 379.152273 250.319896 
L 383.281843 245.854717 
L 380.333562 240.755391 
L 384.469896 236.297317 
L 381.518311 231.203403 
L 385.661431 226.752495 
L 392.757714 227.398405 
L 396.909192 222.957618 
L 393.962857 217.868033 
L 398.121157 213.434527 
L 395.171538 208.350487 
L 388.055005 207.701088 
L 385.09347 202.623786 
L 377.96661 201.98404 
L 374.993166 196.913564 
L 379.155141 192.481667 
L 376.178329 187.416907 
L 369.030983 186.785239 
L 366.042228 181.727447 
L 358.884702 181.105626 
L 354.72625 185.543203 
L 347.568983 184.932858 
L 343.419297 189.380638 
L 336.262446 188.781751 
L 333.244946 183.733577 
L 326.078297 183.144661 
L 321.939539 187.60539 
L 314.773603 187.027937 
L 310.643857 191.498742 
L 313.677844 196.5442 
L 309.554911 201.022231 
L 312.585325 206.073485 
L 308.469184 210.558681 
L 301.324882 209.995417 
z
" clip-path="url(#p63d9c2ad24)" style="fill: #6baed6; opacity: 0.5; stroke: #000000; stroke-width: 0.3; stroke-linejoin: miter"/>
   </g>
   <g id="patch_6">
    <path d="M 158.801979 190.675523 
L 161.966266 195.662301 
L 157.937283 200.234257 
L 150.747545 199.822032 
L 146.72873 204.403361 
L 149.896079 209.394308 
L 145.883857 213.982349 
L 149.047154 218.979289 
L 156.215627 219.390091 
L 159.367839 224.394871 
L 166.528715 224.816096 
L 169.669819 229.828634 
L 165.657172 234.418067 
L 168.794306 239.436427 
L 175.936953 239.86721 
L 179.062996 244.893191 
L 186.197856 245.334226 
L 190.217137 240.750131 
L 197.354553 241.202256 
L 201.3836 236.627471 
L 208.523422 237.090716 
L 211.623727 242.127795 
L 218.755365 242.601196 
L 222.797116 238.038512 
L 229.930867 238.523048 
L 233.982161 233.969822 
L 230.896812 228.92933 
L 234.954758 224.382885 
L 231.865625 219.348137 
L 235.930243 214.808538 
L 243.086839 215.306423 
L 247.160974 210.776459 
L 244.075711 205.745884 
L 248.156561 201.222883 
L 245.067527 196.198184 
L 237.889931 195.698112 
L 234.789398 190.680972 
L 227.603181 190.19121 
L 224.491166 185.181712 
L 228.57301 180.660325 
L 225.45714 175.656873 
L 218.251792 175.176485 
L 215.124418 170.180811 
L 207.910633 169.710909 
L 203.834901 174.237636 
L 196.623482 173.779191 
L 192.557677 178.315618 
L 185.348779 177.868599 
L 182.195011 172.884295 
L 174.978085 172.447858 
L 170.925652 176.996538 
L 163.711549 176.571511 
L 159.669269 181.129744 
L 162.8376 186.110398 
z
" clip-path="url(#p63d9c2ad24)" style="fill: #6baed6; opacity: 0.5; stroke: #000000; stroke-width: 0.3; stroke-linejoin: miter"/>
   </g>
   <g id="patch_7">
    <path d="M 308.919894 143.507087 
L 316.137372 144.079964 
L 320.301509 139.64618 
L 317.245933 134.636772 
L 321.417014 130.210566 
L 318.357814 125.207373 
L 322.53586 120.788803 
L 329.775288 121.376181 
L 333.962478 116.968048 
L 330.908107 111.969796 
L 335.102303 107.569406 
L 332.044327 102.577486 
L 324.783638 101.987279 
L 321.713522 97.003067 
L 314.442895 96.42334 
L 311.36065 91.446921 
L 315.557484 87.048874 
L 312.471545 82.078944 
L 305.180324 81.508443 
L 302.082227 76.546438 
L 294.78124 75.986601 
L 290.589179 80.390049 
L 283.289381 79.842177 
L 279.106893 84.25613 
L 271.808449 83.7202 
L 268.681658 78.769133 
L 261.373861 78.24398 
L 257.203749 82.671039 
L 249.897621 82.157825 
L 245.737331 86.595258 
L 248.880322 91.543251 
L 244.727009 95.988357 
L 247.866097 100.942921 
L 243.719739 105.395644 
L 236.437188 104.896446 
L 232.300682 109.359381 
L 235.443782 114.318861 
L 231.314185 118.789305 
L 234.453369 123.75524 
L 241.714298 124.252338 
L 244.841729 129.226282 
L 252.093769 129.734015 
L 255.209431 134.715887 
L 251.080977 139.188447 
L 254.19281 144.176614 
L 261.425165 144.693774 
L 264.525252 149.689735 
L 271.748538 150.217351 
L 275.882358 145.750192 
L 283.107073 146.28943 
L 287.250321 141.832419 
L 294.476306 142.383304 
L 297.548425 147.389919 
L 304.764938 147.951148 
z
" clip-path="url(#p63d9c2ad24)" style="fill: #6baed6; opacity: 0.5; stroke: #000000; stroke-width: 0.3; stroke-linejoin: miter"/>
   </g>
   <g id="patch_8">
    <path d="M 308.919894 143.507087 
L 304.764938 147.951148 
L 307.825179 152.965329 
L 303.677126 157.41686 
L 306.733726 162.437132 
L 313.930152 163.007264 
L 316.9749 168.034965 
L 324.161689 168.615257 
L 327.194576 173.650301 
L 323.048965 178.103691 
L 326.078297 183.144661 
L 333.244946 183.733577 
L 336.262446 188.781751 
L 343.419297 189.380638 
L 347.568983 184.932858 
L 354.72625 185.543203 
L 358.884702 181.105626 
L 366.042228 181.727447 
L 369.030983 186.785239 
L 376.178329 187.416907 
L 380.347181 182.992429 
L 387.494489 183.635565 
L 391.671855 179.22141 
L 388.700318 174.161277 
L 392.884598 169.754651 
L 389.909714 164.700362 
L 394.100928 160.301324 
L 401.268565 160.959419 
L 405.468246 156.57086 
L 402.498803 151.521376 
L 406.705457 147.140513 
L 403.732689 142.096997 
L 396.544418 141.435434 
L 393.559458 136.399033 
L 386.360545 135.747445 
L 383.363398 130.718244 
L 387.573959 126.339507 
L 384.573402 121.316438 
L 377.353492 120.673258 
L 374.340713 115.657527 
L 367.11031 115.024515 
L 362.903203 119.408831 
L 355.672948 118.787609 
L 351.47473 123.182482 
L 344.244785 122.573032 
L 341.202524 117.567205 
L 333.962478 116.968048 
L 329.775288 121.376181 
L 322.53586 120.788803 
L 318.357814 125.207373 
L 321.417014 130.210566 
L 317.245933 134.636772 
L 320.301509 139.64618 
L 316.137372 144.079964 
z
" clip-path="url(#p63d9c2ad24)" style="fill: #6baed6; opacity: 0.5; stroke: #000000; stroke-width: 0.3; stroke-linejoin: miter"/>
   </g>
   <g id="patch_9">
    <path d="M 232.300682 109.359381 
L 225.020142 108.871979 
L 221.865267 103.92064 
L 214.576025 103.444048 
L 210.452554 107.919754 
L 203.165634 107.454948 
L 199.052255 111.940729 
L 191.767817 111.487679 
L 188.585867 106.547986 
L 181.293149 106.105844 
L 177.193326 110.604216 
L 169.903402 110.173815 
L 165.813904 114.682118 
L 169.010817 119.61825 
L 164.92813 124.133863 
L 168.12093 129.076529 
L 164.045032 133.599392 
L 156.779887 133.182148 
L 152.714331 137.714769 
L 155.910319 142.662069 
L 151.851505 147.201829 
L 155.043373 152.155542 
L 162.286817 152.571345 
L 165.467339 157.533269 
L 172.702949 157.959826 
L 175.872103 162.929881 
L 171.812966 167.471552 
L 174.978085 172.447858 
L 182.195011 172.884295 
L 185.348779 177.868599 
L 192.557677 178.315618 
L 196.623482 173.779191 
L 203.834901 174.237636 
L 207.910633 169.710909 
L 215.124418 170.180811 
L 218.251792 175.176485 
L 225.45714 175.656873 
L 229.54574 171.142585 
L 236.753152 171.634442 
L 240.851448 167.129997 
L 237.739439 162.131015 
L 241.844536 157.633784 
L 238.728684 152.640974 
L 242.840603 148.151016 
L 250.071223 148.656558 
L 254.19281 144.176614 
L 251.080977 139.188447 
L 255.209431 134.715887 
L 252.093769 129.734015 
L 244.841729 129.226282 
L 241.714298 124.252338 
L 234.453369 123.75524 
L 231.314185 118.789305 
L 235.443782 114.318861 
z
" clip-path="url(#p63d9c2ad24)" style="fill: #6baed6; opacity: 0.5; stroke: #000000; stroke-width: 0.3; stroke-linejoin: miter"/>
   </g>
   <g id="patch_10">
    <path d="M 158.801979 190.675523 
L 162.8376 186.110398 
L 159.669269 181.129744 
L 163.711549 176.571511 
L 170.925652 176.996538 
L 174.978085 172.447858 
L 171.812966 167.471552 
L 175.872103 162.929881 
L 172.702949 157.959826 
L 165.467339 157.533269 
L 162.286817 152.571345 
L 155.043373 152.155542 
L 151.851505 147.201829 
L 155.910319 142.662069 
L 152.714331 137.714769 
L 145.452301 137.309106 
L 142.244951 132.370149 
L 134.975289 131.975406 
L 130.923903 136.520249 
L 123.657663 136.137066 
L 119.616841 140.691516 
L 112.354178 140.319856 
L 109.121424 135.393215 
L 101.851554 135.032557 
L 97.825399 139.599027 
L 90.559413 139.249866 
L 86.544039 143.825786 
L 89.7905 148.748399 
L 85.781752 153.331249 
L 89.02391 158.26035 
L 85.021767 162.850069 
L 77.781652 162.51314 
L 73.790296 167.112127 
L 77.034829 172.045582 
L 73.050029 176.651322 
L 76.290254 181.591141 
L 83.508661 181.927308 
L 86.737974 186.875524 
L 93.949602 187.222526 
L 97.167976 192.179061 
L 93.181424 196.786528 
L 96.395573 201.749262 
L 103.589557 202.106571 
L 106.792776 207.077492 
L 113.979773 207.445475 
L 117.974241 202.843056 
L 125.164817 203.222223 
L 129.169668 198.629021 
L 136.363675 199.019409 
L 139.542124 204.002381 
L 146.72873 204.403361 
L 150.747545 199.822032 
L 157.937283 200.234257 
L 161.966266 195.662301 
z
" clip-path="url(#p63d9c2ad24)" style="fill: #6baed6; opacity: 0.5; stroke: #000000; stroke-width: 0.3; stroke-linejoin: miter"/>
   </g>
   <g id="patch_11">
    <path d="M 323.967532 78.271223 
L 328.180741 73.891666 
L 325.099643 68.926937 
L 329.319953 64.555345 
L 326.235179 59.597218 
L 330.462612 55.233643 
L 337.776977 55.830912 
L 342.013687 51.478117 
L 338.933924 46.525346 
L 343.177799 42.180668 
L 340.09438 37.234609 
L 332.758334 36.634521 
L 329.662487 31.696518 
L 322.316191 31.107224 
L 319.207928 26.177358 
L 323.454647 21.835457 
L 320.342636 16.91245 
L 312.975222 16.3327 
L 309.850763 11.417958 
L 302.473274 10.849184 
L 298.231291 15.19643 
L 290.854905 14.639933 
L 286.622643 18.99802 
L 279.247529 18.453777 
L 276.093624 13.550263 
L 268.708861 13.017111 
L 264.489118 17.388619 
L 257.105953 16.867721 
L 252.896189 21.249946 
L 256.066745 26.15044 
L 251.864118 30.540709 
L 255.03071 35.448145 
L 250.835196 39.846406 
L 243.475986 39.339846 
L 239.290483 43.748669 
L 242.461246 48.661427 
L 238.28281 53.078142 
L 241.449594 57.997735 
L 248.786744 58.502189 
L 251.941495 63.430142 
L 259.269476 63.945549 
L 262.412179 68.881781 
L 258.235046 73.301063 
L 261.373861 78.24398 
L 268.681658 78.769133 
L 271.808449 83.7202 
L 279.106893 84.25613 
L 283.289381 79.842177 
L 290.589179 80.390049 
L 294.78124 75.986601 
L 302.082227 76.546438 
L 305.180324 81.508443 
L 312.471545 82.078944 
L 316.675437 77.688759 
z
" clip-path="url(#p63d9c2ad24)" style="fill: #6baed6; opacity: 0.5; stroke: #000000; stroke-width: 0.3; stroke-linejoin: miter"/>
   </g>
   <g id="patch_12">
    <path d="M 323.967532 78.271223 
L 316.675437 77.688759 
L 312.471545 82.078944 
L 315.557484 87.048874 
L 311.36065 91.446921 
L 314.442895 96.42334 
L 321.713522 97.003067 
L 324.783638 101.987279 
L 332.044327 102.577486 
L 335.102303 107.569406 
L 330.908107 111.969796 
L 333.962478 116.968048 
L 341.202524 117.567205 
L 344.244785 122.573032 
L 351.47473 123.182482 
L 355.672948 118.787609 
L 362.903203 119.408831 
L 367.11031 115.024515 
L 374.340713 115.657527 
L 377.353492 120.673258 
L 384.573402 121.316438 
L 388.790991 116.945523 
L 396.010744 117.600481 
L 400.236961 113.240238 
L 397.241871 108.222246 
L 401.475154 103.869929 
L 398.476675 98.858186 
L 402.717048 94.51385 
L 409.957395 95.184052 
L 414.206346 90.850536 
L 411.213505 85.844034 
L 415.469583 81.5186 
L 412.473376 76.518463 
L 405.212 75.844817 
L 402.203317 70.852155 
L 394.93097 70.188798 
L 391.909814 65.203695 
L 396.170042 60.880854 
L 393.145432 55.902269 
L 385.851559 55.247645 
L 382.81444 50.276752 
L 375.509748 49.63261 
L 371.252898 53.96095 
L 363.948236 53.328904 
L 359.700398 57.668137 
L 352.395934 57.048171 
L 349.328567 52.087475 
L 342.013687 51.478117 
L 337.776977 55.830912 
L 330.462612 55.233643 
L 326.235179 59.597218 
L 329.319953 64.555345 
L 325.099643 68.926937 
L 328.180741 73.891666 
z
" clip-path="url(#p63d9c2ad24)" style="fill: #6baed6; opacity: 0.5; stroke: #000000; stroke-width: 0.3; stroke-linejoin: miter"/>
   </g>
   <g id="patch_13">
    <path d="M 154.115667 43.198971 
L 150.866168 38.327713 
L 154.996646 33.867111 
L 151.742875 29.002915 
L 144.351146 28.601168 
L 141.085609 23.745931 
L 133.685986 23.355663 
L 129.563224 27.821235 
L 122.167166 27.443059 
L 118.055359 31.9188 
L 121.335579 36.770254 
L 117.230696 41.253652 
L 120.506547 46.112207 
L 127.880041 46.489278 
L 131.144296 51.356799 
L 138.510127 51.745271 
L 142.622909 47.266817 
L 149.992149 47.667276 
z
" clip-path="url(#p63d9c2ad24)" style="fill: #6baed6; opacity: 0.5; stroke: #000000; stroke-width: 0.3; stroke-linejoin: miter"/>
   </g>
   <g id="patch_14">
    <path d="M 148.252126 66.390281 
L 151.488873 71.282416 
L 158.827881 71.692834 
L 162.941244 67.2118 
L 170.283345 67.63413 
L 174.407229 63.163222 
L 171.185434 58.267454 
L 175.316261 53.804191 
L 172.090284 48.915338 
L 164.725903 48.491542 
L 161.488153 43.611449 
L 154.115667 43.198971 
L 149.992149 47.667276 
L 142.622909 47.266817 
L 138.510127 51.745271 
L 141.762761 56.621684 
L 137.65689 61.107737 
L 140.905244 65.991104 
z
" clip-path="url(#p63d9c2ad24)" style="fill: #6baed6; opacity: 0.5; stroke: #000000; stroke-width: 0.3; stroke-linejoin: miter"/>
   </g>
   <g id="patch_15">
    <path d="M 109.038799 50.238102 
L 116.408564 50.603209 
L 120.506547 46.112207 
L 117.230696 41.253652 
L 121.335579 36.770254 
L 118.055359 31.9188 
L 110.66303 31.552682 
L 107.3712 26.710315 
L 99.971428 26.355756 
L 95.874842 30.844028 
L 88.47912 30.501501 
L 84.393717 34.999791 
L 87.699717 39.838196 
L 83.621175 44.344043 
L 86.922711 49.189588 
L 94.295805 49.531287 
L 97.585905 54.385925 
L 104.951782 54.739105 
z
" clip-path="url(#p63d9c2ad24)" style="fill: #6baed6; opacity: 0.5; stroke: #000000; stroke-width: 0.3; stroke-linejoin: miter"/>
   </g>
   <g id="patch_16">
    <path d="M 109.038799 50.238102 
L 104.951782 54.739105 
L 108.230419 59.602763 
L 104.150253 64.111264 
L 107.424514 68.981915 
L 114.77185 69.346019 
L 118.034658 74.225567 
L 125.374558 74.600994 
L 129.46279 70.097417 
L 136.806261 70.484702 
L 140.905244 65.991104 
L 137.65689 61.107737 
L 141.762761 56.621684 
L 138.510127 51.745271 
L 131.144296 51.356799 
L 127.880041 46.489278 
L 120.506547 46.112207 
L 116.408564 50.603209 
z
" clip-path="url(#p63d9c2ad24)" style="fill: #6baed6; opacity: 0.5; stroke: #000000; stroke-width: 0.3; stroke-linejoin: miter"/>
   </g>
   <g id="patch_17">
    <path d="M 154.115667 43.198971 
L 161.488153 43.611449 
L 164.725903 48.491542 
L 172.090284 48.915338 
L 176.228079 44.459772 
L 183.595384 44.895605 
L 187.74368 40.450331 
L 184.521184 35.566687 
L 188.676495 31.129214 
L 185.449827 26.252593 
L 178.060119 25.815197 
L 174.821536 20.947401 
L 167.423489 20.521397 
L 163.275307 24.963929 
L 155.880337 24.550069 
L 151.742875 29.002915 
L 154.996646 33.867111 
L 150.866168 38.327713 
z
" clip-path="url(#p63d9c2ad24)" style="fill: #6baed6; opacity: 0.5; stroke: #000000; stroke-width: 0.3; stroke-linejoin: miter"/>
   </g>
   <g id="patch_18">
    <path d="M 47.896119 75.744343 
L 51.209066 80.597799 
L 58.546586 80.903385 
L 62.582356 76.355778 
L 69.924392 76.67309 
L 73.971356 72.135155 
L 70.671851 67.277526 
L 74.725579 62.746933 
L 71.421606 57.896335 
L 64.057086 57.578397 
L 60.741813 52.736944 
L 53.370525 52.430557 
L 49.325826 56.965893 
L 41.959221 56.671334 
L 37.925926 61.216359 
L 41.254555 66.053599 
L 37.227979 70.605917 
L 40.552051 75.450225 
z
" clip-path="url(#p63d9c2ad24)" style="fill: #6baed6; opacity: 0.5; stroke: #000000; stroke-width: 0.3; stroke-linejoin: miter"/>
   </g>
   <g id="patch_19">
    <path d="M 61.848376 85.765915 
L 57.819319 90.320754 
L 61.116638 95.190204 
L 68.436323 95.506898 
L 71.722493 100.3853 
L 79.035405 100.713311 
L 83.07325 96.163272 
L 90.390359 96.502944 
L 94.439187 91.962556 
L 91.166675 87.080072 
L 95.222259 82.546963 
L 91.945367 77.671361 
L 84.605964 77.330885 
L 81.317751 72.464232 
L 73.971356 72.135155 
L 69.924392 76.67309 
L 62.582356 76.355778 
L 58.546586 80.903385 
z
" clip-path="url(#p63d9c2ad24)" style="fill: #6baed6; opacity: 0.5; stroke: #000000; stroke-width: 0.3; stroke-linejoin: miter"/>
   </g>
   <g id="patch_20">
    <path d="M 49.779096 99.447152 
L 57.094272 99.752217 
L 61.116638 95.190204 
L 57.819319 90.320754 
L 61.848376 85.765915 
L 58.546586 80.903385 
L 51.209066 80.597799 
L 47.896119 75.744343 
L 40.552051 75.450225 
L 36.532173 80.009781 
L 29.192934 79.727354 
L 25.184459 84.29642 
L 28.51047 89.145582 
L 24.50864 93.721775 
L 27.830093 98.577894 
L 35.14694 98.859988 
L 38.45741 103.725181 
L 45.767925 104.018659 
z
" clip-path="url(#p63d9c2ad24)" style="fill: #6baed6; opacity: 0.5; stroke: #000000; stroke-width: 0.3; stroke-linejoin: miter"/>
   </g>
   <g id="patch_21">
    <path d="M 73.684759 29.840067 
L 66.286258 29.521167 
L 62.216589 34.031784 
L 54.82262 33.724848 
L 50.764355 38.245329 
L 54.095454 43.070386 
L 50.043982 47.598322 
L 53.370525 52.430557 
L 60.741813 52.736944 
L 64.057086 57.578397 
L 71.421606 57.896335 
L 75.482121 53.373138 
L 82.851007 53.702938 
L 86.922711 49.189588 
L 83.621175 44.344043 
L 87.699717 39.838196 
L 84.393717 34.999791 
L 77.002205 34.669258 
z
" clip-path="url(#p63d9c2ad24)" style="fill: #6baed6; opacity: 0.5; stroke: #000000; stroke-width: 0.3; stroke-linejoin: miter"/>
   </g>
   <g id="patch_22">
    <path d="M 103.351177 73.497859 
L 107.424514 68.981915 
L 104.150253 64.111264 
L 108.230419 59.602763 
L 104.951782 54.739105 
L 97.585905 54.385925 
L 94.295805 49.531287 
L 86.922711 49.189588 
L 82.851007 53.702938 
L 75.482121 53.373138 
L 71.421606 57.896335 
L 74.725579 62.746933 
L 70.671851 67.277526 
L 73.971356 72.135155 
L 81.317751 72.464232 
L 84.605964 77.330885 
L 91.945367 77.671361 
L 96.007729 73.145588 
z
" clip-path="url(#p63d9c2ad24)" style="fill: #6baed6; opacity: 0.5; stroke: #000000; stroke-width: 0.3; stroke-linejoin: miter"/>
   </g>
   <g id="patch_23">
    <path d="M 20.529147 46.466172 
L 16.505458 51.015822 
L 19.856317 55.834458 
L 27.224399 56.105614 
L 30.564159 60.933587 
L 37.925926 61.216359 
L 41.959221 56.671334 
L 49.325826 56.965893 
L 53.370525 52.430557 
L 50.043982 47.598322 
L 54.095454 43.070386 
L 50.764355 38.245329 
L 43.375077 37.950317 
L 40.032701 33.134595 
L 32.636888 32.851283 
L 28.594859 37.383877 
L 21.204056 37.112453 
L 17.173644 41.654752 
z
" clip-path="url(#p63d9c2ad24)" style="fill: #6baed6; opacity: 0.5; stroke: #000000; stroke-width: 0.3; stroke-linejoin: miter"/>
   </g>
   <g id="patch_24">
    <path d="M 255.03071 35.448145 
L 251.864118 30.540709 
L 256.066745 26.15044 
L 252.896189 21.249946 
L 245.514791 20.741281 
L 242.332038 15.849338 
L 234.941422 15.35187 
L 230.744735 19.747355 
L 223.356211 19.262113 
L 219.169757 23.668186 
L 222.368681 28.55691 
L 218.189316 32.970933 
L 221.384171 37.86664 
L 228.750407 38.349955 
L 231.933225 43.254226 
L 239.290483 43.748669 
L 243.475986 39.339846 
L 250.835196 39.846406 
z
" clip-path="url(#p63d9c2ad24)" style="fill: #6baed6; opacity: 0.5; stroke: #000000; stroke-width: 0.3; stroke-linejoin: miter"/>
   </g>
   <g id="patch_25">
    <path d="M 217.211872 42.288561 
L 221.384171 37.86664 
L 218.189316 32.970933 
L 222.368681 28.55691 
L 219.169757 23.668186 
L 211.783493 23.195143 
L 208.572509 18.31511 
L 201.177465 17.853365 
L 197.004635 22.27253 
L 189.612176 21.822974 
L 185.449827 26.252593 
L 188.676495 31.129214 
L 184.521184 35.566687 
L 187.74368 40.450331 
L 195.113747 40.898232 
L 198.324346 45.790578 
L 205.68587 46.249704 
L 209.84791 41.817354 
z
" clip-path="url(#p63d9c2ad24)" style="fill: #6baed6; opacity: 0.5; stroke: #000000; stroke-width: 0.3; stroke-linejoin: miter"/>
   </g>
   <g id="patch_26">
    <path d="M 67.033911 20.198204 
L 62.957396 24.701261 
L 66.286258 29.521167 
L 73.684759 29.840067 
L 77.002205 34.669258 
L 84.393717 34.999791 
L 88.47912 30.501501 
L 95.874842 30.844028 
L 99.971428 26.355756 
L 96.668017 21.52255 
L 100.771515 17.04194 
L 97.463645 12.215979 
L 90.045158 11.872615 
L 86.725696 7.055933 
L 79.299991 6.724283 
L 75.205206 11.20969 
L 67.783879 10.890137 
L 63.700495 15.385581 
z
" clip-path="url(#p63d9c2ad24)" style="fill: #6baed6; opacity: 0.5; stroke: #000000; stroke-width: 0.3; stroke-linejoin: miter"/>
   </g>
   <g id="patch_27">
    <path d="M 56.283707 15.078086 
L 52.938868 10.274865 
L 45.515322 9.979152 
L 41.448098 14.486899 
L 34.029415 14.203211 
L 29.97381 18.720837 
L 33.332074 23.519831 
L 29.283268 28.044968 
L 32.636888 32.851283 
L 40.032701 33.134595 
L 43.375077 37.950317 
L 50.764355 38.245329 
L 54.82262 33.724848 
L 62.216589 34.031784 
L 66.286258 29.521167 
L 62.957396 24.701261 
L 67.033911 20.198204 
L 63.700495 15.385581 
z
" clip-path="url(#p63d9c2ad24)" style="fill: #6baed6; opacity: 0.5; stroke: #000000; stroke-width: 0.3; stroke-linejoin: miter"/>
   </g>
   <g id="patch_28">
    <path d="M 290.074536 213.938582 
L 287.028019 208.890212 
L 279.875579 208.348291 
L 275.780068 212.856024 
L 268.628974 212.325425 
L 264.542748 216.842933 
L 267.605043 221.888264 
L 263.525531 226.41272 
L 266.584139 231.463757 
L 273.714463 231.991887 
L 276.761603 237.05012 
L 283.88296 237.588195 
L 287.967487 233.069317 
L 295.090069 233.618599 
L 299.183679 229.109459 
L 296.152358 224.048234 
L 300.252699 219.546081 
L 297.217789 214.490521 
z
" clip-path="url(#p63d9c2ad24)" style="fill: #6baed6; opacity: 0.5; stroke: #000000; stroke-width: 0.3; stroke-linejoin: miter"/>
   </g>
   <g id="patch_29">
    <path d="M 262.51132 235.995097 
L 266.584139 231.463757 
L 263.525531 226.41272 
L 267.605043 221.888264 
L 264.542748 216.842933 
L 257.393152 216.323629 
L 254.319366 211.285634 
L 247.160974 210.776459 
L 243.086839 215.306423 
L 235.930243 214.808538 
L 231.865625 219.348137 
L 234.954758 224.382885 
L 230.896812 228.92933 
L 233.982161 233.969822 
L 241.117875 234.465523 
L 244.191875 239.513355 
L 251.319011 240.019109 
L 255.382515 235.478169 
z
" clip-path="url(#p63d9c2ad24)" style="fill: #6baed6; opacity: 0.5; stroke: #000000; stroke-width: 0.3; stroke-linejoin: miter"/>
   </g>
   <g id="patch_30">
    <path d="M 59.69538 209.657048 
L 63.649901 205.022458 
L 60.411755 200.072222 
L 64.372742 195.444139 
L 61.130286 190.50014 
L 53.920381 190.186379 
L 50.667141 185.250825 
L 43.450879 184.947971 
L 39.49871 189.580905 
L 32.287071 189.289198 
L 28.345893 193.931048 
L 31.61179 198.862206 
L 27.677034 203.510517 
L 30.938538 208.447948 
L 38.128561 208.739292 
L 41.379446 213.685164 
L 48.563317 213.987327 
L 52.507044 209.343844 
z
" clip-path="url(#p63d9c2ad24)" style="fill: #6baed6; opacity: 0.5; stroke: #000000; stroke-width: 0.3; stroke-linejoin: miter"/>
   </g>
   <g id="patch_31">
    <path d="M 83.721952 225.209618 
L 80.509616 220.236761 
L 84.472571 215.607124 
L 81.256007 210.640334 
L 74.069923 210.305297 
L 70.842555 205.346745 
L 63.649901 205.022458 
L 59.69538 209.657048 
L 52.507044 209.343844 
L 48.563317 213.987327 
L 51.803553 218.941564 
L 47.866243 223.591433 
L 51.102166 228.551775 
L 58.269058 228.864432 
L 61.494339 233.833007 
L 68.654865 234.156327 
L 72.600765 229.511391 
L 79.765456 229.845687 
z
" clip-path="url(#p63d9c2ad24)" style="fill: #6baed6; opacity: 0.5; stroke: #000000; stroke-width: 0.3; stroke-linejoin: miter"/>
   </g>
   <g id="patch_32">
    <path d="M 15.259811 227.096837 
L 18.518686 232.044357 
L 25.682472 232.324444 
L 28.930863 237.280323 
L 36.088699 237.57114 
L 40.008818 232.90625 
L 47.171253 233.207965 
L 51.102166 228.551775 
L 47.866243 223.591433 
L 51.803553 218.941564 
L 48.563317 213.987327 
L 41.379446 213.685164 
L 38.128561 208.739292 
L 30.938538 208.447948 
L 27.010184 213.102657 
L 19.824919 212.822318 
L 15.907554 217.48575 
L 19.170823 222.42713 
z
" clip-path="url(#p63d9c2ad24)" style="fill: #6baed6; opacity: 0.5; stroke: #000000; stroke-width: 0.3; stroke-linejoin: miter"/>
   </g>
   <g id="patch_33">
    <path d="M 44.145526 175.394588 
L 40.186885 180.02094 
L 43.450879 184.947971 
L 50.667141 185.250825 
L 53.920381 190.186379 
L 61.130286 190.50014 
L 65.097759 185.878628 
L 72.311989 186.203571 
L 76.290254 181.591141 
L 73.050029 176.651322 
L 77.034829 172.045582 
L 73.790296 167.112127 
L 66.554363 166.786518 
L 63.298911 161.861588 
L 56.056412 161.546973 
L 52.080287 166.157577 
L 44.842272 165.85425 
L 40.877139 170.473958 
z
" clip-path="url(#p63d9c2ad24)" style="fill: #6baed6; opacity: 0.5; stroke: #000000; stroke-width: 0.3; stroke-linejoin: miter"/>
   </g>
   <g id="patch_34">
    <path d="M 83.508661 181.927308 
L 76.290254 181.591141 
L 72.311989 186.203571 
L 65.097759 185.878628 
L 61.130286 190.50014 
L 64.372742 195.444139 
L 60.411755 200.072222 
L 63.649901 205.022458 
L 70.842555 205.346745 
L 74.069923 210.305297 
L 81.256007 210.640334 
L 85.225441 206.017193 
L 92.415548 206.363346 
L 96.395573 201.749262 
L 93.181424 196.786528 
L 97.167976 192.179061 
L 93.949602 187.222526 
L 86.737974 186.875524 
z
" clip-path="url(#p63d9c2ad24)" style="fill: #6baed6; opacity: 0.5; stroke: #000000; stroke-width: 0.3; stroke-linejoin: miter"/>
   </g>
   <g id="patch_35">
    <path d="M 44.145526 175.394588 
L 40.877139 170.473958 
L 33.643755 170.181877 
L 30.364608 165.269897 
L 23.125086 164.988877 
L 19.175652 169.619979 
L 11.941061 169.350166 
L 8.002816 173.990205 
L 11.294404 178.89771 
L 7.362585 183.544283 
L 10.649697 188.458226 
L 17.862501 188.727856 
L 21.139021 193.650445 
L 28.345893 193.931048 
L 32.287071 189.289198 
L 39.49871 189.580905 
L 43.450879 184.947971 
L 40.186885 180.02094 
z
" clip-path="url(#p63d9c2ad24)" style="fill: #6baed6; opacity: 0.5; stroke: #000000; stroke-width: 0.3; stroke-linejoin: miter"/>
   </g>
   <g id="patch_36">
    <path d="M 100.480303 240.511798 
L 103.666875 245.506683 
L 110.81132 245.872606 
L 113.98708 250.875382 
L 121.124544 251.251731 
L 125.096787 246.625862 
L 132.237686 247.013186 
L 136.220123 242.396318 
L 133.05797 237.389532 
L 137.046912 232.779127 
L 133.8807 227.7782 
L 126.71865 227.389655 
L 123.54147 222.396622 
L 116.372231 222.018587 
L 112.390817 226.634151 
L 105.225158 226.267202 
L 101.254136 230.891797 
L 104.444854 235.880785 
z
" clip-path="url(#p63d9c2ad24)" style="fill: #6baed6; opacity: 0.5; stroke: #000000; stroke-width: 0.3; stroke-linejoin: miter"/>
   </g>
   <g id="patch_37">
    <path d="M 103.666875 245.506683 
L 100.480303 240.511798 
L 104.444854 235.880785 
L 101.254136 230.891797 
L 94.092204 230.535894 
L 90.890663 225.554931 
L 83.721952 225.209618 
L 79.765456 229.845687 
L 72.600765 229.511391 
L 68.654865 234.156327 
L 71.869475 239.133057 
L 67.929987 243.784302 
L 71.140365 248.766966 
L 78.283788 249.100529 
L 81.483503 254.091214 
L 88.620353 254.435281 
L 92.568054 249.789075 
L 99.708774 250.144049 
z
" clip-path="url(#p63d9c2ad24)" style="fill: #6baed6; opacity: 0.5; stroke: #000000; stroke-width: 0.3; stroke-linejoin: miter"/>
   </g>
   <g id="patch_38">
    <path d="M 137.876168 223.174322 
L 145.041504 223.573978 
L 149.047154 218.979289 
L 145.883857 213.982349 
L 149.896079 209.394308 
L 146.72873 204.403361 
L 139.542124 204.002381 
L 136.363675 199.019409 
L 129.169668 198.629021 
L 125.164817 203.222223 
L 117.974241 202.843056 
L 113.979773 207.445475 
L 117.172038 212.424504 
L 113.184107 217.033528 
L 116.372231 222.018587 
L 123.54147 222.396622 
L 126.71865 227.389655 
L 133.8807 227.7782 
z
" clip-path="url(#p63d9c2ad24)" style="fill: #6baed6; opacity: 0.5; stroke: #000000; stroke-width: 0.3; stroke-linejoin: miter"/>
   </g>
   <g id="patch_39">
    <path d="M 146.515509 247.809198 
L 153.652311 248.217876 
L 157.648418 243.612716 
L 164.788216 244.032429 
L 168.794306 239.436427 
L 165.657172 234.418067 
L 169.669819 229.828634 
L 166.528715 224.816096 
L 159.367839 224.394871 
L 156.215627 219.390091 
L 149.047154 218.979289 
L 145.041504 223.573978 
L 137.876168 223.174322 
L 133.8807 227.7782 
L 137.046912 232.779127 
L 133.05797 237.389532 
L 136.220123 242.396318 
L 143.36431 242.794654 
z
" clip-path="url(#p63d9c2ad24)" style="fill: #6baed6; opacity: 0.5; stroke: #000000; stroke-width: 0.3; stroke-linejoin: miter"/>
   </g>
   <g id="patch_40">
    <path d="M 80.509616 220.236761 
L 83.721952 225.209618 
L 90.890663 225.554931 
L 94.092204 230.535894 
L 101.254136 230.891797 
L 105.225158 226.267202 
L 112.390817 226.634151 
L 116.372231 222.018587 
L 113.184107 217.033528 
L 117.172038 212.424504 
L 113.979773 207.445475 
L 106.792776 207.077492 
L 103.589557 202.106571 
L 96.395573 201.749262 
L 92.415548 206.363346 
L 85.225441 206.017193 
L 81.256007 210.640334 
L 84.472571 215.607124 
z
" clip-path="url(#p63d9c2ad24)" style="fill: #6baed6; opacity: 0.5; stroke: #000000; stroke-width: 0.3; stroke-linejoin: miter"/>
   </g>
   <g id="patch_41">
    <path d="M 36.381871 132.125406 
L 32.401724 136.727184 
L 35.694225 141.619454 
L 42.960469 141.912117 
L 46.242102 146.813191 
L 53.502 147.117001 
L 57.49123 142.519982 
L 64.755618 142.835179 
L 68.755839 138.24745 
L 65.487289 133.342119 
L 69.494123 128.761329 
L 66.221185 123.862646 
L 58.934777 123.546858 
L 55.650801 118.65698 
L 48.357835 118.352424 
L 44.359924 122.938 
L 37.071611 122.644935 
L 33.084896 127.239821 
z
" clip-path="url(#p63d9c2ad24)" style="fill: #6baed6; opacity: 0.5; stroke: #000000; stroke-width: 0.3; stroke-linejoin: miter"/>
   </g>
   <g id="patch_42">
    <path d="M 77.781652 162.51314 
L 85.021767 162.850069 
L 89.02391 158.26035 
L 85.781752 153.331249 
L 89.7905 148.748399 
L 86.544039 143.825786 
L 79.282087 143.488084 
L 76.024568 138.574074 
L 68.755839 138.24745 
L 64.755618 142.835179 
L 57.49123 142.519982 
L 53.502 147.117001 
L 56.772735 152.026803 
L 52.790068 156.630645 
L 56.056412 161.546973 
L 63.298911 161.861588 
L 66.554363 166.786518 
L 73.790296 167.112127 
z
" clip-path="url(#p63d9c2ad24)" style="fill: #6baed6; opacity: 0.5; stroke: #000000; stroke-width: 0.3; stroke-linejoin: miter"/>
   </g>
   <g id="patch_43">
    <path d="M 52.790068 156.630645 
L 56.772735 152.026803 
L 53.502 147.117001 
L 46.242102 146.813191 
L 42.960469 141.912117 
L 35.694225 141.619454 
L 31.720625 146.228062 
L 24.459176 145.94675 
L 20.496769 150.564483 
L 23.79112 155.461175 
L 19.83521 160.085623 
L 23.125086 164.988877 
L 30.364608 165.269897 
L 33.643755 170.181877 
L 40.877139 170.473958 
L 44.842272 165.85425 
L 52.080287 166.157577 
L 56.056412 161.546973 
z
" clip-path="url(#p63d9c2ad24)" style="fill: #6baed6; opacity: 0.5; stroke: #000000; stroke-width: 0.3; stroke-linejoin: miter"/>
   </g>
   <g id="patch_44">
    <path d="M 45.062852 113.471425 
L 48.357835 118.352424 
L 55.650801 118.65698 
L 58.934777 123.546858 
L 66.221185 123.862646 
L 70.234653 119.288854 
L 77.525408 119.616167 
L 81.549863 115.051847 
L 78.279256 110.1578 
L 82.310396 105.600592 
L 79.035405 100.713311 
L 71.722493 100.3853 
L 68.436323 95.506898 
L 61.116638 95.190204 
L 57.094272 99.752217 
L 49.779096 99.447152 
L 45.767925 104.018659 
L 49.067382 108.892855 
z
" clip-path="url(#p63d9c2ad24)" style="fill: #6baed6; opacity: 0.5; stroke: #000000; stroke-width: 0.3; stroke-linejoin: miter"/>
   </g>
   <g id="patch_45">
    <path d="M 92.104248 120.293526 
L 88.844811 115.390725 
L 81.549863 115.051847 
L 77.525408 119.616167 
L 70.234653 119.288854 
L 66.221185 123.862646 
L 69.494123 128.761329 
L 65.487289 133.342119 
L 68.755839 138.24745 
L 76.024568 138.574074 
L 79.282087 143.488084 
L 86.544039 143.825786 
L 90.559413 139.249866 
L 97.825399 139.599027 
L 101.851554 135.032557 
L 98.607613 130.114468 
L 102.640443 125.555043 
L 99.392203 120.643564 
z
" clip-path="url(#p63d9c2ad24)" style="fill: #6baed6; opacity: 0.5; stroke: #000000; stroke-width: 0.3; stroke-linejoin: miter"/>
   </g>
   <g id="patch_46">
    <path d="M 45.062852 113.471425 
L 49.067382 108.892855 
L 45.767925 104.018659 
L 38.45741 103.725181 
L 35.14694 98.859988 
L 27.830093 98.577894 
L 23.834887 103.161157 
L 16.523011 102.890614 
L 12.539205 107.483206 
L 15.862453 112.344022 
L 11.88522 116.943571 
L 15.203909 121.811228 
L 22.493538 122.081547 
L 25.801386 126.958205 
L 33.084896 127.239821 
L 37.071611 122.644935 
L 44.359924 122.938 
L 48.357835 118.352424 
z
" clip-path="url(#p63d9c2ad24)" style="fill: #6baed6; opacity: 0.5; stroke: #000000; stroke-width: 0.3; stroke-linejoin: miter"/>
   </g>
   <g id="patch_47">
    <path d="M 352.864037 24.24423 
L 355.94227 29.184782 
L 363.279117 29.809241 
L 366.344821 34.757782 
L 373.671008 35.392911 
L 377.942275 31.081034 
L 385.268457 31.728344 
L 389.548687 27.427506 
L 386.501039 22.47663 
L 390.78853 18.184145 
L 387.737358 13.240043 
L 380.389567 12.58957 
L 377.325725 7.653437 
L 369.967026 7.013695 
L 365.68306 11.311624 
L 358.324474 10.684177 
L 354.049694 14.993178 
L 357.131563 19.926913 
z
" clip-path="url(#p63d9c2ad24)" style="fill: #6baed6; opacity: 0.5; stroke: #000000; stroke-width: 0.3; stroke-linejoin: miter"/>
   </g>
   <g id="patch_48">
    <path d="M 375.509748 49.63261 
L 382.81444 50.276752 
L 385.851559 55.247645 
L 393.145432 55.902269 
L 397.412845 51.587625 
L 404.706433 52.254329 
L 408.982589 47.950688 
L 405.963646 42.977591 
L 410.247027 38.682243 
L 407.224653 33.715773 
L 399.909709 33.045727 
L 396.874696 28.087012 
L 389.548687 27.427506 
L 385.268457 31.728344 
L 377.942275 31.081034 
L 373.671008 35.392911 
L 376.724174 40.349359 
L 372.460127 44.669492 
z
" clip-path="url(#p63d9c2ad24)" style="fill: #6baed6; opacity: 0.5; stroke: #000000; stroke-width: 0.3; stroke-linejoin: miter"/>
   </g>
   <g id="patch_49">
    <path d="M 340.09438 37.234609 
L 344.345444 32.8981 
L 351.681975 33.510364 
L 355.94227 29.184782 
L 352.864037 24.24423 
L 357.131563 19.926913 
L 354.049694 14.993178 
L 346.691391 14.378011 
L 343.596958 9.452394 
L 336.22816 8.848082 
L 331.964765 13.170798 
L 324.596574 12.578776 
L 320.342636 16.91245 
L 323.454647 21.835457 
L 319.207928 26.177358 
L 322.316191 31.107224 
L 329.662487 31.696518 
L 332.758334 36.634521 
z
" clip-path="url(#p63d9c2ad24)" style="fill: #6baed6; opacity: 0.5; stroke: #000000; stroke-width: 0.3; stroke-linejoin: miter"/>
   </g>
   <g id="patch_50">
    <path d="M 375.509748 49.63261 
L 372.460127 44.669492 
L 376.724174 40.349359 
L 373.671008 35.392911 
L 366.344821 34.757782 
L 363.279117 29.809241 
L 355.94227 29.184782 
L 351.681975 33.510364 
L 344.345444 32.8981 
L 340.09438 37.234609 
L 343.177799 42.180668 
L 338.933924 46.525346 
L 342.013687 51.478117 
L 349.328567 52.087475 
L 352.395934 57.048171 
L 359.700398 57.668137 
L 363.948236 53.328904 
L 371.252898 53.96095 
z
" clip-path="url(#p63d9c2ad24)" style="fill: #6baed6; opacity: 0.5; stroke: #000000; stroke-width: 0.3; stroke-linejoin: miter"/>
   </g>
   <g id="patch_51">
    <path d="M 405.212 75.844817 
L 412.473376 76.518463 
L 416.736604 72.201162 
L 423.997419 72.886787 
L 428.269171 68.580451 
L 425.278778 63.585716 
L 429.557718 59.287613 
L 426.563982 54.299353 
L 419.282064 53.610207 
L 416.275723 48.629486 
L 408.982589 47.950688 
L 404.706433 52.254329 
L 397.412845 51.587625 
L 393.145432 55.902269 
L 396.170042 60.880854 
L 391.909814 65.203695 
L 394.93097 70.188798 
L 402.203317 70.852155 
z
" clip-path="url(#p63d9c2ad24)" style="fill: #6baed6; opacity: 0.5; stroke: #000000; stroke-width: 0.3; stroke-linejoin: miter"/>
   </g>
   <g id="patch_52">
    <path d="M 404.499771 247.802538 
L 411.565303 248.465504 
L 415.712831 244.023338 
L 412.793465 238.915281 
L 416.947781 234.480316 
L 414.025215 229.37763 
L 406.939664 228.710985 
L 404.005211 223.614805 
L 396.909192 222.957618 
L 392.757714 227.398405 
L 385.661431 226.752495 
L 381.518311 231.203403 
L 384.469896 236.297317 
L 380.333562 240.755391 
L 383.281843 245.854717 
L 390.357984 246.497131 
L 393.294504 251.602973 
L 400.360401 252.25478 
z
" clip-path="url(#p63d9c2ad24)" style="fill: #6baed6; opacity: 0.5; stroke: #000000; stroke-width: 0.3; stroke-linejoin: miter"/>
   </g>
   <g id="patch_53">
    <path d="M 401.778473 184.943066 
L 398.818968 179.876031 
L 391.671855 179.22141 
L 387.494489 183.635565 
L 380.347181 182.992429 
L 376.178329 187.416907 
L 379.155141 192.481667 
L 374.993166 196.913564 
L 377.96661 201.98404 
L 385.09347 202.623786 
L 388.055005 207.701088 
L 395.171538 208.350487 
L 399.336682 203.924323 
L 406.452916 204.585089 
L 410.626369 200.169207 
L 407.682164 195.089682 
L 411.862497 190.681254 
L 408.91503 185.607405 
z
" clip-path="url(#p63d9c2ad24)" style="fill: #6baed6; opacity: 0.5; stroke: #000000; stroke-width: 0.3; stroke-linejoin: miter"/>
   </g>
   <g id="patch_54">
    <path d="M 425.271338 225.627838 
L 429.440572 221.210373 
L 426.523554 216.11209 
L 430.699633 211.702001 
L 427.779436 206.609222 
L 420.674351 205.927552 
L 417.742149 200.841356 
L 410.626369 200.169207 
L 406.452916 204.585089 
L 399.336682 203.924323 
L 395.171538 208.350487 
L 398.121157 213.434527 
L 393.962857 217.868033 
L 396.909192 222.957618 
L 404.005211 223.614805 
L 406.939664 228.710985 
L 414.025215 229.37763 
L 418.186341 224.949929 
z
" clip-path="url(#p63d9c2ad24)" style="fill: #6baed6; opacity: 0.5; stroke: #000000; stroke-width: 0.3; stroke-linejoin: miter"/>
   </g>
   <g id="patch_55">
    <path d="M 424.433825 177.491821 
L 421.491938 172.422671 
L 425.694369 168.039815 
L 422.749242 162.976468 
L 415.592781 162.297004 
L 412.635494 157.240545 
L 405.468246 156.57086 
L 401.268565 160.959419 
L 394.100928 160.301324 
L 389.909714 164.700362 
L 392.884598 169.754651 
L 388.700318 174.161277 
L 391.671855 179.22141 
L 398.818968 179.876031 
L 401.778473 184.943066 
L 408.91503 185.607405 
L 413.102265 181.206489 
L 420.238331 181.882299 
z
" clip-path="url(#p63d9c2ad24)" style="fill: #6baed6; opacity: 0.5; stroke: #000000; stroke-width: 0.3; stroke-linejoin: miter"/>
   </g>
   <g id="patch_56">
    <path d="M 400.236961 113.240238 
L 396.010744 117.600481 
L 388.790991 116.945523 
L 384.573402 121.316438 
L 387.573959 126.339507 
L 383.363398 130.718244 
L 386.360545 135.747445 
L 393.559458 136.399033 
L 396.544418 141.435434 
L 403.732689 142.096997 
L 407.946337 137.723886 
L 415.134182 138.397125 
L 419.356247 134.034647 
L 416.389088 128.996109 
L 420.618184 124.641488 
L 417.647724 119.60904 
L 410.43917 118.932253 
L 407.456393 113.90699 
z
" clip-path="url(#p63d9c2ad24)" style="fill: #6baed6; opacity: 0.5; stroke: #000000; stroke-width: 0.3; stroke-linejoin: miter"/>
   </g>
   <g id="patch_57">
    <path d="M 435.392625 149.869273 
L 439.617219 145.512475 
L 436.674623 140.45993 
L 429.498384 139.765161 
L 426.543505 134.719576 
L 419.356247 134.034647 
L 415.134182 138.397125 
L 407.946337 137.723886 
L 403.732689 142.096997 
L 406.705457 147.140513 
L 402.498803 151.521376 
L 405.468246 156.57086 
L 412.635494 157.240545 
L 415.592781 162.297004 
L 422.749242 162.976468 
L 426.958633 158.601292 
L 434.114407 159.292329 
L 438.332006 154.927744 
z
" clip-path="url(#p63d9c2ad24)" style="fill: #6baed6; opacity: 0.5; stroke: #000000; stroke-width: 0.3; stroke-linejoin: miter"/>
   </g>
   <g id="patch_58">
    <path d="M 400.236961 113.240238 
L 407.456393 113.90699 
L 410.43917 118.932253 
L 417.647724 119.60904 
L 421.883874 115.262332 
L 429.091802 115.950895 
L 433.336315 111.614968 
L 430.371635 106.587667 
L 434.62324 102.259755 
L 431.655281 97.238661 
L 424.426573 96.546471 
L 421.446171 91.532631 
L 414.206346 90.850536 
L 409.957395 95.184052 
L 402.717048 94.51385 
L 398.476675 98.858186 
L 401.475154 103.869929 
L 397.241871 108.222246 
z
" clip-path="url(#p63d9c2ad24)" style="fill: #6baed6; opacity: 0.5; stroke: #000000; stroke-width: 0.3; stroke-linejoin: miter"/>
   </g>
   <g id="patch_59">
    <path d="M 152.622282 19.692987 
L 156.76675 15.24795 
L 153.504403 10.398031 
L 146.09005 9.994989 
L 141.949399 14.442516 
L 145.219258 19.290594 
z
" clip-path="url(#p63d9c2ad24)" style="fill: #6baed6; opacity: 0.5; stroke: #000000; stroke-width: 0.3; stroke-linejoin: miter"/>
   </g>
   <g id="patch_60">
    <path d="M 163.275307 24.963929 
L 167.423489 20.521397 
L 164.173012 15.662502 
L 156.76675 15.24795 
L 152.622282 19.692987 
L 155.880337 24.550069 
z
" clip-path="url(#p63d9c2ad24)" style="fill: #6baed6; opacity: 0.5; stroke: #000000; stroke-width: 0.3; stroke-linejoin: miter"/>
   </g>
   <g id="patch_61">
    <path d="M 141.085609 23.745931 
L 145.219258 19.290594 
L 141.949399 14.442516 
L 134.538446 14.051646 
L 130.408709 18.509458 
L 133.685986 23.355663 
z
" clip-path="url(#p63d9c2ad24)" style="fill: #6baed6; opacity: 0.5; stroke: #000000; stroke-width: 0.3; stroke-linejoin: miter"/>
   </g>
   <g id="patch_62">
    <path d="M 151.742875 29.002915 
L 155.880337 24.550069 
L 152.622282 19.692987 
L 145.219258 19.290594 
L 141.085609 23.745931 
L 144.351146 28.601168 
z
" clip-path="url(#p63d9c2ad24)" style="fill: #6baed6; opacity: 0.5; stroke: #000000; stroke-width: 0.3; stroke-linejoin: miter"/>
   </g>
   <g id="patch_63">
    <path d="M 118.882566 22.598758 
L 123.00132 18.130727 
L 119.712327 13.293628 
L 112.297299 12.92649 
L 108.182654 17.396963 
L 111.478904 22.232131 
z
" clip-path="url(#p63d9c2ad24)" style="fill: #6baed6; opacity: 0.5; stroke: #000000; stroke-width: 0.3; stroke-linejoin: miter"/>
   </g>
   <g id="patch_64">
    <path d="M 129.563224 27.821235 
L 133.685986 23.355663 
L 130.408709 18.509458 
L 123.00132 18.130727 
L 118.882566 22.598758 
L 122.167166 27.443059 
z
" clip-path="url(#p63d9c2ad24)" style="fill: #6baed6; opacity: 0.5; stroke: #000000; stroke-width: 0.3; stroke-linejoin: miter"/>
   </g>
   <g id="patch_65">
    <path d="M 107.3712 26.710315 
L 111.478904 22.232131 
L 108.182654 17.396963 
L 100.771515 17.04194 
L 96.668017 21.52255 
L 99.971428 26.355756 
z
" clip-path="url(#p63d9c2ad24)" style="fill: #6baed6; opacity: 0.5; stroke: #000000; stroke-width: 0.3; stroke-linejoin: miter"/>
   </g>
   <g id="patch_66">
    <path d="M 118.055359 31.9188 
L 122.167166 27.443059 
L 118.882566 22.598758 
L 111.478904 22.232131 
L 107.3712 26.710315 
L 110.66303 31.552682 
z
" clip-path="url(#p63d9c2ad24)" style="fill: #6baed6; opacity: 0.5; stroke: #000000; stroke-width: 0.3; stroke-linejoin: miter"/>
   </g>
   <g id="patch_67">
    <path d="M 130.408709 18.509458 
L 134.538446 14.051646 
L 131.256806 9.212647 
L 123.838051 8.833359 
L 119.712327 13.293628 
L 123.00132 18.130727 
z
" clip-path="url(#p63d9c2ad24)" style="fill: #6baed6; opacity: 0.5; stroke: #000000; stroke-width: 0.3; stroke-linejoin: miter"/>
   </g>
   <g id="patch_68">
    <path d="M 108.182654 17.396963 
L 112.297299 12.92649 
L 108.996618 8.098571 
L 101.574079 7.743081 
L 97.463645 12.215979 
L 100.771515 17.04194 
z
" clip-path="url(#p63d9c2ad24)" style="fill: #6baed6; opacity: 0.5; stroke: #000000; stroke-width: 0.3; stroke-linejoin: miter"/>
   </g>
   <g id="patch_69">
    <path d="M 25.862352 74.885202 
L 29.877494 70.323319 
L 26.542328 65.48823 
L 19.185555 65.217203 
L 15.175248 69.781391 
L 18.516854 74.6143 
z
" clip-path="url(#p63d9c2ad24)" style="fill: #6baed6; opacity: 0.5; stroke: #000000; stroke-width: 0.3; stroke-linejoin: miter"/>
   </g>
   <g id="patch_70">
    <path d="M 36.532173 80.009781 
L 40.552051 75.450225 
L 37.227979 70.605917 
L 29.877494 70.323319 
L 25.862352 74.885202 
L 29.192934 79.727354 
z
" clip-path="url(#p63d9c2ad24)" style="fill: #6baed6; opacity: 0.5; stroke: #000000; stroke-width: 0.3; stroke-linejoin: miter"/>
   </g>
   <g id="patch_71">
    <path d="M 25.184459 84.29642 
L 29.192934 79.727354 
L 25.862352 74.885202 
L 18.516854 74.6143 
L 14.513204 79.185675 
L 17.850202 84.025641 
z
" clip-path="url(#p63d9c2ad24)" style="fill: #6baed6; opacity: 0.5; stroke: #000000; stroke-width: 0.3; stroke-linejoin: miter"/>
   </g>
   <g id="patch_72">
    <path d="M 26.542328 65.48823 
L 30.564159 60.933587 
L 27.224399 56.105614 
L 19.856317 55.834458 
L 15.83933 60.391405 
L 19.185555 65.217203 
z
" clip-path="url(#p63d9c2ad24)" style="fill: #6baed6; opacity: 0.5; stroke: #000000; stroke-width: 0.3; stroke-linejoin: miter"/>
   </g>
   <g id="patch_73">
    <path d="M 37.227979 70.605917 
L 41.254555 66.053599 
L 37.925926 61.216359 
L 30.564159 60.933587 
L 26.542328 65.48823 
L 29.877494 70.323319 
z
" clip-path="url(#p63d9c2ad24)" style="fill: #6baed6; opacity: 0.5; stroke: #000000; stroke-width: 0.3; stroke-linejoin: miter"/>
   </g>
   <g id="patch_74">
    <path d="M 230.744735 19.747355 
L 234.941422 15.35187 
L 231.746492 10.468556 
L 224.346776 9.982349 
L 220.153208 14.380422 
L 223.356211 19.262113 
z
" clip-path="url(#p63d9c2ad24)" style="fill: #6baed6; opacity: 0.5; stroke: #000000; stroke-width: 0.3; stroke-linejoin: miter"/>
   </g>
   <g id="patch_75">
    <path d="M 208.572509 18.31511 
L 212.755745 13.90646 
L 209.540641 9.033507 
L 202.134357 8.570887 
L 197.954441 12.982098 
L 201.177465 17.853365 
z
" clip-path="url(#p63d9c2ad24)" style="fill: #6baed6; opacity: 0.5; stroke: #000000; stroke-width: 0.3; stroke-linejoin: miter"/>
   </g>
   <g id="patch_76">
    <path d="M 219.169757 23.668186 
L 223.356211 19.262113 
L 220.153208 14.380422 
L 212.755745 13.90646 
L 208.572509 18.31511 
L 211.783493 23.195143 
z
" clip-path="url(#p63d9c2ad24)" style="fill: #6baed6; opacity: 0.5; stroke: #000000; stroke-width: 0.3; stroke-linejoin: miter"/>
   </g>
   <g id="patch_77">
    <path d="M 186.381327 16.953426 
L 190.550737 12.531713 
L 187.315695 7.669288 
L 179.903453 7.230324 
L 175.737562 11.654571 
L 178.980368 16.515247 
z
" clip-path="url(#p63d9c2ad24)" style="fill: #6baed6; opacity: 0.5; stroke: #000000; stroke-width: 0.3; stroke-linejoin: miter"/>
   </g>
   <g id="patch_78">
    <path d="M 197.004635 22.27253 
L 201.177465 17.853365 
L 197.954441 12.982098 
L 190.550737 12.531713 
L 186.381327 16.953426 
L 189.612176 21.822974 
z
" clip-path="url(#p63d9c2ad24)" style="fill: #6baed6; opacity: 0.5; stroke: #000000; stroke-width: 0.3; stroke-linejoin: miter"/>
   </g>
   <g id="patch_79">
    <path d="M 174.821536 20.947401 
L 178.980368 16.515247 
L 175.737562 11.654571 
L 168.328227 11.227828 
L 164.173012 15.662502 
L 167.423489 20.521397 
z
" clip-path="url(#p63d9c2ad24)" style="fill: #6baed6; opacity: 0.5; stroke: #000000; stroke-width: 0.3; stroke-linejoin: miter"/>
   </g>
   <g id="patch_80">
    <path d="M 185.449827 26.252593 
L 189.612176 21.822974 
L 186.381327 16.953426 
L 178.980368 16.515247 
L 174.821536 20.947401 
L 178.060119 25.815197 
z
" clip-path="url(#p63d9c2ad24)" style="fill: #6baed6; opacity: 0.5; stroke: #000000; stroke-width: 0.3; stroke-linejoin: miter"/>
   </g>
   <g id="patch_81">
    <path d="M 264.489118 17.388619 
L 268.708861 13.017111 
L 265.542645 8.122085 
L 258.148347 7.600089 
L 253.931423 11.97422 
L 257.105953 16.867721 
z
" clip-path="url(#p63d9c2ad24)" style="fill: #6baed6; opacity: 0.5; stroke: #000000; stroke-width: 0.3; stroke-linejoin: miter"/>
   </g>
   <g id="patch_82">
    <path d="M 252.896189 21.249946 
L 257.105953 16.867721 
L 253.931423 11.97422 
L 246.538883 11.4645 
L 242.332038 15.849338 
L 245.514791 20.741281 
z
" clip-path="url(#p63d9c2ad24)" style="fill: #6baed6; opacity: 0.5; stroke: #000000; stroke-width: 0.3; stroke-linejoin: miter"/>
   </g>
   <g id="patch_83">
    <path d="M 29.97381 18.720837 
L 34.029415 14.203211 
L 30.666493 9.411587 
L 23.241349 9.139738 
L 19.190634 13.65966 
L 22.560147 18.449133 
z
" clip-path="url(#p63d9c2ad24)" style="fill: #6baed6; opacity: 0.5; stroke: #000000; stroke-width: 0.3; stroke-linejoin: miter"/>
   </g>
   <g id="patch_84">
    <path d="M 271.661026 251.177856 
L 275.729728 246.642491 
L 272.68623 241.578671 
L 265.566249 241.051776 
L 261.500101 245.589938 
L 264.551358 250.652196 
z
" clip-path="url(#p63d9c2ad24)" style="fill: #6baed6; opacity: 0.5; stroke: #000000; stroke-width: 0.3; stroke-linejoin: miter"/>
   </g>
   <g id="patch_85">
    <path d="M 260.491862 255.197115 
L 264.551358 250.652196 
L 261.500101 245.589938 
L 254.381647 245.074197 
L 250.324795 249.621903 
L 253.383731 254.682561 
z
" clip-path="url(#p63d9c2ad24)" style="fill: #6baed6; opacity: 0.5; stroke: #000000; stroke-width: 0.3; stroke-linejoin: miter"/>
   </g>
   <g id="patch_86">
    <path d="M 272.68623 241.578671 
L 276.761603 237.05012 
L 273.714463 231.991887 
L 266.584139 231.463757 
L 262.51132 235.995097 
L 265.566249 241.051776 
z
" clip-path="url(#p63d9c2ad24)" style="fill: #6baed6; opacity: 0.5; stroke: #000000; stroke-width: 0.3; stroke-linejoin: miter"/>
   </g>
   <g id="patch_87">
    <path d="M 282.840782 247.179285 
L 286.918619 242.653538 
L 283.88296 237.588195 
L 276.761603 237.05012 
L 272.68623 241.578671 
L 275.729728 246.642491 
z
" clip-path="url(#p63d9c2ad24)" style="fill: #6baed6; opacity: 0.5; stroke: #000000; stroke-width: 0.3; stroke-linejoin: miter"/>
   </g>
   <g id="patch_88">
    <path d="M 261.500101 245.589938 
L 265.566249 241.051776 
L 262.51132 235.995097 
L 255.382515 235.478169 
L 251.319011 240.019109 
L 254.381647 245.074197 
z
" clip-path="url(#p63d9c2ad24)" style="fill: #6baed6; opacity: 0.5; stroke: #000000; stroke-width: 0.3; stroke-linejoin: miter"/>
   </g>
   <g id="patch_89">
    <path d="M 239.160532 253.674473 
L 243.208019 249.117288 
L 240.137757 244.06383 
L 233.012441 243.569222 
L 228.967777 248.129166 
L 232.045584 253.180957 
z
" clip-path="url(#p63d9c2ad24)" style="fill: #6baed6; opacity: 0.5; stroke: #000000; stroke-width: 0.3; stroke-linejoin: miter"/>
   </g>
   <g id="patch_90">
    <path d="M 240.137757 244.06383 
L 244.191875 239.513355 
L 241.117875 234.465523 
L 233.982161 233.969822 
L 229.930867 238.523048 
L 233.012441 243.569222 
z
" clip-path="url(#p63d9c2ad24)" style="fill: #6baed6; opacity: 0.5; stroke: #000000; stroke-width: 0.3; stroke-linejoin: miter"/>
   </g>
   <g id="patch_91">
    <path d="M 250.324795 249.621903 
L 254.381647 245.074197 
L 251.319011 240.019109 
L 244.191875 239.513355 
L 240.137757 244.06383 
L 243.208019 249.117288 
z
" clip-path="url(#p63d9c2ad24)" style="fill: #6baed6; opacity: 0.5; stroke: #000000; stroke-width: 0.3; stroke-linejoin: miter"/>
   </g>
   <g id="patch_92">
    <path d="M 228.967777 248.129166 
L 233.012441 243.569222 
L 229.930867 238.523048 
L 222.797116 238.038512 
L 218.755365 242.601196 
L 221.84443 247.645674 
z
" clip-path="url(#p63d9c2ad24)" style="fill: #6baed6; opacity: 0.5; stroke: #000000; stroke-width: 0.3; stroke-linejoin: miter"/>
   </g>
   <g id="patch_93">
    <path d="M 304.158191 248.831618 
L 308.247376 244.318385 
L 305.23118 239.244564 
L 298.117808 238.685427 
L 294.030907 243.201491 
L 297.055072 248.273858 
z
" clip-path="url(#p63d9c2ad24)" style="fill: #6baed6; opacity: 0.5; stroke: #000000; stroke-width: 0.3; stroke-linejoin: miter"/>
   </g>
   <g id="patch_94">
    <path d="M 314.264699 254.47842 
L 318.35608 249.968035 
L 315.351438 244.887307 
L 308.247376 244.318385 
L 304.158191 248.831618 
L 307.17085 253.910923 
z
" clip-path="url(#p63d9c2ad24)" style="fill: #6baed6; opacity: 0.5; stroke: #000000; stroke-width: 0.3; stroke-linejoin: miter"/>
   </g>
   <g id="patch_95">
    <path d="M 292.97486 252.796782 
L 297.055072 248.273858 
L 294.030907 243.201491 
L 286.918619 242.653538 
L 282.840782 247.179285 
L 285.872836 252.250158 
z
" clip-path="url(#p63d9c2ad24)" style="fill: #6baed6; opacity: 0.5; stroke: #000000; stroke-width: 0.3; stroke-linejoin: miter"/>
   </g>
   <g id="patch_96">
    <path d="M 305.23118 239.244564 
L 309.327072 234.738247 
L 306.307333 229.669972 
L 299.183679 229.109459 
L 295.090069 233.618599 
L 298.117808 238.685427 
z
" clip-path="url(#p63d9c2ad24)" style="fill: #6baed6; opacity: 0.5; stroke: #000000; stroke-width: 0.3; stroke-linejoin: miter"/>
   </g>
   <g id="patch_97">
    <path d="M 315.351438 244.887307 
L 319.449524 240.383828 
L 316.441376 235.308592 
L 309.327072 234.738247 
L 305.23118 239.244564 
L 308.247376 244.318385 
z
" clip-path="url(#p63d9c2ad24)" style="fill: #6baed6; opacity: 0.5; stroke: #000000; stroke-width: 0.3; stroke-linejoin: miter"/>
   </g>
   <g id="patch_98">
    <path d="M 294.030907 243.201491 
L 298.117808 238.685427 
L 295.090069 233.618599 
L 287.967487 233.069317 
L 283.88296 237.588195 
L 286.918619 242.653538 
z
" clip-path="url(#p63d9c2ad24)" style="fill: #6baed6; opacity: 0.5; stroke: #000000; stroke-width: 0.3; stroke-linejoin: miter"/>
   </g>
   <g id="patch_99">
    <path d="M 23.834887 103.161157 
L 27.830093 98.577894 
L 24.50864 93.721775 
L 17.185591 93.451116 
L 13.195192 98.036693 
L 16.523011 102.890614 
z
" clip-path="url(#p63d9c2ad24)" style="fill: #6baed6; opacity: 0.5; stroke: #000000; stroke-width: 0.3; stroke-linejoin: miter"/>
   </g>
   <g id="patch_100">
    <path d="M 24.50864 93.721775 
L 28.51047 89.145582 
L 25.184459 84.29642 
L 17.850202 84.025641 
L 13.853188 88.604145 
L 17.185591 93.451116 
z
" clip-path="url(#p63d9c2ad24)" style="fill: #6baed6; opacity: 0.5; stroke: #000000; stroke-width: 0.3; stroke-linejoin: miter"/>
   </g>
   <g id="patch_101">
    <path d="M 17.843895 32.308299 
L 21.881053 27.773406 
L 18.516222 22.976567 
L 11.107739 22.716804 
L 7.075553 27.253976 
L 10.446852 32.04863 
z
" clip-path="url(#p63d9c2ad24)" style="fill: #6baed6; opacity: 0.5; stroke: #000000; stroke-width: 0.3; stroke-linejoin: miter"/>
   </g>
   <g id="patch_102">
    <path d="M 28.594859 37.383877 
L 32.636888 32.851283 
L 29.283268 28.044968 
L 21.881053 27.773406 
L 17.843895 32.308299 
L 21.204056 37.112453 
z
" clip-path="url(#p63d9c2ad24)" style="fill: #6baed6; opacity: 0.5; stroke: #000000; stroke-width: 0.3; stroke-linejoin: miter"/>
   </g>
   <g id="patch_103">
    <path d="M 18.516222 22.976567 
L 22.560147 18.449133 
L 19.190634 13.65966 
L 11.770675 13.3998 
L 7.731731 17.929512 
L 11.107739 22.716804 
z
" clip-path="url(#p63d9c2ad24)" style="fill: #6baed6; opacity: 0.5; stroke: #000000; stroke-width: 0.3; stroke-linejoin: miter"/>
   </g>
   <g id="patch_104">
    <path d="M 29.283268 28.044968 
L 33.332074 23.519831 
L 29.97381 18.720837 
L 22.560147 18.449133 
L 18.516222 22.976567 
L 21.881053 27.773406 
z
" clip-path="url(#p63d9c2ad24)" style="fill: #6baed6; opacity: 0.5; stroke: #000000; stroke-width: 0.3; stroke-linejoin: miter"/>
   </g>
   <g id="patch_105">
    <path d="M 27.010184 213.102657 
L 30.938538 208.447948 
L 27.677034 203.510517 
L 20.480982 203.230047 
L 16.557244 207.88714 
L 19.824919 212.822318 
z
" clip-path="url(#p63d9c2ad24)" style="fill: #6baed6; opacity: 0.5; stroke: #000000; stroke-width: 0.3; stroke-linejoin: miter"/>
   </g>
   <g id="patch_106">
    <path d="M 17.20889 198.301134 
L 21.139021 193.650445 
L 17.862501 188.727856 
L 10.649697 188.458226 
L 6.724283 193.111271 
L 10.006931 198.03159 
z
" clip-path="url(#p63d9c2ad24)" style="fill: #6baed6; opacity: 0.5; stroke: #000000; stroke-width: 0.3; stroke-linejoin: miter"/>
   </g>
   <g id="patch_107">
    <path d="M 27.677034 203.510517 
L 31.61179 198.862206 
L 28.345893 193.931048 
L 21.139021 193.650445 
L 17.20889 198.301134 
L 20.480982 203.230047 
z
" clip-path="url(#p63d9c2ad24)" style="fill: #6baed6; opacity: 0.5; stroke: #000000; stroke-width: 0.3; stroke-linejoin: miter"/>
   </g>
   <g id="patch_108">
    <path d="M 142.529448 252.423447 
L 146.515509 247.809198 
L 143.36431 242.794654 
L 136.220123 242.396318 
L 132.237686 247.013186 
L 135.39579 252.025768 
z
" clip-path="url(#p63d9c2ad24)" style="fill: #6baed6; opacity: 0.5; stroke: #000000; stroke-width: 0.3; stroke-linejoin: miter"/>
   </g>
   <g id="patch_109">
    <path d="M 110.025093 255.51018 
L 113.98708 250.875382 
L 110.81132 245.872606 
L 103.666875 245.506683 
L 99.708774 250.144049 
L 102.891209 255.144768 
z
" clip-path="url(#p63d9c2ad24)" style="fill: #6baed6; opacity: 0.5; stroke: #000000; stroke-width: 0.3; stroke-linejoin: miter"/>
   </g>
   <g id="patch_110">
    <path d="M 56.851245 248.121277 
L 60.780107 243.461299 
L 57.559093 238.486736 
L 50.402876 238.174349 
L 46.47834 242.836795 
L 49.705671 247.809159 
z
" clip-path="url(#p63d9c2ad24)" style="fill: #6baed6; opacity: 0.5; stroke: #000000; stroke-width: 0.3; stroke-linejoin: miter"/>
   </g>
   <g id="patch_111">
    <path d="M 67.207267 253.424453 
L 71.140365 248.766966 
L 67.929987 243.784302 
L 60.780107 243.461299 
L 56.851245 248.121277 
L 60.068004 253.101766 
z
" clip-path="url(#p63d9c2ad24)" style="fill: #6baed6; opacity: 0.5; stroke: #000000; stroke-width: 0.3; stroke-linejoin: miter"/>
   </g>
   <g id="patch_112">
    <path d="M 45.787492 252.477795 
L 49.705671 247.809159 
L 46.47834 242.836795 
L 39.326575 242.5353 
L 35.412805 247.206388 
L 38.646367 252.176518 
z
" clip-path="url(#p63d9c2ad24)" style="fill: #6baed6; opacity: 0.5; stroke: #000000; stroke-width: 0.3; stroke-linejoin: miter"/>
   </g>
   <g id="patch_113">
    <path d="M 57.559093 238.486736 
L 61.494339 233.833007 
L 58.269058 228.864432 
L 51.102166 228.551775 
L 47.171253 233.207965 
L 50.402876 238.174349 
z
" clip-path="url(#p63d9c2ad24)" style="fill: #6baed6; opacity: 0.5; stroke: #000000; stroke-width: 0.3; stroke-linejoin: miter"/>
   </g>
   <g id="patch_114">
    <path d="M 67.929987 243.784302 
L 71.869475 239.133057 
L 68.654865 234.156327 
L 61.494339 233.833007 
L 57.559093 238.486736 
L 60.780107 243.461299 
z
" clip-path="url(#p63d9c2ad24)" style="fill: #6baed6; opacity: 0.5; stroke: #000000; stroke-width: 0.3; stroke-linejoin: miter"/>
   </g>
   <g id="patch_115">
    <path d="M 46.47834 242.836795 
L 50.402876 238.174349 
L 47.171253 233.207965 
L 40.008818 232.90625 
L 36.088699 237.57114 
L 39.326575 242.5353 
z
" clip-path="url(#p63d9c2ad24)" style="fill: #6baed6; opacity: 0.5; stroke: #000000; stroke-width: 0.3; stroke-linejoin: miter"/>
   </g>
   <g id="patch_116">
    <path d="M 24.362686 251.595392 
L 28.265635 246.91574 
L 25.021593 241.953837 
L 17.868498 241.673873 
L 13.970131 246.355934 
L 17.220252 251.315548 
z
" clip-path="url(#p63d9c2ad24)" style="fill: #6baed6; opacity: 0.5; stroke: #000000; stroke-width: 0.3; stroke-linejoin: miter"/>
   </g>
   <g id="patch_117">
    <path d="M 25.021593 241.953837 
L 28.930863 237.280323 
L 25.682472 232.324444 
L 18.518686 232.044357 
L 14.614006 236.720274 
L 17.868498 241.673873 
z
" clip-path="url(#p63d9c2ad24)" style="fill: #6baed6; opacity: 0.5; stroke: #000000; stroke-width: 0.3; stroke-linejoin: miter"/>
   </g>
   <g id="patch_118">
    <path d="M 35.412805 247.206388 
L 39.326575 242.5353 
L 36.088699 237.57114 
L 28.930863 237.280323 
L 25.021593 241.953837 
L 28.265635 246.91574 
z
" clip-path="url(#p63d9c2ad24)" style="fill: #6baed6; opacity: 0.5; stroke: #000000; stroke-width: 0.3; stroke-linejoin: miter"/>
   </g>
   <g id="patch_119">
    <path d="M 21.160337 141.056679 
L 25.129261 136.44572 
L 21.825924 131.562328 
L 14.547368 131.292116 
L 10.583214 135.905402 
L 13.892821 140.786572 
z
" clip-path="url(#p63d9c2ad24)" style="fill: #6baed6; opacity: 0.5; stroke: #000000; stroke-width: 0.3; stroke-linejoin: miter"/>
   </g>
   <g id="patch_120">
    <path d="M 31.720625 146.228062 
L 35.694225 141.619454 
L 32.401724 136.727184 
L 25.129261 136.44572 
L 21.160337 141.056679 
L 24.459176 145.94675 
z
" clip-path="url(#p63d9c2ad24)" style="fill: #6baed6; opacity: 0.5; stroke: #000000; stroke-width: 0.3; stroke-linejoin: miter"/>
   </g>
   <g id="patch_121">
    <path d="M 20.496769 150.564483 
L 24.459176 145.94675 
L 21.160337 141.056679 
L 13.892821 140.786572 
L 9.935177 145.406637 
L 13.240261 150.294477 
z
" clip-path="url(#p63d9c2ad24)" style="fill: #6baed6; opacity: 0.5; stroke: #000000; stroke-width: 0.3; stroke-linejoin: miter"/>
   </g>
   <g id="patch_122">
    <path d="M 21.825924 131.562328 
L 25.801386 126.958205 
L 22.493538 122.081547 
L 15.203909 121.811228 
L 11.233226 126.417675 
L 14.547368 131.292116 
z
" clip-path="url(#p63d9c2ad24)" style="fill: #6baed6; opacity: 0.5; stroke: #000000; stroke-width: 0.3; stroke-linejoin: miter"/>
   </g>
   <g id="patch_123">
    <path d="M 32.401724 136.727184 
L 36.381871 132.125406 
L 33.084896 127.239821 
L 25.801386 126.958205 
L 21.825924 131.562328 
L 25.129261 136.44572 
z
" clip-path="url(#p63d9c2ad24)" style="fill: #6baed6; opacity: 0.5; stroke: #000000; stroke-width: 0.3; stroke-linejoin: miter"/>
   </g>
   <g id="patch_124">
    <path d="M 19.175652 169.619979 
L 23.125086 164.988877 
L 19.83521 160.085623 
L 12.589677 159.815715 
L 8.644987 164.449158 
L 11.941061 169.350166 
z
" clip-path="url(#p63d9c2ad24)" style="fill: #6baed6; opacity: 0.5; stroke: #000000; stroke-width: 0.3; stroke-linejoin: miter"/>
   </g>
   <g id="patch_125">
    <path d="M 19.83521 160.085623 
L 23.79112 155.461175 
L 20.496769 150.564483 
L 13.240261 150.294477 
L 9.289104 154.921262 
L 12.589677 159.815715 
z
" clip-path="url(#p63d9c2ad24)" style="fill: #6baed6; opacity: 0.5; stroke: #000000; stroke-width: 0.3; stroke-linejoin: miter"/>
   </g>
   <g id="patch_126">
    <path d="M 408.489469 24.468977 
L 412.787369 20.190367 
L 409.758112 15.237305 
L 402.421695 14.563923 
L 398.125309 18.845275 
L 401.163804 23.797263 
z
" clip-path="url(#p63d9c2ad24)" style="fill: #6baed6; opacity: 0.5; stroke: #000000; stroke-width: 0.3; stroke-linejoin: miter"/>
   </g>
   <g id="patch_127">
    <path d="M 418.829733 30.110994 
L 423.129051 25.835134 
L 420.112523 20.874302 
L 412.787369 20.190367 
L 408.489469 24.468977 
L 411.515282 29.428769 
z
" clip-path="url(#p63d9c2ad24)" style="fill: #6baed6; opacity: 0.5; stroke: #000000; stroke-width: 0.3; stroke-linejoin: miter"/>
   </g>
   <g id="patch_128">
    <path d="M 396.874696 28.087012 
L 401.163804 23.797263 
L 398.125309 18.845275 
L 390.78853 18.184145 
L 386.501039 22.47663 
L 389.548687 27.427506 
z
" clip-path="url(#p63d9c2ad24)" style="fill: #6baed6; opacity: 0.5; stroke: #000000; stroke-width: 0.3; stroke-linejoin: miter"/>
   </g>
   <g id="patch_129">
    <path d="M 407.224653 33.715773 
L 411.515282 29.428769 
L 408.489469 24.468977 
L 401.163804 23.797263 
L 396.874696 28.087012 
L 399.909709 33.045727 
z
" clip-path="url(#p63d9c2ad24)" style="fill: #6baed6; opacity: 0.5; stroke: #000000; stroke-width: 0.3; stroke-linejoin: miter"/>
   </g>
   <g id="patch_130">
    <path d="M 420.112523 20.874302 
L 424.419128 16.60688 
L 421.399191 11.652781 
L 414.063307 10.967137 
L 409.758112 15.237305 
L 412.787369 20.190367 
z
" clip-path="url(#p63d9c2ad24)" style="fill: #6baed6; opacity: 0.5; stroke: #000000; stroke-width: 0.3; stroke-linejoin: miter"/>
   </g>
   <g id="patch_131">
    <path d="M 398.125309 18.845275 
L 402.421695 14.563923 
L 399.379714 9.618713 
L 392.032133 8.955959 
L 387.737358 13.240043 
L 390.78853 18.184145 
z
" clip-path="url(#p63d9c2ad24)" style="fill: #6baed6; opacity: 0.5; stroke: #000000; stroke-width: 0.3; stroke-linejoin: miter"/>
   </g>
   <g id="patch_132">
    <path d="M 435.52926 69.278066 
L 439.809451 64.982746 
L 436.828324 59.987032 
L 429.557718 59.287613 
L 425.278778 63.585716 
L 428.269171 68.580451 
z
" clip-path="url(#p63d9c2ad24)" style="fill: #6baed6; opacity: 0.5; stroke: #000000; stroke-width: 0.3; stroke-linejoin: miter"/>
   </g>
   <g id="patch_133">
    <path d="M 436.828324 59.987032 
L 441.115717 55.69999 
L 438.131284 50.710755 
L 430.850133 50.009534 
L 426.563982 54.299353 
L 429.557718 59.287613 
z
" clip-path="url(#p63d9c2ad24)" style="fill: #6baed6; opacity: 0.5; stroke: #000000; stroke-width: 0.3; stroke-linejoin: miter"/>
   </g>
   <g id="patch_134">
    <path d="M 432.942756 87.903987 
L 437.208609 83.592266 
L 434.234077 78.583753 
L 426.984476 77.887945 
L 422.719889 82.20246 
L 425.703615 87.209987 
z
" clip-path="url(#p63d9c2ad24)" style="fill: #6baed6; opacity: 0.5; stroke: #000000; stroke-width: 0.3; stroke-linejoin: miter"/>
   </g>
   <g id="patch_135">
    <path d="M 421.446171 91.532631 
L 425.703615 87.209987 
L 422.719889 82.20246 
L 415.469583 81.5186 
L 411.213505 85.844034 
L 414.206346 90.850536 
z
" clip-path="url(#p63d9c2ad24)" style="fill: #6baed6; opacity: 0.5; stroke: #000000; stroke-width: 0.3; stroke-linejoin: miter"/>
   </g>
   <g id="patch_136">
    <path d="M 431.655281 97.238661 
L 435.913998 92.918818 
L 432.942756 87.903987 
L 425.703615 87.209987 
L 421.446171 91.532631 
L 424.426573 96.546471 
z
" clip-path="url(#p63d9c2ad24)" style="fill: #6baed6; opacity: 0.5; stroke: #000000; stroke-width: 0.3; stroke-linejoin: miter"/>
   </g>
   <g id="patch_137">
    <path d="M 434.234077 78.583753 
L 438.507087 74.280207 
L 435.52926 69.278066 
L 428.269171 68.580451 
L 423.997419 72.886787 
L 426.984476 77.887945 
z
" clip-path="url(#p63d9c2ad24)" style="fill: #6baed6; opacity: 0.5; stroke: #000000; stroke-width: 0.3; stroke-linejoin: miter"/>
   </g>
   <g id="patch_138">
    <path d="M 422.719889 82.20246 
L 426.984476 77.887945 
L 423.997419 72.886787 
L 416.736604 72.201162 
L 412.473376 76.518463 
L 415.469583 81.5186 
z
" clip-path="url(#p63d9c2ad24)" style="fill: #6baed6; opacity: 0.5; stroke: #000000; stroke-width: 0.3; stroke-linejoin: miter"/>
   </g>
   <g id="patch_139">
    <path d="M 427.85305 45.027803 
L 432.146433 40.746317 
L 429.145997 35.771167 
L 421.842859 35.078507 
L 417.550805 39.362756 
L 420.560536 44.336898 
z
" clip-path="url(#p63d9c2ad24)" style="fill: #6baed6; opacity: 0.5; stroke: #000000; stroke-width: 0.3; stroke-linejoin: miter"/>
   </g>
   <g id="patch_140">
    <path d="M 416.275723 48.629486 
L 420.560536 44.336898 
L 417.550805 39.362756 
L 410.247027 38.682243 
L 405.963646 42.977591 
L 408.982589 47.950688 
z
" clip-path="url(#p63d9c2ad24)" style="fill: #6baed6; opacity: 0.5; stroke: #000000; stroke-width: 0.3; stroke-linejoin: miter"/>
   </g>
   <g id="patch_141">
    <path d="M 426.563982 54.299353 
L 430.850133 50.009534 
L 427.85305 45.027803 
L 420.560536 44.336898 
L 416.275723 48.629486 
L 419.282064 53.610207 
z
" clip-path="url(#p63d9c2ad24)" style="fill: #6baed6; opacity: 0.5; stroke: #000000; stroke-width: 0.3; stroke-linejoin: miter"/>
   </g>
   <g id="patch_142">
    <path d="M 429.145997 35.771167 
L 433.446637 31.498066 
L 430.44284 26.529549 
L 423.129051 25.835134 
L 418.829733 30.110994 
L 421.842859 35.078507 
z
" clip-path="url(#p63d9c2ad24)" style="fill: #6baed6; opacity: 0.5; stroke: #000000; stroke-width: 0.3; stroke-linejoin: miter"/>
   </g>
   <g id="patch_143">
    <path d="M 417.550805 39.362756 
L 421.842859 35.078507 
L 418.829733 30.110994 
L 411.515282 29.428769 
L 407.224653 33.715773 
L 410.247027 38.682243 
z
" clip-path="url(#p63d9c2ad24)" style="fill: #6baed6; opacity: 0.5; stroke: #000000; stroke-width: 0.3; stroke-linejoin: miter"/>
   </g>
   <g id="patch_144">
    <path d="M 430.44284 26.529549 
L 434.75076 22.264881 
L 431.743598 17.303047 
L 424.419128 16.60688 
L 420.112523 20.874302 
L 423.129051 25.835134 
z
" clip-path="url(#p63d9c2ad24)" style="fill: #6baed6; opacity: 0.5; stroke: #000000; stroke-width: 0.3; stroke-linejoin: miter"/>
   </g>
   <g id="patch_145">
    <path d="M 431.743598 17.303047 
L 436.058821 13.046862 
L 433.048288 8.091762 
L 425.713107 7.393845 
L 421.399191 11.652781 
L 424.419128 16.60688 
z
" clip-path="url(#p63d9c2ad24)" style="fill: #6baed6; opacity: 0.5; stroke: #000000; stroke-width: 0.3; stroke-linejoin: miter"/>
   </g>
   <g id="patch_146">
    <path d="M 320.342636 16.91245 
L 324.596574 12.578776 
L 321.480807 7.662679 
L 314.102385 7.081609 
L 309.850763 11.417958 
L 312.975222 16.3327 
z
" clip-path="url(#p63d9c2ad24)" style="fill: #6baed6; opacity: 0.5; stroke: #000000; stroke-width: 0.3; stroke-linejoin: miter"/>
   </g>
   <g id="patch_147">
    <path d="M 286.622643 18.99802 
L 290.854905 14.639933 
L 287.70946 9.73496 
L 280.323268 9.18953 
L 276.093624 13.550263 
L 279.247529 18.453777 
z
" clip-path="url(#p63d9c2ad24)" style="fill: #6baed6; opacity: 0.5; stroke: #000000; stroke-width: 0.3; stroke-linejoin: miter"/>
   </g>
   <g id="patch_148">
    <path d="M 421.536536 254.251123 
L 425.685359 249.811898 
L 422.777845 244.69748 
L 415.712831 244.023338 
L 411.565303 248.465504 
L 414.481474 253.578868 
z
" clip-path="url(#p63d9c2ad24)" style="fill: #6baed6; opacity: 0.5; stroke: #000000; stroke-width: 0.3; stroke-linejoin: miter"/>
   </g>
   <g id="patch_149">
    <path d="M 389.163367 256.065233 
L 393.294504 251.602973 
L 390.357984 246.497131 
L 383.281843 245.854717 
L 379.152273 250.319896 
L 382.097257 255.424568 
z
" clip-path="url(#p63d9c2ad24)" style="fill: #6baed6; opacity: 0.5; stroke: #000000; stroke-width: 0.3; stroke-linejoin: miter"/>
   </g>
   <g id="patch_150">
    <path d="M 433.997795 240.950778 
L 438.161401 236.528933 
L 435.259487 231.418824 
L 428.185183 230.731563 
L 424.022774 235.156343 
L 426.933451 240.265446 
z
" clip-path="url(#p63d9c2ad24)" style="fill: #6baed6; opacity: 0.5; stroke: #000000; stroke-width: 0.3; stroke-linejoin: miter"/>
   </g>
   <g id="patch_151">
    <path d="M 422.777845 244.69748 
L 426.933451 240.265446 
L 424.022774 235.156343 
L 416.947781 234.480316 
L 412.793465 238.915281 
L 415.712831 244.023338 
z
" clip-path="url(#p63d9c2ad24)" style="fill: #6baed6; opacity: 0.5; stroke: #000000; stroke-width: 0.3; stroke-linejoin: miter"/>
   </g>
   <g id="patch_152">
    <path d="M 432.739771 250.495299 
L 436.89658 246.06621 
L 433.997795 240.950778 
L 426.933451 240.265446 
L 422.777845 244.69748 
L 425.685359 249.811898 
z
" clip-path="url(#p63d9c2ad24)" style="fill: #6baed6; opacity: 0.5; stroke: #000000; stroke-width: 0.3; stroke-linejoin: miter"/>
   </g>
   <g id="patch_153">
    <path d="M 435.259487 231.418824 
L 439.42991 227.004285 
L 436.524861 221.899562 
L 429.440572 221.210373 
L 425.271338 225.627838 
L 428.185183 230.731563 
z
" clip-path="url(#p63d9c2ad24)" style="fill: #6baed6; opacity: 0.5; stroke: #000000; stroke-width: 0.3; stroke-linejoin: miter"/>
   </g>
   <g id="patch_154">
    <path d="M 424.022774 235.156343 
L 428.185183 230.731563 
L 425.271338 225.627838 
L 418.186341 224.949929 
L 414.025215 229.37763 
L 416.947781 234.480316 
z
" clip-path="url(#p63d9c2ad24)" style="fill: #6baed6; opacity: 0.5; stroke: #000000; stroke-width: 0.3; stroke-linejoin: miter"/>
   </g>
   <g id="patch_155">
    <path d="M 429.039001 197.119356 
L 433.228835 192.724201 
L 430.302265 187.642615 
L 423.176985 186.957192 
L 418.988407 191.355234 
L 421.923832 196.435809 
z
" clip-path="url(#p63d9c2ad24)" style="fill: #6baed6; opacity: 0.5; stroke: #000000; stroke-width: 0.3; stroke-linejoin: miter"/>
   </g>
   <g id="patch_156">
    <path d="M 417.742149 200.841356 
L 421.923832 196.435809 
L 418.988407 191.355234 
L 411.862497 190.681254 
L 407.682164 195.089682 
L 410.626369 200.169207 
z
" clip-path="url(#p63d9c2ad24)" style="fill: #6baed6; opacity: 0.5; stroke: #000000; stroke-width: 0.3; stroke-linejoin: miter"/>
   </g>
   <g id="patch_157">
    <path d="M 427.779436 206.609222 
L 431.962382 202.20657 
L 429.039001 197.119356 
L 421.923832 196.435809 
L 417.742149 200.841356 
L 420.674351 205.927552 
z
" clip-path="url(#p63d9c2ad24)" style="fill: #6baed6; opacity: 0.5; stroke: #000000; stroke-width: 0.3; stroke-linejoin: miter"/>
   </g>
   <g id="patch_158">
    <path d="M 430.302265 187.642615 
L 434.499008 183.255014 
L 431.569243 178.179117 
L 424.433825 177.491821 
L 420.238331 181.882299 
L 423.176985 186.957192 
z
" clip-path="url(#p63d9c2ad24)" style="fill: #6baed6; opacity: 0.5; stroke: #000000; stroke-width: 0.3; stroke-linejoin: miter"/>
   </g>
   <g id="patch_159">
    <path d="M 418.988407 191.355234 
L 423.176985 186.957192 
L 420.238331 181.882299 
L 413.102265 181.206489 
L 408.91503 185.607405 
L 411.862497 190.681254 
z
" clip-path="url(#p63d9c2ad24)" style="fill: #6baed6; opacity: 0.5; stroke: #000000; stroke-width: 0.3; stroke-linejoin: miter"/>
   </g>
   <g id="patch_160">
    <path d="M 436.524861 221.899562 
L 440.702122 217.49239 
L 437.793934 212.393115 
L 430.699633 211.702001 
L 426.523554 216.11209 
L 429.440572 221.210373 
z
" clip-path="url(#p63d9c2ad24)" style="fill: #6baed6; opacity: 0.5; stroke: #000000; stroke-width: 0.3; stroke-linejoin: miter"/>
   </g>
   <g id="patch_161">
    <path d="M 431.569243 178.179117 
L 435.772916 173.799131 
L 432.839952 168.728983 
L 425.694369 168.039815 
L 421.491938 172.422671 
L 424.433825 177.491821 
z
" clip-path="url(#p63d9c2ad24)" style="fill: #6baed6; opacity: 0.5; stroke: #000000; stroke-width: 0.3; stroke-linejoin: miter"/>
   </g>
   <g id="patch_162">
    <path d="M 432.839952 168.728983 
L 437.050577 164.356668 
L 434.114407 159.292329 
L 426.958633 158.601292 
L 422.749242 162.976468 
L 425.694369 168.039815 
z
" clip-path="url(#p63d9c2ad24)" style="fill: #6baed6; opacity: 0.5; stroke: #000000; stroke-width: 0.3; stroke-linejoin: miter"/>
   </g>
   <g id="patch_163">
    <path d="M 426.543505 134.719576 
L 430.773904 130.367783 
L 427.815764 125.328236 
L 420.618184 124.641488 
L 416.389088 128.996109 
L 419.356247 134.034647 
z
" clip-path="url(#p63d9c2ad24)" style="fill: #6baed6; opacity: 0.5; stroke: #000000; stroke-width: 0.3; stroke-linejoin: miter"/>
   </g>
   <g id="patch_164">
    <path d="M 436.674623 140.45993 
L 440.906234 136.110975 
L 437.960416 131.064415 
L 430.773904 130.367783 
L 426.543505 134.719576 
L 429.498384 139.765161 
z
" clip-path="url(#p63d9c2ad24)" style="fill: #6baed6; opacity: 0.5; stroke: #000000; stroke-width: 0.3; stroke-linejoin: miter"/>
   </g>
   <g id="patch_165">
    <path d="M 427.815764 125.328236 
L 432.053209 120.984348 
L 429.091802 115.950895 
L 421.883874 115.262332 
L 417.647724 119.60904 
L 420.618184 124.641488 
z
" clip-path="url(#p63d9c2ad24)" style="fill: #6baed6; opacity: 0.5; stroke: #000000; stroke-width: 0.3; stroke-linejoin: miter"/>
   </g>
   <g id="patch_166">
    <path d="M 163.921837 253.659055 
L 167.921391 249.056547 
L 164.788216 244.032429 
L 157.648418 243.612716 
L 153.652311 248.217876 
L 156.792533 253.240096 
z
" clip-path="url(#p63d9c2ad24)" style="fill: #6baed6; opacity: 0.5; stroke: #000000; stroke-width: 0.3; stroke-linejoin: miter"/>
   </g>
   <g id="patch_167">
    <path d="M 185.300069 254.958396 
L 189.312787 250.367745 
L 186.197856 245.334226 
L 179.062996 244.893191 
L 175.053547 249.486527 
L 178.175666 254.518211 
z
" clip-path="url(#p63d9c2ad24)" style="fill: #6baed6; opacity: 0.5; stroke: #000000; stroke-width: 0.3; stroke-linejoin: miter"/>
   </g>
   <g id="patch_168">
    <path d="M 175.053547 249.486527 
L 179.062996 244.893191 
L 175.936953 239.86721 
L 168.794306 239.436427 
L 164.788216 244.032429 
L 167.921391 249.056547 
z
" clip-path="url(#p63d9c2ad24)" style="fill: #6baed6; opacity: 0.5; stroke: #000000; stroke-width: 0.3; stroke-linejoin: miter"/>
   </g>
   <g id="patch_169">
    <path d="M 206.662509 256.321293 
L 210.688062 251.742614 
L 207.591588 246.69987 
L 200.462213 246.237573 
L 196.439751 250.81897 
L 199.543551 255.859943 
z
" clip-path="url(#p63d9c2ad24)" style="fill: #6baed6; opacity: 0.5; stroke: #000000; stroke-width: 0.3; stroke-linejoin: miter"/>
   </g>
   <g id="patch_170">
    <path d="M 196.439751 250.81897 
L 200.462213 246.237573 
L 197.354553 241.202256 
L 190.217137 240.750131 
L 186.197856 245.334226 
L 189.312787 250.367745 
z
" clip-path="url(#p63d9c2ad24)" style="fill: #6baed6; opacity: 0.5; stroke: #000000; stroke-width: 0.3; stroke-linejoin: miter"/>
   </g>
   <g id="patch_171">
    <path d="M 217.809289 252.215019 
L 221.84443 247.645674 
L 218.755365 242.601196 
L 211.623727 242.127795 
L 207.591588 246.69987 
L 210.688062 251.742614 
z
" clip-path="url(#p63d9c2ad24)" style="fill: #6baed6; opacity: 0.5; stroke: #000000; stroke-width: 0.3; stroke-linejoin: miter"/>
   </g>
   <g id="patch_172">
    <path d="M 207.591588 246.69987 
L 211.623727 242.127795 
L 208.523422 237.090716 
L 201.3836 236.627471 
L 197.354553 241.202256 
L 200.462213 246.237573 
z
" clip-path="url(#p63d9c2ad24)" style="fill: #6baed6; opacity: 0.5; stroke: #000000; stroke-width: 0.3; stroke-linejoin: miter"/>
   </g>
  </g>
 </g>
 <defs>
  <clipPath id="p63d9c2ad24">
   <rect x="0.72" y="0.72" width="446.4" height="261.605575"/>
  </clipPath>
 </defs>
</svg>
