<?xml version="1.0" encoding="utf-8" standalone="no"?>
<!DOCTYPE svg PUBLIC "-//W3C//DTD SVG 1.1//EN"
  "http://www.w3.org/Graphics/SVG/1.1/DTD/svg11.dtd">
<svg xmlns:xlink="http://www.w3.org/1999/xlink" width="277.098617pt" height="313.236pt" viewBox="0 0 277.098617 313.236" xmlns="http://www.w3.org/2000/svg" version="1.1">
 <metadata>
  <rdf:RDF xmlns:dc="http://purl.org/dc/elements/1.1/" xmlns:cc="http://creativecommons.org/ns#" xmlns:rdf="http://www.w3.org/1999/02/22-rdf-syntax-ns#">
   <cc:Work>
    <dc:type rdf:resource="http://purl.org/dc/dcmitype/StillImage"/>
    <dc:format>image/svg+xml</dc:format>
   </cc:Work>
  </rdf:RDF>
 </metadata>
 <defs>
  <style type="text/css">*{stroke-linejoin: round; stroke-linecap: butt}</style>
 </defs>
 <g id="figure_1">
  <g id="patch_1">
   <path d="M 0 313.236 
L 277.098617 313.236 
L 277.098617 0 
L 0 0 
z
" style="fill: #ffffff"/>
  </g>
  <g id="axes_1">
   <g id="patch_2">
    <path d="M 155.373362 57.475679 
L 105.79427 91.8392 
L 111.105455 151.805797 
L 165.997251 177.407993 
L 215.576248 143.04323 
L 210.263545 83.077512 
z
" clip-path="url(#pe1cc5a2043)" style="fill: #6baed6; opacity: 0.5; stroke: #000000; stroke-linejoin: miter"/>
   </g>
   <g id="patch_3">
    <path d="M 107.057493 190.981866 
L 93.650134 209.367114 
L 103.009444 230.158199 
L 125.776195 232.563856 
L 139.183384 214.178496 
L 129.823991 193.387591 
z
" clip-path="url(#pe1cc5a2043)" style="fill: #74c476; opacity: 0.5; stroke: #000000; stroke-linejoin: miter"/>
   </g>
   <g id="patch_4">
    <path d="M 139.183384 214.178496 
L 125.776195 232.563856 
L 135.135671 253.354859 
L 157.902419 255.760321 
L 171.309438 237.374848 
L 161.949879 216.584025 
z
" clip-path="url(#pe1cc5a2043)" style="fill: #74c476; opacity: 0.5; stroke: #000000; stroke-linejoin: miter"/>
   </g>
   <g id="patch_5">
    <path d="M 70.883378 206.961261 
L 57.475679 225.346561 
L 66.834905 246.137827 
L 89.601914 248.543612 
L 103.009444 230.158199 
L 93.650134 209.367114 
z
" clip-path="url(#pe1cc5a2043)" style="fill: #74c476; opacity: 0.5; stroke: #000000; stroke-linejoin: miter"/>
   </g>
   <g id="patch_6">
    <path d="M 111.105455 151.805797 
L 97.698267 170.190879 
L 107.057493 190.981866 
L 129.823991 193.387591 
L 143.23101 175.002396 
L 133.8717 154.211589 
z
" clip-path="url(#pe1cc5a2043)" style="fill: #74c476; opacity: 0.5; stroke: #000000; stroke-linejoin: miter"/>
   </g>
   <g id="patch_7">
    <path d="M 143.23101 175.002396 
L 129.823991 193.387591 
L 139.183384 214.178496 
L 161.949879 216.584025 
L 175.356727 198.198717 
L 165.997251 177.407993 
z
" clip-path="url(#pe1cc5a2043)" style="fill: #74c476; opacity: 0.5; stroke: #000000; stroke-linejoin: miter"/>
   </g>
   <g id="patch_8">
    <path d="M 74.931765 167.784959 
L 61.524235 186.170093 
L 70.883378 206.961261 
L 93.650134 209.367114 
L 107.057493 190.981866 
L 97.698267 170.190879 
z
" clip-path="url(#pe1cc5a2043)" style="fill: #74c476; opacity: 0.5; stroke: #000000; stroke-linejoin: miter"/>
   </g>
  </g>
 </g>
 <defs>
  <clipPath id="pe1cc5a2043">
   <rect x="0" y="-0" width="277.098617" height="313.236"/>
  </clipPath>
 </defs>
</svg>
