<?xml version="1.0" encoding="utf-8" standalone="no"?>
<!DOCTYPE svg PUBLIC "-//W3C//DTD SVG 1.1//EN"
  "http://www.w3.org/Graphics/SVG/1.1/DTD/svg11.dtd">
<svg xmlns:xlink="http://www.w3.org/1999/xlink" width="460.8pt" height="412.94517pt" viewBox="0 0 460.8 412.94517" xmlns="http://www.w3.org/2000/svg" version="1.1">
 <metadata>
  <rdf:RDF xmlns:dc="http://purl.org/dc/elements/1.1/" xmlns:cc="http://creativecommons.org/ns#" xmlns:rdf="http://www.w3.org/1999/02/22-rdf-syntax-ns#">
   <cc:Work>
    <dc:type rdf:resource="http://purl.org/dc/dcmitype/StillImage"/>
    <dc:format>image/svg+xml</dc:format>
   </cc:Work>
  </rdf:RDF>
 </metadata>
 <defs>
  <style type="text/css">*{stroke-linejoin: round; stroke-linecap: butt}</style>
 </defs>
 <g id="figure_1">
  <g id="patch_1">
   <path d="M 0 412.94517 
L 460.8 412.94517 
L 460.8 0 
L 0 0 
z
" style="fill: #ffffff"/>
  </g>
  <g id="axes_1">
   <g id="line2d_1">
    <path d="M 408.162477 346.763202 
L 423.583724 325.434167 
" clip-path="url(#pb494a9ffc9)" style="fill: none; stroke: #000000; stroke-width: 1.5; stroke-linecap: square"/>
   </g>
   <g id="line2d_2">
    <path d="M 315.077479 387.62948 
L 330.499635 366.299873 
" clip-path="url(#pb494a9ffc9)" style="fill: none; stroke: #000000; stroke-width: 1.5; stroke-linecap: square"/>
   </g>
   <g id="line2d_3">
    <path d="M 361.620458 367.19619 
L 377.042159 345.866869 
" clip-path="url(#pb494a9ffc9)" style="fill: none; stroke: #000000; stroke-width: 1.5; stroke-linecap: square"/>
   </g>
   <g id="line2d_4">
    <path d="M 209.500507 94.280181 
L 224.922639 72.95296 
" clip-path="url(#pb494a9ffc9)" style="fill: none; stroke: #000000; stroke-width: 1.5; stroke-linecap: square"/>
   </g>
   <g id="line2d_5">
    <path d="M 287.991294 205.405228 
L 303.413112 184.077188 
" clip-path="url(#pb494a9ffc9)" style="fill: none; stroke: #000000; stroke-width: 1.5; stroke-linecap: square"/>
   </g>
   <g id="line2d_6">
    <path d="M 339.396636 134.312668 
L 354.817802 112.985379 
" clip-path="url(#pb494a9ffc9)" style="fill: none; stroke: #000000; stroke-width: 1.5; stroke-linecap: square"/>
   </g>
   <g id="line2d_7">
    <path d="M 413.025411 296.099358 
L 428.44646 274.770788 
" clip-path="url(#pb494a9ffc9)" style="fill: none; stroke: #000000; stroke-width: 1.5; stroke-linecap: square"/>
   </g>
   <g id="line2d_8">
    <path d="M 417.888239 245.436408 
L 433.309091 224.1083 
" clip-path="url(#pb494a9ffc9)" style="fill: none; stroke: #000000; stroke-width: 1.5; stroke-linecap: square"/>
   </g>
   <g id="line2d_9">
    <path d="M 116.413678 135.140352 
L 131.836717 113.812558 
" clip-path="url(#pb494a9ffc9)" style="fill: none; stroke: #000000; stroke-width: 1.5; stroke-linecap: square"/>
   </g>
   <g id="line2d_10">
    <path d="M 236.58378 276.500288 
L 252.006249 255.171499 
" clip-path="url(#pb494a9ffc9)" style="fill: none; stroke: #000000; stroke-width: 1.5; stroke-linecap: square"/>
   </g>
   <g id="line2d_11">
    <path d="M 241.448614 225.836514 
L 256.870886 204.508188 
" clip-path="url(#pb494a9ffc9)" style="fill: none; stroke: #000000; stroke-width: 1.5; stroke-linecap: square"/>
   </g>
   <g id="line2d_12">
    <path d="M 69.868826 155.57089 
L 85.292319 134.24281 
" clip-path="url(#pb494a9ffc9)" style="fill: none; stroke: #000000; stroke-width: 1.5; stroke-linecap: square"/>
   </g>
   <g id="line2d_13">
    <path d="M 277.566057 360.420489 
L 288.61054 384.68985 
" clip-path="url(#pb494a9ffc9)" style="fill: none; stroke: #000000; stroke-width: 1.5; stroke-linecap: square"/>
   </g>
   <g id="line2d_14">
    <path d="M 235.886755 330.188183 
L 246.931091 354.457504 
" clip-path="url(#pb494a9ffc9)" style="fill: none; stroke: #000000; stroke-width: 1.5; stroke-linecap: square"/>
   </g>
   <g id="line2d_15">
    <path d="M 260.210175 76.873657 
L 271.253995 101.141278 
" clip-path="url(#pb494a9ffc9)" style="fill: none; stroke: #000000; stroke-width: 1.5; stroke-linecap: square"/>
   </g>
   <g id="line2d_16">
    <path d="M 375.515122 268.891214 
L 386.559591 293.159633 
" clip-path="url(#pb494a9ffc9)" style="fill: none; stroke: #000000; stroke-width: 1.5; stroke-linecap: square"/>
   </g>
   <g id="line2d_17">
    <path d="M 338.70076 187.997354 
L 349.744978 212.265394 
" clip-path="url(#pb494a9ffc9)" style="fill: none; stroke: #000000; stroke-width: 1.5; stroke-linecap: square"/>
   </g>
   <g id="line2d_18">
    <path d="M 380.378354 218.22848 
L 391.422721 242.496559 
" clip-path="url(#pb494a9ffc9)" style="fill: none; stroke: #000000; stroke-width: 1.5; stroke-linecap: square"/>
   </g>
   <g id="line2d_19">
    <path d="M 69.169989 209.257864 
L 80.213733 233.527028 
" clip-path="url(#pb494a9ffc9)" style="fill: none; stroke: #000000; stroke-width: 1.5; stroke-linecap: square"/>
   </g>
   <g id="line2d_20">
    <path d="M 110.849114 239.490607 
L 121.893006 263.75981 
" clip-path="url(#pb494a9ffc9)" style="fill: none; stroke: #000000; stroke-width: 1.5; stroke-linecap: square"/>
   </g>
   <g id="line2d_21">
    <path d="M 162.259762 168.395716 
L 173.303595 192.664278 
" clip-path="url(#pb494a9ffc9)" style="fill: none; stroke: #000000; stroke-width: 1.5; stroke-linecap: square"/>
   </g>
   <g id="line2d_22">
    <path d="M 167.125343 117.733293 
L 178.169074 142.001514 
" clip-path="url(#pb494a9ffc9)" style="fill: none; stroke: #000000; stroke-width: 1.5; stroke-linecap: square"/>
   </g>
   <g id="line2d_23">
    <path d="M 152.528283 269.723241 
L 163.572323 293.992484 
" clip-path="url(#pb494a9ffc9)" style="fill: none; stroke: #000000; stroke-width: 1.5; stroke-linecap: square"/>
   </g>
   <g id="line2d_24">
    <path d="M 194.207497 299.955767 
L 205.251685 324.225049 
" clip-path="url(#pb494a9ffc9)" style="fill: none; stroke: #000000; stroke-width: 1.5; stroke-linecap: square"/>
   </g>
   <g id="line2d_25">
    <path d="M 27.490909 179.025013 
L 38.534505 203.294136 
" clip-path="url(#pb494a9ffc9)" style="fill: none; stroke: #000000; stroke-width: 1.5; stroke-linecap: square"/>
   </g>
   <g id="line2d_26">
    <path d="M 32.358047 128.361528 
L 43.401539 152.630311 
" clip-path="url(#pb494a9ffc9)" style="fill: none; stroke: #000000; stroke-width: 1.5; stroke-linecap: square"/>
   </g>
   <g id="line2d_27">
    <path d="M 381.696357 343.823601 
L 408.162477 346.763202 
" clip-path="url(#pb494a9ffc9)" style="fill: none; stroke: #000000; stroke-width: 1.5; stroke-linecap: square"/>
   </g>
   <g id="line2d_28">
    <path d="M 288.61054 384.68985 
L 315.077479 387.62948 
" clip-path="url(#pb494a9ffc9)" style="fill: none; stroke: #000000; stroke-width: 1.5; stroke-linecap: square"/>
   </g>
   <g id="line2d_29">
    <path d="M 335.153928 364.256574 
L 361.620458 367.19619 
" clip-path="url(#pb494a9ffc9)" style="fill: none; stroke: #000000; stroke-width: 1.5; stroke-linecap: square"/>
   </g>
   <g id="line2d_30">
    <path d="M 246.931091 354.457504 
L 273.398138 357.397272 
" clip-path="url(#pb494a9ffc9)" style="fill: none; stroke: #000000; stroke-width: 1.5; stroke-linecap: square"/>
   </g>
   <g id="line2d_31">
    <path d="M 229.576832 70.910027 
L 256.042484 73.85055 
" clip-path="url(#pb494a9ffc9)" style="fill: none; stroke: #000000; stroke-width: 1.5; stroke-linecap: square"/>
   </g>
   <g id="line2d_32">
    <path d="M 308.06728 182.03412 
L 334.533016 184.974244 
" clip-path="url(#pb494a9ffc9)" style="fill: none; stroke: #000000; stroke-width: 1.5; stroke-linecap: square"/>
   </g>
   <g id="line2d_33">
    <path d="M 261.525149 202.465089 
L 287.991294 205.405228 
" clip-path="url(#pb494a9ffc9)" style="fill: none; stroke: #000000; stroke-width: 1.5; stroke-linecap: square"/>
   </g>
   <g id="line2d_34">
    <path d="M 349.744978 212.265394 
L 376.210606 215.205381 
" clip-path="url(#pb494a9ffc9)" style="fill: none; stroke: #000000; stroke-width: 1.5; stroke-linecap: square"/>
   </g>
   <g id="line2d_35">
    <path d="M 80.213733 233.527028 
L 106.681212 236.467347 
" clip-path="url(#pb494a9ffc9)" style="fill: none; stroke: #000000; stroke-width: 1.5; stroke-linecap: square"/>
   </g>
   <g id="line2d_36">
    <path d="M 121.893006 263.75981 
L 148.360377 266.699992 
" clip-path="url(#pb494a9ffc9)" style="fill: none; stroke: #000000; stroke-width: 1.5; stroke-linecap: square"/>
   </g>
   <g id="line2d_37">
    <path d="M 136.491102 111.769564 
L 162.957571 114.710115 
" clip-path="url(#pb494a9ffc9)" style="fill: none; stroke: #000000; stroke-width: 1.5; stroke-linecap: square"/>
   </g>
   <g id="line2d_38">
    <path d="M 89.9468 132.199786 
L 116.413678 135.140352 
" clip-path="url(#pb494a9ffc9)" style="fill: none; stroke: #000000; stroke-width: 1.5; stroke-linecap: square"/>
   </g>
   <g id="line2d_39">
    <path d="M 163.572323 293.992484 
L 190.039587 296.932528 
" clip-path="url(#pb494a9ffc9)" style="fill: none; stroke: #000000; stroke-width: 1.5; stroke-linecap: square"/>
   </g>
   <g id="line2d_40">
    <path d="M 205.251685 324.225049 
L 231.71884 327.164955 
" clip-path="url(#pb494a9ffc9)" style="fill: none; stroke: #000000; stroke-width: 1.5; stroke-linecap: square"/>
   </g>
   <g id="line2d_41">
    <path d="M 38.534505 203.294136 
L 65.002092 206.234593 
" clip-path="url(#pb494a9ffc9)" style="fill: none; stroke: #000000; stroke-width: 1.5; stroke-linecap: square"/>
   </g>
   <g id="line2d_42">
    <path d="M 319.455107 342.030813 
L 292.988469 339.091059 
" clip-path="url(#pb494a9ffc9)" style="fill: none; stroke: #000000; stroke-width: 1.5; stroke-linecap: square"/>
   </g>
   <g id="line2d_43">
    <path d="M 365.997587 321.59811 
L 339.531358 318.658371 
" clip-path="url(#pb494a9ffc9)" style="fill: none; stroke: #000000; stroke-width: 1.5; stroke-linecap: square"/>
   </g>
   <g id="line2d_44">
    <path d="M 277.776169 311.798822 
L 251.309423 308.85893 
" clip-path="url(#pb494a9ffc9)" style="fill: none; stroke: #000000; stroke-width: 1.5; stroke-linecap: square"/>
   </g>
   <g id="line2d_45">
    <path d="M 260.420445 28.256336 
L 233.955094 25.31569 
" clip-path="url(#pb494a9ffc9)" style="fill: none; stroke: #000000; stroke-width: 1.5; stroke-linecap: square"/>
   </g>
   <g id="line2d_46">
    <path d="M 213.878967 48.68538 
L 187.413207 45.744719 
" clip-path="url(#pb494a9ffc9)" style="fill: none; stroke: #000000; stroke-width: 1.5; stroke-linecap: square"/>
   </g>
   <g id="line2d_47">
    <path d="M 250.691493 129.577809 
L 224.225541 126.63741 
" clip-path="url(#pb494a9ffc9)" style="fill: none; stroke: #000000; stroke-width: 1.5; stroke-linecap: square"/>
   </g>
   <g id="line2d_48">
    <path d="M 302.097096 58.487232 
L 275.631853 55.546723 
" clip-path="url(#pb494a9ffc9)" style="fill: none; stroke: #000000; stroke-width: 1.5; stroke-linecap: square"/>
   </g>
   <g id="line2d_49">
    <path d="M 343.77379 88.718019 
L 317.308656 85.777648 
" clip-path="url(#pb494a9ffc9)" style="fill: none; stroke: #000000; stroke-width: 1.5; stroke-linecap: square"/>
   </g>
   <g id="line2d_50">
    <path d="M 380.58745 169.609711 
L 354.122124 166.669601 
" clip-path="url(#pb494a9ffc9)" style="fill: none; stroke: #000000; stroke-width: 1.5; stroke-linecap: square"/>
   </g>
   <g id="line2d_51">
    <path d="M 422.26468 199.840522 
L 395.799462 196.900549 
" clip-path="url(#pb494a9ffc9)" style="fill: none; stroke: #000000; stroke-width: 1.5; stroke-linecap: square"/>
   </g>
   <g id="line2d_52">
    <path d="M 111.060859 190.869763 
L 84.59368 187.929321 
" clip-path="url(#pb494a9ffc9)" style="fill: none; stroke: #000000; stroke-width: 1.5; stroke-linecap: square"/>
   </g>
   <g id="line2d_53">
    <path d="M 152.73962 221.102191 
L 126.272549 218.161886 
" clip-path="url(#pb494a9ffc9)" style="fill: none; stroke: #000000; stroke-width: 1.5; stroke-linecap: square"/>
   </g>
   <g id="line2d_54">
    <path d="M 167.33653 69.114726 
L 140.870361 66.174052 
" clip-path="url(#pb494a9ffc9)" style="fill: none; stroke: #000000; stroke-width: 1.5; stroke-linecap: square"/>
   </g>
   <g id="line2d_55">
    <path d="M 120.793134 89.544376 
L 94.326557 86.603687 
" clip-path="url(#pb494a9ffc9)" style="fill: none; stroke: #000000; stroke-width: 1.5; stroke-linecap: square"/>
   </g>
   <g id="line2d_56">
    <path d="M 74.248781 109.974328 
L 47.781796 107.033625 
" clip-path="url(#pb494a9ffc9)" style="fill: none; stroke: #000000; stroke-width: 1.5; stroke-linecap: square"/>
   </g>
   <g id="line2d_57">
    <path d="M 423.583724 325.434167 
L 412.539107 301.165709 
" clip-path="url(#pb494a9ffc9)" style="fill: none; stroke: #000000; stroke-width: 1.5; stroke-linecap: square"/>
   </g>
   <g id="line2d_58">
    <path d="M 288.820549 336.067843 
L 277.776169 311.798822 
" clip-path="url(#pb494a9ffc9)" style="fill: none; stroke: #000000; stroke-width: 1.5; stroke-linecap: square"/>
   </g>
   <g id="line2d_59">
    <path d="M 271.464162 52.523616 
L 260.420445 28.256336 
" clip-path="url(#pb494a9ffc9)" style="fill: none; stroke: #000000; stroke-width: 1.5; stroke-linecap: square"/>
   </g>
   <g id="line2d_60">
    <path d="M 349.95438 163.646491 
L 338.910264 139.378791 
" clip-path="url(#pb494a9ffc9)" style="fill: none; stroke: #000000; stroke-width: 1.5; stroke-linecap: square"/>
   </g>
   <g id="line2d_61">
    <path d="M 313.140961 82.754551 
L 302.097096 58.487232 
" clip-path="url(#pb494a9ffc9)" style="fill: none; stroke: #000000; stroke-width: 1.5; stroke-linecap: square"/>
   </g>
   <g id="line2d_62">
    <path d="M 354.817802 112.985379 
L 343.77379 88.718019 
" clip-path="url(#pb494a9ffc9)" style="fill: none; stroke: #000000; stroke-width: 1.5; stroke-linecap: square"/>
   </g>
   <g id="line2d_63">
    <path d="M 428.44646 274.770788 
L 417.401946 250.502669 
" clip-path="url(#pb494a9ffc9)" style="fill: none; stroke: #000000; stroke-width: 1.5; stroke-linecap: square"/>
   </g>
   <g id="line2d_64">
    <path d="M 391.631714 193.877451 
L 380.58745 169.609711 
" clip-path="url(#pb494a9ffc9)" style="fill: none; stroke: #000000; stroke-width: 1.5; stroke-linecap: square"/>
   </g>
   <g id="line2d_65">
    <path d="M 433.309091 224.1083 
L 422.26468 199.840522 
" clip-path="url(#pb494a9ffc9)" style="fill: none; stroke: #000000; stroke-width: 1.5; stroke-linecap: square"/>
   </g>
   <g id="line2d_66">
    <path d="M 122.104647 215.138626 
L 111.060859 190.869763 
" clip-path="url(#pb494a9ffc9)" style="fill: none; stroke: #000000; stroke-width: 1.5; stroke-linecap: square"/>
   </g>
   <g id="line2d_67">
    <path d="M 220.057765 123.614243 
L 209.013989 99.346322 
" clip-path="url(#pb494a9ffc9)" style="fill: none; stroke: #000000; stroke-width: 1.5; stroke-linecap: square"/>
   </g>
   <g id="line2d_68">
    <path d="M 252.006249 255.171499 
L 240.96212 230.902857 
" clip-path="url(#pb494a9ffc9)" style="fill: none; stroke: #000000; stroke-width: 1.5; stroke-linecap: square"/>
   </g>
   <g id="line2d_69">
    <path d="M 247.141508 305.835702 
L 236.097276 281.566721 
" clip-path="url(#pb494a9ffc9)" style="fill: none; stroke: #000000; stroke-width: 1.5; stroke-linecap: square"/>
   </g>
   <g id="line2d_70">
    <path d="M 80.425783 184.906049 
L 69.382142 160.637226 
" clip-path="url(#pb494a9ffc9)" style="fill: none; stroke: #000000; stroke-width: 1.5; stroke-linecap: square"/>
   </g>
   <g id="line2d_71">
    <path d="M 386.073288 298.225984 
L 370.651784 319.554841 
" clip-path="url(#pb494a9ffc9)" style="fill: none; stroke: #000000; stroke-width: 1.5; stroke-linecap: square"/>
   </g>
   <g id="line2d_72">
    <path d="M 339.531358 318.658371 
L 324.1094 339.987514 
" clip-path="url(#pb494a9ffc9)" style="fill: none; stroke: #000000; stroke-width: 1.5; stroke-linecap: square"/>
   </g>
   <g id="line2d_73">
    <path d="M 233.955094 25.31569 
L 218.53316 46.642447 
" clip-path="url(#pb494a9ffc9)" style="fill: none; stroke: #000000; stroke-width: 1.5; stroke-linecap: square"/>
   </g>
   <g id="line2d_74">
    <path d="M 187.413207 45.744719 
L 171.990819 67.071763 
" clip-path="url(#pb494a9ffc9)" style="fill: none; stroke: #000000; stroke-width: 1.5; stroke-linecap: square"/>
   </g>
   <g id="line2d_75">
    <path d="M 270.767578 106.207377 
L 255.345701 127.534776 
" clip-path="url(#pb494a9ffc9)" style="fill: none; stroke: #000000; stroke-width: 1.5; stroke-linecap: square"/>
   </g>
   <g id="line2d_76">
    <path d="M 390.936428 247.56282 
L 375.515122 268.891214 
" clip-path="url(#pb494a9ffc9)" style="fill: none; stroke: #000000; stroke-width: 1.5; stroke-linecap: square"/>
   </g>
   <g id="line2d_77">
    <path d="M 177.682546 147.067744 
L 162.259762 168.395716 
" clip-path="url(#pb494a9ffc9)" style="fill: none; stroke: #000000; stroke-width: 1.5; stroke-linecap: square"/>
   </g>
   <g id="line2d_78">
    <path d="M 140.870361 66.174052 
L 125.447519 87.501382 
" clip-path="url(#pb494a9ffc9)" style="fill: none; stroke: #000000; stroke-width: 1.5; stroke-linecap: square"/>
   </g>
   <g id="line2d_79">
    <path d="M 94.326557 86.603687 
L 78.903262 107.931304 
" clip-path="url(#pb494a9ffc9)" style="fill: none; stroke: #000000; stroke-width: 1.5; stroke-linecap: square"/>
   </g>
   <g id="line2d_80">
    <path d="M 172.817057 197.730597 
L 157.394075 219.059032 
" clip-path="url(#pb494a9ffc9)" style="fill: none; stroke: #000000; stroke-width: 1.5; stroke-linecap: square"/>
   </g>
   <g id="line2d_81">
    <path d="M 42.914856 157.696647 
L 27.490909 179.025013 
" clip-path="url(#pb494a9ffc9)" style="fill: none; stroke: #000000; stroke-width: 1.5; stroke-linecap: square"/>
   </g>
   <g id="line2d_82">
    <path d="M 47.781796 107.033625 
L 32.358047 128.361528 
" clip-path="url(#pb494a9ffc9)" style="fill: none; stroke: #000000; stroke-width: 1.5; stroke-linecap: square"/>
   </g>
   <g id="patch_2">
    <path d="M 415.564676 336.525265 
Q 415.8731 336.098685 415.198918 337.031142 
" style="fill: none; opacity: 0.4; stroke: #000000; stroke-width: 1.5; stroke-linecap: round"/>
    <path d="M 406.477235 341.584409 
L 415.198918 337.031142 
L 413.608523 346.740449 
" style="fill: none; opacity: 0.4; stroke: #000000; stroke-width: 1.5; stroke-linecap: round"/>
   </g>
   <g id="patch_3">
    <path d="M 322.480114 377.391269 
Q 322.788557 376.964677 322.114373 377.897107 
" style="fill: none; opacity: 0.4; stroke: #000000; stroke-width: 1.5; stroke-linecap: round"/>
    <path d="M 313.39262 382.450242 
L 322.114373 377.897107 
L 320.523829 387.60639 
" style="fill: none; opacity: 0.4; stroke: #000000; stroke-width: 1.5; stroke-linecap: round"/>
   </g>
   <g id="patch_4">
    <path d="M 369.022874 356.958116 
Q 369.331309 356.53153 368.657125 357.463973 
" style="fill: none; opacity: 0.4; stroke: #000000; stroke-width: 1.5; stroke-linecap: round"/>
    <path d="M 359.935408 362.017175 
L 368.657125 357.463973 
L 367.066656 367.173268 
" style="fill: none; opacity: 0.4; stroke: #000000; stroke-width: 1.5; stroke-linecap: round"/>
   </g>
   <g id="patch_5">
    <path d="M 216.90313 84.043115 
Q 217.211573 83.616571 216.537317 84.548998 
" style="fill: none; opacity: 0.4; stroke: #000000; stroke-width: 1.5; stroke-linecap: round"/>
    <path d="M 207.815326 89.101675 
L 216.537317 84.548998 
L 214.946264 94.258197 
" style="fill: none; opacity: 0.4; stroke: #000000; stroke-width: 1.5; stroke-linecap: round"/>
   </g>
   <g id="patch_6">
    <path d="M 295.393767 195.167769 
Q 295.702203 194.741208 295.027979 195.673646 
" style="fill: none; opacity: 0.4; stroke: #000000; stroke-width: 1.5; stroke-linecap: round"/>
    <path d="M 286.306115 200.226567 
L 295.027979 195.673646 
L 293.437197 205.38289 
" style="fill: none; opacity: 0.4; stroke: #000000; stroke-width: 1.5; stroke-linecap: round"/>
   </g>
   <g id="patch_7">
    <path d="M 346.798796 124.075569 
Q 347.107219 123.649023 346.432986 124.58148 
" style="fill: none; opacity: 0.4; stroke: #000000; stroke-width: 1.5; stroke-linecap: round"/>
    <path d="M 337.711138 129.13443 
L 346.432986 124.58148 
L 344.842237 134.290729 
" style="fill: none; opacity: 0.4; stroke: #000000; stroke-width: 1.5; stroke-linecap: round"/>
   </g>
   <g id="patch_8">
    <path d="M 420.427514 285.861644 
Q 420.735935 285.435073 420.061744 286.367535 
" style="fill: none; opacity: 0.4; stroke: #000000; stroke-width: 1.5; stroke-linecap: round"/>
    <path d="M 411.340041 290.920766 
L 420.061744 286.367535 
L 418.471307 296.076835 
" style="fill: none; opacity: 0.4; stroke: #000000; stroke-width: 1.5; stroke-linecap: round"/>
   </g>
   <g id="patch_9">
    <path d="M 425.290248 235.198916 
Q 425.598665 234.772354 424.924464 235.704821 
" style="fill: none; opacity: 0.4; stroke: #000000; stroke-width: 1.5; stroke-linecap: round"/>
    <path d="M 416.202742 240.258015 
L 424.924464 235.704821 
L 423.333986 245.414115 
" style="fill: none; opacity: 0.4; stroke: #000000; stroke-width: 1.5; stroke-linecap: round"/>
   </g>
   <g id="patch_10">
    <path d="M 123.816737 124.903011 
Q 124.125197 124.476455 123.450939 125.408855 
" style="fill: none; opacity: 0.4; stroke: #000000; stroke-width: 1.5; stroke-linecap: round"/>
    <path d="M 114.728879 129.9614 
L 123.450939 125.408855 
L 121.859739 135.11803 
" style="fill: none; opacity: 0.4; stroke: #000000; stroke-width: 1.5; stroke-linecap: round"/>
   </g>
   <g id="patch_11">
    <path d="M 243.986565 266.262469 
Q 244.295015 265.835893 243.620798 266.768313 
" style="fill: none; opacity: 0.4; stroke: #000000; stroke-width: 1.5; stroke-linecap: round"/>
    <path d="M 234.898919 271.321205 
L 243.620798 266.768313 
L 242.029984 276.477551 
" style="fill: none; opacity: 0.4; stroke: #000000; stroke-width: 1.5; stroke-linecap: round"/>
   </g>
   <g id="patch_12">
    <path d="M 248.851304 215.598917 
Q 249.15975 215.172351 248.485524 216.104775 
" style="fill: none; opacity: 0.4; stroke: #000000; stroke-width: 1.5; stroke-linecap: round"/>
    <path d="M 239.763625 220.65763 
L 248.485524 216.104775 
L 246.894669 225.814007 
" style="fill: none; opacity: 0.4; stroke: #000000; stroke-width: 1.5; stroke-linecap: round"/>
   </g>
   <g id="patch_13">
    <path d="M 77.272103 145.333412 
Q 77.580572 144.90685 76.906312 145.839237 
" style="fill: none; opacity: 0.4; stroke: #000000; stroke-width: 1.5; stroke-linecap: round"/>
    <path d="M 68.184218 150.391717 
L 76.906312 145.839237 
L 75.315039 155.548401 
" style="fill: none; opacity: 0.4; stroke: #000000; stroke-width: 1.5; stroke-linecap: round"/>
   </g>
   <g id="patch_14">
    <path d="M 282.867409 372.069782 
Q 283.088299 372.55517 282.614545 371.514133 
" style="fill: none; opacity: 0.4; stroke: #000000; stroke-width: 1.5; stroke-linecap: round"/>
    <path d="M 282.974342 361.682015 
L 282.614545 371.514133 
L 274.964729 365.327024 
" style="fill: none; opacity: 0.4; stroke: #000000; stroke-width: 1.5; stroke-linecap: round"/>
   </g>
   <g id="patch_15">
    <path d="M 241.188036 341.837457 
Q 241.408923 342.322844 240.935173 341.281803 
" style="fill: none; opacity: 0.4; stroke: #000000; stroke-width: 1.5; stroke-linecap: round"/>
    <path d="M 241.295014 331.449686 
L 240.935173 341.281803 
L 233.285384 335.09466 
" style="fill: none; opacity: 0.4; stroke: #000000; stroke-width: 1.5; stroke-linecap: round"/>
   </g>
   <g id="patch_16">
    <path d="M 265.511208 88.522115 
Q 265.732085 89.007468 265.258311 87.966399 
" style="fill: none; opacity: 0.4; stroke: #000000; stroke-width: 1.5; stroke-linecap: round"/>
    <path d="M 265.618065 78.13428 
L 265.258311 87.966399 
L 257.608467 81.779324 
" style="fill: none; opacity: 0.4; stroke: #000000; stroke-width: 1.5; stroke-linecap: round"/>
   </g>
   <g id="patch_17">
    <path d="M 380.816467 280.540055 
Q 381.037357 281.025424 380.563581 279.984378 
" style="fill: none; opacity: 0.4; stroke: #000000; stroke-width: 1.5; stroke-linecap: round"/>
    <path d="M 380.923239 270.152255 
L 380.563581 279.984378 
L 372.913677 273.797377 
" style="fill: none; opacity: 0.4; stroke: #000000; stroke-width: 1.5; stroke-linecap: round"/>
   </g>
   <g id="patch_18">
    <path d="M 344.001985 199.646013 
Q 344.222869 200.131374 343.749092 199.090319 
" style="fill: none; opacity: 0.4; stroke: #000000; stroke-width: 1.5; stroke-linecap: round"/>
    <path d="M 344.108777 189.258197 
L 343.749092 199.090319 
L 336.099205 192.903298 
" style="fill: none; opacity: 0.4; stroke: #000000; stroke-width: 1.5; stroke-linecap: round"/>
   </g>
   <g id="patch_19">
    <path d="M 385.67965 229.877158 
Q 385.900538 230.362519 385.426757 229.321468 
" style="fill: none; opacity: 0.4; stroke: #000000; stroke-width: 1.5; stroke-linecap: round"/>
    <path d="M 385.786398 219.489344 
L 385.426757 229.321468 
L 377.776842 223.134481 
" style="fill: none; opacity: 0.4; stroke: #000000; stroke-width: 1.5; stroke-linecap: round"/>
   </g>
   <g id="patch_20">
    <path d="M 74.470986 220.907063 
Q 74.691861 221.392446 74.218126 220.35139 
" style="fill: none; opacity: 0.4; stroke: #000000; stroke-width: 1.5; stroke-linecap: round"/>
    <path d="M 74.578142 210.51928 
L 74.218126 220.35139 
L 66.568447 214.164111 
" style="fill: none; opacity: 0.4; stroke: #000000; stroke-width: 1.5; stroke-linecap: round"/>
   </g>
   <g id="patch_21">
    <path d="M 116.150182 251.139825 
Q 116.37106 251.625209 115.897321 250.584157 
" style="fill: none; opacity: 0.4; stroke: #000000; stroke-width: 1.5; stroke-linecap: round"/>
    <path d="M 116.257293 240.752045 
L 115.897321 250.584157 
L 108.247615 244.396912 
" style="fill: none; opacity: 0.4; stroke: #000000; stroke-width: 1.5; stroke-linecap: round"/>
   </g>
   <g id="patch_22">
    <path d="M 167.560802 180.044625 
Q 167.781679 180.529997 167.307926 179.488937 
" style="fill: none; opacity: 0.4; stroke: #000000; stroke-width: 1.5; stroke-linecap: round"/>
    <path d="M 167.66782 169.656823 
L 167.307926 179.488937 
L 159.658171 173.301754 
" style="fill: none; opacity: 0.4; stroke: #000000; stroke-width: 1.5; stroke-linecap: round"/>
   </g>
   <g id="patch_23">
    <path d="M 172.426334 129.382039 
Q 172.647208 129.867403 172.173451 128.826338 
" style="fill: none; opacity: 0.4; stroke: #000000; stroke-width: 1.5; stroke-linecap: round"/>
    <path d="M 172.533327 118.994223 
L 172.173451 128.826338 
L 164.523685 122.639168 
" style="fill: none; opacity: 0.4; stroke: #000000; stroke-width: 1.5; stroke-linecap: round"/>
   </g>
   <g id="patch_24">
    <path d="M 157.829422 281.372478 
Q 158.050303 281.857863 157.57656 280.816815 
" style="fill: none; opacity: 0.4; stroke: #000000; stroke-width: 1.5; stroke-linecap: round"/>
    <path d="M 157.936489 270.984701 
L 157.57656 280.816815 
L 149.926827 274.629604 
" style="fill: none; opacity: 0.4; stroke: #000000; stroke-width: 1.5; stroke-linecap: round"/>
   </g>
   <g id="patch_25">
    <path d="M 199.508707 311.605022 
Q 199.729591 312.090408 199.255844 311.049363 
" style="fill: none; opacity: 0.4; stroke: #000000; stroke-width: 1.5; stroke-linecap: round"/>
    <path d="M 199.615729 301.217249 
L 199.255844 311.049363 
L 191.606083 304.862187 
" style="fill: none; opacity: 0.4; stroke: #000000; stroke-width: 1.5; stroke-linecap: round"/>
   </g>
   <g id="patch_26">
    <path d="M 32.791835 190.674192 
Q 33.012707 191.159575 32.538976 190.118515 
" style="fill: none; opacity: 0.4; stroke: #000000; stroke-width: 1.5; stroke-linecap: round"/>
    <path d="M 32.899035 180.286406 
L 32.538976 190.118515 
L 24.889324 183.931202 
" style="fill: none; opacity: 0.4; stroke: #000000; stroke-width: 1.5; stroke-linecap: round"/>
   </g>
   <g id="patch_27">
    <path d="M 37.658923 140.010544 
Q 37.879793 140.495919 37.406057 139.454854 
" style="fill: none; opacity: 0.4; stroke: #000000; stroke-width: 1.5; stroke-linecap: round"/>
    <path d="M 37.766099 129.622745 
L 37.406057 139.454854 
L 29.756395 133.267555 
" style="fill: none; opacity: 0.4; stroke: #000000; stroke-width: 1.5; stroke-linecap: round"/>
   </g>
   <g id="patch_28">
    <path d="M 394.400094 345.234609 
Q 394.929417 345.293401 393.791938 345.167061 
" style="fill: none; opacity: 0.4; stroke: #000000; stroke-width: 1.5; stroke-linecap: round"/>
    <path d="M 385.531445 339.822508 
L 393.791938 345.167061 
L 384.559999 348.568724 
" style="fill: none; opacity: 0.4; stroke: #000000; stroke-width: 1.5; stroke-linecap: round"/>
   </g>
   <g id="patch_29">
    <path d="M 301.314671 386.100872 
Q 301.84401 386.159665 300.706547 386.033329 
" style="fill: none; opacity: 0.4; stroke: #000000; stroke-width: 1.5; stroke-linecap: round"/>
    <path d="M 292.446041 380.688795 
L 300.706547 386.033329 
L 291.474616 389.435013 
" style="fill: none; opacity: 0.4; stroke: #000000; stroke-width: 1.5; stroke-linecap: round"/>
   </g>
   <g id="patch_30">
    <path d="M 347.857862 365.66759 
Q 348.387193 365.726382 347.249722 365.600044 
" style="fill: none; opacity: 0.4; stroke: #000000; stroke-width: 1.5; stroke-linecap: round"/>
    <path d="M 338.989223 360.2555 
L 347.249722 365.600044 
L 338.017788 369.001718 
" style="fill: none; opacity: 0.4; stroke: #000000; stroke-width: 1.5; stroke-linecap: round"/>
   </g>
   <g id="patch_31">
    <path d="M 259.635273 355.868593 
Q 260.164614 355.927388 259.027155 355.801048 
" style="fill: none; opacity: 0.4; stroke: #000000; stroke-width: 1.5; stroke-linecap: round"/>
    <path d="M 250.766674 350.456475 
L 259.027155 355.801048 
L 249.795208 359.202688 
" style="fill: none; opacity: 0.4; stroke: #000000; stroke-width: 1.5; stroke-linecap: round"/>
   </g>
   <g id="patch_32">
    <path d="M 242.280345 72.321478 
Q 242.809658 72.380289 241.672177 72.253906 
" style="fill: none; opacity: 0.4; stroke: #000000; stroke-width: 1.5; stroke-linecap: round"/>
    <path d="M 233.411878 66.909053 
L 241.672177 72.253906 
L 232.440115 75.655234 
" style="fill: none; opacity: 0.4; stroke: #000000; stroke-width: 1.5; stroke-linecap: round"/>
   </g>
   <g id="patch_33">
    <path d="M 320.770833 183.44538 
Q 321.300148 183.504182 320.162665 183.377817 
" style="fill: none; opacity: 0.4; stroke: #000000; stroke-width: 1.5; stroke-linecap: round"/>
    <path d="M 311.902285 178.03309 
L 320.162665 183.377817 
L 310.930655 186.779285 
" style="fill: none; opacity: 0.4; stroke: #000000; stroke-width: 1.5; stroke-linecap: round"/>
   </g>
   <g id="patch_34">
    <path d="M 274.228899 203.876356 
Q 274.758222 203.935158 273.620747 203.808796 
" style="fill: none; opacity: 0.4; stroke: #000000; stroke-width: 1.5; stroke-linecap: round"/>
    <path d="M 265.36036 198.464078 
L 273.620747 203.808796 
L 264.388741 207.210274 
" style="fill: none; opacity: 0.4; stroke: #000000; stroke-width: 1.5; stroke-linecap: round"/>
   </g>
   <g id="patch_35">
    <path d="M 362.44848 213.676588 
Q 362.977792 213.735387 361.840307 213.609028 
" style="fill: none; opacity: 0.4; stroke: #000000; stroke-width: 1.5; stroke-linecap: round"/>
    <path d="M 353.579901 208.264339 
L 361.840307 213.609028 
L 352.608312 217.010539 
" style="fill: none; opacity: 0.4; stroke: #000000; stroke-width: 1.5; stroke-linecap: round"/>
   </g>
   <g id="patch_36">
    <path d="M 92.918123 234.938381 
Q 93.447473 234.997187 92.310025 234.870826 
" style="fill: none; opacity: 0.4; stroke: #000000; stroke-width: 1.5; stroke-linecap: round"/>
    <path d="M 84.049645 229.526098 
L 92.310025 234.870826 
L 83.078014 238.272293 
" style="fill: none; opacity: 0.4; stroke: #000000; stroke-width: 1.5; stroke-linecap: round"/>
   </g>
   <g id="patch_37">
    <path d="M 134.597344 265.171097 
Q 135.126691 265.229901 133.989241 265.103545 
" style="fill: none; opacity: 0.4; stroke: #000000; stroke-width: 1.5; stroke-linecap: round"/>
    <path d="M 125.728836 259.758856 
L 133.989241 265.103545 
L 124.757246 268.505056 
" style="fill: none; opacity: 0.4; stroke: #000000; stroke-width: 1.5; stroke-linecap: round"/>
   </g>
   <g id="patch_38">
    <path d="M 149.195007 113.181029 
Q 149.724337 113.23984 148.586871 113.113462 
" style="fill: none; opacity: 0.4; stroke: #000000; stroke-width: 1.5; stroke-linecap: round"/>
    <path d="M 140.32656 107.768628 
L 148.586871 113.113462 
L 139.354817 116.514811 
" style="fill: none; opacity: 0.4; stroke: #000000; stroke-width: 1.5; stroke-linecap: round"/>
   </g>
   <g id="patch_39">
    <path d="M 102.650901 133.611258 
Q 103.180239 133.670069 102.042781 133.543693 
" style="fill: none; opacity: 0.4; stroke: #000000; stroke-width: 1.5; stroke-linecap: round"/>
    <path d="M 93.782463 128.198869 
L 102.042781 133.543693 
L 92.810731 136.945053 
" style="fill: none; opacity: 0.4; stroke: #000000; stroke-width: 1.5; stroke-linecap: round"/>
   </g>
   <g id="patch_40">
    <path d="M 176.27661 295.403705 
Q 176.805955 295.462506 175.668501 295.336155 
" style="fill: none; opacity: 0.4; stroke: #000000; stroke-width: 1.5; stroke-linecap: round"/>
    <path d="M 167.408071 289.991505 
L 175.668501 295.336155 
L 166.436522 298.737709 
" style="fill: none; opacity: 0.4; stroke: #000000; stroke-width: 1.5; stroke-linecap: round"/>
   </g>
   <g id="patch_41">
    <path d="M 217.955919 325.636204 
Q 218.485263 325.695002 217.347806 325.568656 
" style="fill: none; opacity: 0.4; stroke: #000000; stroke-width: 1.5; stroke-linecap: round"/>
    <path d="M 209.08735 320.224044 
L 217.347806 325.568656 
L 208.115843 328.970253 
" style="fill: none; opacity: 0.4; stroke: #000000; stroke-width: 1.5; stroke-linecap: round"/>
   </g>
   <g id="patch_42">
    <path d="M 51.238947 204.705556 
Q 51.768298 204.764365 50.630854 204.637999 
" style="fill: none; opacity: 0.4; stroke: #000000; stroke-width: 1.5; stroke-linecap: round"/>
    <path d="M 42.370498 199.293232 
L 50.630854 204.637999 
L 41.398827 208.039423 
" style="fill: none; opacity: 0.4; stroke: #000000; stroke-width: 1.5; stroke-linecap: round"/>
   </g>
   <g id="patch_43">
    <path d="M 306.751121 340.619731 
Q 306.221788 340.560936 307.359256 340.687279 
" style="fill: none; opacity: 0.4; stroke: #000000; stroke-width: 1.5; stroke-linecap: round"/>
    <path d="M 315.61973 346.031862 
L 307.359256 340.687279 
L 316.591206 337.285649 
" style="fill: none; opacity: 0.4; stroke: #000000; stroke-width: 1.5; stroke-linecap: round"/>
   </g>
   <g id="patch_44">
    <path d="M 353.293797 320.187035 
Q 352.764472 320.12824 353.901948 320.254585 
" style="fill: none; opacity: 0.4; stroke: #000000; stroke-width: 1.5; stroke-linecap: round"/>
    <path d="M 362.162416 325.599178 
L 353.901948 320.254585 
L 363.133903 316.852966 
" style="fill: none; opacity: 0.4; stroke: #000000; stroke-width: 1.5; stroke-linecap: round"/>
   </g>
   <g id="patch_45">
    <path d="M 265.072131 310.387674 
Q 264.542796 310.328876 265.680261 310.455224 
" style="fill: none; opacity: 0.4; stroke: #000000; stroke-width: 1.5; stroke-linecap: round"/>
    <path d="M 273.94071 315.799845 
L 265.680261 310.455224 
L 274.912227 307.053637 
" style="fill: none; opacity: 0.4; stroke: #000000; stroke-width: 1.5; stroke-linecap: round"/>
   </g>
   <g id="patch_46">
    <path d="M 247.717077 26.844826 
Q 247.18777 26.786013 248.325256 26.912402 
" style="fill: none; opacity: 0.4; stroke: #000000; stroke-width: 1.5; stroke-linecap: round"/>
    <path d="M 256.585524 32.257304 
L 248.325256 26.912402 
L 257.557338 23.511129 
" style="fill: none; opacity: 0.4; stroke: #000000; stroke-width: 1.5; stroke-linecap: round"/>
   </g>
   <g id="patch_47">
    <path d="M 201.175402 47.273863 
Q 200.646087 47.21505 201.783565 47.341437 
" style="fill: none; opacity: 0.4; stroke: #000000; stroke-width: 1.5; stroke-linecap: round"/>
    <path d="M 210.043839 52.686329 
L 201.783565 47.341437 
L 211.015643 43.940153 
" style="fill: none; opacity: 0.4; stroke: #000000; stroke-width: 1.5; stroke-linecap: round"/>
   </g>
   <g id="patch_48">
    <path d="M 237.987836 128.166417 
Q 237.458517 128.107609 238.595994 128.233984 
" style="fill: none; opacity: 0.4; stroke: #000000; stroke-width: 1.5; stroke-linecap: round"/>
    <path d="M 246.856324 133.578789 
L 238.595994 128.233984 
L 247.828036 124.832603 
" style="fill: none; opacity: 0.4; stroke: #000000; stroke-width: 1.5; stroke-linecap: round"/>
   </g>
   <g id="patch_49">
    <path d="M 289.393779 57.075787 
Q 288.864474 57.016977 290.001964 57.143362 
" style="fill: none; opacity: 0.4; stroke: #000000; stroke-width: 1.5; stroke-linecap: round"/>
    <path d="M 298.262257 62.488225 
L 290.001964 57.143362 
L 299.23403 53.742045 
" style="fill: none; opacity: 0.4; stroke: #000000; stroke-width: 1.5; stroke-linecap: round"/>
   </g>
   <g id="patch_50">
    <path d="M 331.070525 87.306641 
Q 330.541223 87.247834 331.678715 87.374213 
" style="fill: none; opacity: 0.4; stroke: #000000; stroke-width: 1.5; stroke-linecap: round"/>
    <path d="M 339.939033 92.719038 
L 331.678715 87.374213 
L 340.910765 83.972853 
" style="fill: none; opacity: 0.4; stroke: #000000; stroke-width: 1.5; stroke-linecap: round"/>
   </g>
   <g id="patch_51">
    <path d="M 367.884094 168.198458 
Q 367.354787 168.139656 368.492278 168.266023 
" style="fill: none; opacity: 0.4; stroke: #000000; stroke-width: 1.5; stroke-linecap: round"/>
    <path d="M 376.752652 173.610761 
L 368.492278 168.266023 
L 377.724292 164.864566 
" style="fill: none; opacity: 0.4; stroke: #000000; stroke-width: 1.5; stroke-linecap: round"/>
   </g>
   <g id="patch_52">
    <path d="M 409.561375 198.429335 
Q 409.032071 198.370536 410.169565 198.496898 
" style="fill: none; opacity: 0.4; stroke: #000000; stroke-width: 1.5; stroke-linecap: round"/>
    <path d="M 418.429964 203.841596 
L 410.169565 198.496898 
L 419.401563 195.095397 
" style="fill: none; opacity: 0.4; stroke: #000000; stroke-width: 1.5; stroke-linecap: round"/>
   </g>
   <g id="patch_53">
    <path d="M 98.356613 189.458351 
Q 97.827269 189.399542 98.964722 189.52591 
" style="fill: none; opacity: 0.4; stroke: #000000; stroke-width: 1.5; stroke-linecap: round"/>
    <path d="M 107.225071 194.870686 
L 98.964722 189.52591 
L 108.196752 186.124497 
" style="fill: none; opacity: 0.4; stroke: #000000; stroke-width: 1.5; stroke-linecap: round"/>
   </g>
   <g id="patch_54">
    <path d="M 140.035426 219.690845 
Q 139.506085 219.632039 140.64354 219.758402 
" style="fill: none; opacity: 0.4; stroke: #000000; stroke-width: 1.5; stroke-linecap: round"/>
    <path d="M 148.903914 225.103139 
L 140.64354 219.758402 
L 149.875555 216.356945 
" style="fill: none; opacity: 0.4; stroke: #000000; stroke-width: 1.5; stroke-linecap: round"/>
   </g>
   <g id="patch_55">
    <path d="M 154.632769 67.703203 
Q 154.103445 67.644389 155.240916 67.770774 
" style="fill: none; opacity: 0.4; stroke: #000000; stroke-width: 1.5; stroke-linecap: round"/>
    <path d="M 163.501196 73.115657 
L 155.240916 67.770774 
L 164.47299 64.36948 
" style="fill: none; opacity: 0.4; stroke: #000000; stroke-width: 1.5; stroke-linecap: round"/>
   </g>
   <g id="patch_56">
    <path d="M 108.089177 88.132845 
Q 107.559846 88.074032 108.697308 88.200415 
" style="fill: none; opacity: 0.4; stroke: #000000; stroke-width: 1.5; stroke-linecap: round"/>
    <path d="M 116.957595 93.545287 
L 108.697308 88.200415 
L 117.929378 84.799109 
" style="fill: none; opacity: 0.4; stroke: #000000; stroke-width: 1.5; stroke-linecap: round"/>
   </g>
   <g id="patch_57">
    <path d="M 61.544628 108.56279 
Q 61.015288 108.503976 62.152743 108.630357 
" style="fill: none; opacity: 0.4; stroke: #000000; stroke-width: 1.5; stroke-linecap: round"/>
    <path d="M 70.413036 113.97522 
L 62.152743 108.630357 
L 71.384809 105.229041 
" style="fill: none; opacity: 0.4; stroke: #000000; stroke-width: 1.5; stroke-linecap: round"/>
   </g>
   <g id="patch_58">
    <path d="M 418.282308 313.785307 
Q 418.061416 313.299938 418.535195 314.34098 
" style="fill: none; opacity: 0.4; stroke: #000000; stroke-width: 1.5; stroke-linecap: round"/>
    <path d="M 418.175581 324.173105 
L 418.535195 314.34098 
L 426.185126 320.527947 
" style="fill: none; opacity: 0.4; stroke: #000000; stroke-width: 1.5; stroke-linecap: round"/>
   </g>
   <g id="patch_59">
    <path d="M 283.519247 324.418713 
Q 283.298359 323.933332 283.772118 324.974374 
" style="fill: none; opacity: 0.4; stroke: #000000; stroke-width: 1.5; stroke-linecap: round"/>
    <path d="M 283.412338 334.806493 
L 283.772118 324.974374 
L 291.421945 331.16147 
" style="fill: none; opacity: 0.4; stroke: #000000; stroke-width: 1.5; stroke-linecap: round"/>
   </g>
   <g id="patch_60">
    <path d="M 266.163178 40.875321 
Q 265.942304 40.389976 266.416083 41.43105 
" style="fill: none; opacity: 0.4; stroke: #000000; stroke-width: 1.5; stroke-linecap: round"/>
    <path d="M 266.056346 51.26317 
L 266.416083 41.43105 
L 274.065937 47.618111 
" style="fill: none; opacity: 0.4; stroke: #000000; stroke-width: 1.5; stroke-linecap: round"/>
   </g>
   <g id="patch_61">
    <path d="M 344.653204 151.997995 
Q 344.432322 151.512641 344.906104 152.553702 
" style="fill: none; opacity: 0.4; stroke: #000000; stroke-width: 1.5; stroke-linecap: round"/>
    <path d="M 344.546436 162.385825 
L 344.906104 152.553702 
L 352.556001 158.74071 
" style="fill: none; opacity: 0.4; stroke: #000000; stroke-width: 1.5; stroke-linecap: round"/>
   </g>
   <g id="patch_62">
    <path d="M 307.839905 71.106238 
Q 307.619028 70.620892 308.092811 71.661962 
" style="fill: none; opacity: 0.4; stroke: #000000; stroke-width: 1.5; stroke-linecap: round"/>
    <path d="M 307.733118 81.494084 
L 308.092811 71.661962 
L 315.742692 77.84899 
" style="fill: none; opacity: 0.4; stroke: #000000; stroke-width: 1.5; stroke-linecap: round"/>
   </g>
   <g id="patch_63">
    <path d="M 349.516676 101.337046 
Q 349.295796 100.851699 349.769583 101.892765 
" style="fill: none; opacity: 0.4; stroke: #000000; stroke-width: 1.5; stroke-linecap: round"/>
    <path d="M 349.409933 111.724889 
L 349.769583 101.892765 
L 357.419492 108.079759 
" style="fill: none; opacity: 0.4; stroke: #000000; stroke-width: 1.5; stroke-linecap: round"/>
   </g>
   <g id="patch_64">
    <path d="M 423.145093 263.122091 
Q 422.924203 262.636728 423.397988 263.677776 
" style="fill: none; opacity: 0.4; stroke: #000000; stroke-width: 1.5; stroke-linecap: round"/>
    <path d="M 423.03839 273.509901 
L 423.397988 263.677776 
L 431.04793 269.864729 
" style="fill: none; opacity: 0.4; stroke: #000000; stroke-width: 1.5; stroke-linecap: round"/>
   </g>
   <g id="patch_65">
    <path d="M 386.330467 182.228936 
Q 386.109582 181.743581 386.583368 182.784638 
" style="fill: none; opacity: 0.4; stroke: #000000; stroke-width: 1.5; stroke-linecap: round"/>
    <path d="M 386.223744 192.616762 
L 386.583368 182.784638 
L 394.233293 188.971611 
" style="fill: none; opacity: 0.4; stroke: #000000; stroke-width: 1.5; stroke-linecap: round"/>
   </g>
   <g id="patch_66">
    <path d="M 428.007774 212.459767 
Q 427.786885 211.974411 428.260675 213.015464 
" style="fill: none; opacity: 0.4; stroke: #000000; stroke-width: 1.5; stroke-linecap: round"/>
    <path d="M 427.901095 222.84759 
L 428.260675 213.015464 
L 435.910628 219.202404 
" style="fill: none; opacity: 0.4; stroke: #000000; stroke-width: 1.5; stroke-linecap: round"/>
   </g>
   <g id="patch_67">
    <path d="M 116.803629 203.489572 
Q 116.582753 203.004194 117.056497 204.045252 
" style="fill: none; opacity: 0.4; stroke: #000000; stroke-width: 1.5; stroke-linecap: round"/>
    <path d="M 116.696542 213.877364 
L 117.056497 204.045252 
L 124.706214 210.232483 
" style="fill: none; opacity: 0.4; stroke: #000000; stroke-width: 1.5; stroke-linecap: round"/>
   </g>
   <g id="patch_68">
    <path d="M 214.756753 111.965641 
Q 214.535877 111.480283 215.009643 112.521349 
" style="fill: none; opacity: 0.4; stroke: #000000; stroke-width: 1.5; stroke-linecap: round"/>
    <path d="M 214.649827 122.353467 
L 215.009643 112.521349 
L 222.659448 118.708472 
" style="fill: none; opacity: 0.4; stroke: #000000; stroke-width: 1.5; stroke-linecap: round"/>
   </g>
   <g id="patch_69">
    <path d="M 246.705067 243.522551 
Q 246.484185 243.037178 246.957945 244.078229 
" style="fill: none; opacity: 0.4; stroke: #000000; stroke-width: 1.5; stroke-linecap: round"/>
    <path d="M 246.598138 253.910347 
L 246.957945 244.078229 
L 254.607755 250.265345 
" style="fill: none; opacity: 0.4; stroke: #000000; stroke-width: 1.5; stroke-linecap: round"/>
   </g>
   <g id="patch_70">
    <path d="M 241.840276 294.186591 
Q 241.619392 293.701211 242.093147 294.742258 
" style="fill: none; opacity: 0.4; stroke: #000000; stroke-width: 1.5; stroke-linecap: round"/>
    <path d="M 241.733323 304.574375 
L 242.093147 294.742258 
L 249.742946 300.929387 
" style="fill: none; opacity: 0.4; stroke: #000000; stroke-width: 1.5; stroke-linecap: round"/>
   </g>
   <g id="patch_71">
    <path d="M 75.124835 173.257014 
Q 74.903962 172.771638 75.377702 173.812699 
" style="fill: none; opacity: 0.4; stroke: #000000; stroke-width: 1.5; stroke-linecap: round"/>
    <path d="M 75.017704 183.64481 
L 75.377702 173.812699 
L 83.027392 179.999964 
" style="fill: none; opacity: 0.4; stroke: #000000; stroke-width: 1.5; stroke-linecap: round"/>
   </g>
   <g id="patch_72">
    <path d="M 378.670966 308.463835 
Q 378.362536 308.890412 379.036729 307.957964 
" style="fill: none; opacity: 0.4; stroke: #000000; stroke-width: 1.5; stroke-linecap: round"/>
    <path d="M 387.758466 303.404799 
L 379.036729 307.957964 
L 380.62724 298.248675 
" style="fill: none; opacity: 0.4; stroke: #000000; stroke-width: 1.5; stroke-linecap: round"/>
   </g>
   <g id="patch_73">
    <path d="M 332.128818 328.89636 
Q 331.820379 329.322942 332.494573 328.390507 
" style="fill: none; opacity: 0.4; stroke: #000000; stroke-width: 1.5; stroke-linecap: round"/>
    <path d="M 341.216345 323.837409 
L 332.494573 328.390507 
L 334.085158 318.681231 
" style="fill: none; opacity: 0.4; stroke: #000000; stroke-width: 1.5; stroke-linecap: round"/>
   </g>
   <g id="patch_74">
    <path d="M 226.552566 35.552533 
Q 226.244127 35.979068 226.918393 35.046636 
" style="fill: none; opacity: 0.4; stroke: #000000; stroke-width: 1.5; stroke-linecap: round"/>
    <path d="M 235.640403 30.493995 
L 226.918393 35.046636 
L 228.509487 25.337443 
" style="fill: none; opacity: 0.4; stroke: #000000; stroke-width: 1.5; stroke-linecap: round"/>
   </g>
   <g id="patch_75">
    <path d="M 180.010461 55.9817 
Q 179.702013 56.408241 180.37628 55.475822 
" style="fill: none; opacity: 0.4; stroke: #000000; stroke-width: 1.5; stroke-linecap: round"/>
    <path d="M 189.098325 50.923248 
L 180.37628 55.475822 
L 181.967447 45.766642 
" style="fill: none; opacity: 0.4; stroke: #000000; stroke-width: 1.5; stroke-linecap: round"/>
   </g>
   <g id="patch_76">
    <path d="M 263.365077 116.444529 
Q 263.05664 116.871077 263.730885 115.938642 
" style="fill: none; opacity: 0.4; stroke: #000000; stroke-width: 1.5; stroke-linecap: round"/>
    <path d="M 272.452822 111.385861 
L 263.730885 115.938642 
L 265.321822 106.229423 
" style="fill: none; opacity: 0.4; stroke: #000000; stroke-width: 1.5; stroke-linecap: round"/>
   </g>
   <g id="patch_77">
    <path d="M 383.534201 257.800449 
Q 383.225775 258.227017 383.899977 257.294563 
" style="fill: none; opacity: 0.4; stroke: #000000; stroke-width: 1.5; stroke-linecap: round"/>
    <path d="M 392.621734 252.741436 
L 383.899977 257.294563 
L 385.490529 247.585282 
" style="fill: none; opacity: 0.4; stroke: #000000; stroke-width: 1.5; stroke-linecap: round"/>
   </g>
   <g id="patch_78">
    <path d="M 170.279609 157.305171 
Q 169.971154 157.73173 170.645401 156.799321 
" style="fill: none; opacity: 0.4; stroke: #000000; stroke-width: 1.5; stroke-linecap: round"/>
    <path d="M 179.367408 152.246673 
L 170.645401 156.799321 
L 172.236486 147.090127 
" style="fill: none; opacity: 0.4; stroke: #000000; stroke-width: 1.5; stroke-linecap: round"/>
   </g>
   <g id="patch_79">
    <path d="M 133.467397 76.411171 
Q 133.15894 76.837717 133.833209 75.905312 
" style="fill: none; opacity: 0.4; stroke: #000000; stroke-width: 1.5; stroke-linecap: round"/>
    <path d="M 142.555288 71.352803 
L 133.833209 75.905312 
L 135.424449 66.196143 
" style="fill: none; opacity: 0.4; stroke: #000000; stroke-width: 1.5; stroke-linecap: round"/>
   </g>
   <g id="patch_80">
    <path d="M 86.923375 96.840943 
Q 86.61491 97.267496 87.289179 96.335103 
" style="fill: none; opacity: 0.4; stroke: #000000; stroke-width: 1.5; stroke-linecap: round"/>
    <path d="M 96.011293 91.782661 
L 87.289179 96.335103 
L 88.880494 86.625947 
" style="fill: none; opacity: 0.4; stroke: #000000; stroke-width: 1.5; stroke-linecap: round"/>
   </g>
   <g id="patch_81">
    <path d="M 165.414026 207.968246 
Q 165.105566 208.394815 165.779804 207.462411 
" style="fill: none; opacity: 0.4; stroke: #000000; stroke-width: 1.5; stroke-linecap: round"/>
    <path d="M 174.501791 202.909726 
L 165.779804 207.462411 
L 167.370848 197.75321 
" style="fill: none; opacity: 0.4; stroke: #000000; stroke-width: 1.5; stroke-linecap: round"/>
   </g>
   <g id="patch_82">
    <path d="M 35.511361 167.934263 
Q 35.202882 168.36083 35.877144 167.428456 
" style="fill: none; opacity: 0.4; stroke: #000000; stroke-width: 1.5; stroke-linecap: round"/>
    <path d="M 44.599273 162.876043 
L 35.877144 167.428456 
L 37.468491 157.719305 
" style="fill: none; opacity: 0.4; stroke: #000000; stroke-width: 1.5; stroke-linecap: round"/>
   </g>
   <g id="patch_83">
    <path d="M 40.378396 117.271018 
Q 40.069921 117.697576 40.744192 116.765197 
" style="fill: none; opacity: 0.4; stroke: #000000; stroke-width: 1.5; stroke-linecap: round"/>
    <path d="M 49.46634 112.212821 
L 40.744192 116.765197 
L 42.33558 107.056053 
" style="fill: none; opacity: 0.4; stroke: #000000; stroke-width: 1.5; stroke-linecap: round"/>
   </g>
  </g>
 </g>
 <defs>
  <clipPath id="pb494a9ffc9">
   <rect x="7.2" y="7.2" width="446.4" height="398.54517"/>
  </clipPath>
 </defs>
</svg>
