<?xml version="1.0" encoding="utf-8" standalone="no"?>
<!DOCTYPE svg PUBLIC "-//W3C//DTD SVG 1.1//EN"
  "http://www.w3.org/Graphics/SVG/1.1/DTD/svg11.dtd">
<svg xmlns:xlink="http://www.w3.org/1999/xlink" width="460.8pt" height="413.099177pt" viewBox="0 0 460.8 413.099177" xmlns="http://www.w3.org/2000/svg" version="1.1">
 <metadata>
  <rdf:RDF xmlns:dc="http://purl.org/dc/elements/1.1/" xmlns:cc="http://creativecommons.org/ns#" xmlns:rdf="http://www.w3.org/1999/02/22-rdf-syntax-ns#">
   <cc:Work>
    <dc:type rdf:resource="http://purl.org/dc/dcmitype/StillImage"/>
    <dc:format>image/svg+xml</dc:format>
   </cc:Work>
  </rdf:RDF>
 </metadata>
 <defs>
  <style type="text/css">*{stroke-linejoin: round; stroke-linecap: butt}</style>
 </defs>
 <g id="figure_1">
  <g id="patch_1">
   <path d="M 0 413.099177 
L 460.8 413.099177 
L 460.8 0 
L 0 0 
z
" style="fill: #ffffff"/>
  </g>
  <g id="axes_1">
   <g id="patch_2">
    <path d="M 382.639865 294.334137 
L 365.749647 317.694314 
L 377.846083 344.274384 
L 406.832786 347.493947 
L 423.722724 324.133576 
L 411.626239 297.553835 
z
" clip-path="url(#p1cf1c3483e)" style="fill: #add8e6; opacity: 0.5; stroke: #000000; stroke-width: 1.5; stroke-linejoin: miter"/>
   </g>
   <g id="patch_3">
    <path d="M 290.884839 334.61536 
L 273.993626 357.976164 
L 286.089965 384.556892 
L 315.077565 387.776487 
L 331.968497 364.415489 
L 319.872109 337.83509 
z
" clip-path="url(#p1cf1c3483e)" style="fill: #add8e6; opacity: 0.5; stroke: #000000; stroke-width: 1.5; stroke-linejoin: miter"/>
   </g>
   <g id="patch_4">
    <path d="M 336.762825 314.474599 
L 319.872109 337.83509 
L 331.968497 364.415489 
L 360.955648 367.635068 
L 377.846083 344.274384 
L 365.749647 317.694314 
z
" clip-path="url(#p1cf1c3483e)" style="fill: #add8e6; opacity: 0.5; stroke: #000000; stroke-width: 1.5; stroke-linejoin: miter"/>
   </g>
   <g id="patch_5">
    <path d="M 249.801224 304.815122 
L 232.909731 328.175732 
L 245.005908 354.756418 
L 273.993626 357.976164 
L 290.884839 334.61536 
L 278.788613 308.035003 
z
" clip-path="url(#p1cf1c3483e)" style="fill: #add8e6; opacity: 0.5; stroke: #000000; stroke-width: 1.5; stroke-linejoin: miter"/>
   </g>
   <g id="patch_6">
    <path d="M 232.694887 25.32269 
L 215.804197 48.680567 
L 227.899648 75.259345 
L 256.885838 78.479918 
L 273.776247 55.121847 
L 261.680747 28.543398 
z
" clip-path="url(#p1cf1c3483e)" style="fill: #add8e6; opacity: 0.5; stroke: #000000; stroke-width: 1.5; stroke-linejoin: miter"/>
   </g>
   <g id="patch_7">
    <path d="M 186.817889 45.459844 
L 169.926702 68.818034 
L 182.022103 95.397142 
L 211.008741 98.61773 
L 227.899648 75.259345 
L 215.804197 48.680567 
z
" clip-path="url(#p1cf1c3483e)" style="fill: #add8e6; opacity: 0.5; stroke: #000000; stroke-width: 1.5; stroke-linejoin: miter"/>
   </g>
   <g id="patch_8">
    <path d="M 268.98145 105.058741 
L 252.090824 128.41732 
L 264.186549 154.996515 
L 293.17295 158.216802 
L 310.063296 134.858029 
L 297.967522 108.279163 
z
" clip-path="url(#p1cf1c3483e)" style="fill: #add8e6; opacity: 0.5; stroke: #000000; stroke-width: 1.5; stroke-linejoin: miter"/>
   </g>
   <g id="patch_9">
    <path d="M 310.063296 134.858029 
L 293.17295 158.216802 
L 305.268837 184.796041 
L 334.25512 188.016177 
L 351.145185 164.65721 
L 339.049249 138.0783 
z
" clip-path="url(#p1cf1c3483e)" style="fill: #add8e6; opacity: 0.5; stroke: #000000; stroke-width: 1.5; stroke-linejoin: miter"/>
   </g>
   <g id="patch_10">
    <path d="M 223.104305 125.196882 
L 206.213181 148.555775 
L 218.308858 175.1353 
L 247.295706 178.355602 
L 264.186549 154.996515 
L 252.090824 128.41732 
z
" clip-path="url(#p1cf1c3483e)" style="fill: #add8e6; opacity: 0.5; stroke: #000000; stroke-width: 1.5; stroke-linejoin: miter"/>
   </g>
   <g id="patch_11">
    <path d="M 264.186549 154.996515 
L 247.295706 178.355602 
L 259.391545 204.935171 
L 288.378275 208.155322 
L 305.268837 184.796041 
L 293.17295 158.216802 
z
" clip-path="url(#p1cf1c3483e)" style="fill: #add8e6; opacity: 0.5; stroke: #000000; stroke-width: 1.5; stroke-linejoin: miter"/>
   </g>
   <g id="patch_12">
    <path d="M 273.776247 55.121847 
L 256.885838 78.479918 
L 268.98145 105.058741 
L 297.967522 108.279163 
L 314.857651 84.920897 
L 302.761989 58.342404 
z
" clip-path="url(#p1cf1c3483e)" style="fill: #add8e6; opacity: 0.5; stroke: #000000; stroke-width: 1.5; stroke-linejoin: miter"/>
   </g>
   <g id="patch_13">
    <path d="M 314.857651 84.920897 
L 297.967522 108.279163 
L 310.063296 134.858029 
L 339.049249 138.0783 
L 355.939097 114.719841 
L 343.843274 88.141304 
z
" clip-path="url(#p1cf1c3483e)" style="fill: #add8e6; opacity: 0.5; stroke: #000000; stroke-width: 1.5; stroke-linejoin: miter"/>
   </g>
   <g id="patch_14">
    <path d="M 387.433543 244.39477 
L 370.543541 267.754439 
L 382.639865 294.334137 
L 411.626239 297.553835 
L 428.515959 274.193972 
L 416.419587 247.614604 
z
" clip-path="url(#p1cf1c3483e)" style="fill: #add8e6; opacity: 0.5; stroke: #000000; stroke-width: 1.5; stroke-linejoin: miter"/>
   </g>
   <g id="patch_15">
    <path d="M 351.145185 164.65721 
L 334.25512 188.016177 
L 346.351169 214.595459 
L 375.337332 217.815444 
L 392.227117 194.456283 
L 380.131019 167.87733 
z
" clip-path="url(#p1cf1c3483e)" style="fill: #add8e6; opacity: 0.5; stroke: #000000; stroke-width: 1.5; stroke-linejoin: miter"/>
   </g>
   <g id="patch_16">
    <path d="M 392.227117 194.456283 
L 375.337332 217.815444 
L 387.433543 244.39477 
L 416.419587 247.614604 
L 433.309091 224.255248 
L 421.212831 197.676253 
z
" clip-path="url(#p1cf1c3483e)" style="fill: #add8e6; opacity: 0.5; stroke: #000000; stroke-width: 1.5; stroke-linejoin: miter"/>
   </g>
   <g id="patch_17">
    <path d="M 85.467199 185.613096 
L 68.574586 208.972929 
L 80.670114 235.553442 
L 109.658306 238.773791 
L 126.55064 215.413763 
L 114.455062 188.83358 
z
" clip-path="url(#p1cf1c3483e)" style="fill: #add8e6; opacity: 0.5; stroke: #000000; stroke-width: 1.5; stroke-linejoin: miter"/>
   </g>
   <g id="patch_18">
    <path d="M 126.55064 215.413763 
L 109.658306 238.773791 
L 121.753997 265.354347 
L 150.742071 268.574546 
L 167.634124 245.214324 
L 155.538384 218.634097 
z
" clip-path="url(#p1cf1c3483e)" style="fill: #add8e6; opacity: 0.5; stroke: #000000; stroke-width: 1.5; stroke-linejoin: miter"/>
   </g>
   <g id="patch_19">
    <path d="M 177.226214 145.335322 
L 160.334594 168.694529 
L 172.430221 195.274383 
L 201.417518 198.494701 
L 218.308858 175.1353 
L 206.213181 148.555775 
z
" clip-path="url(#p1cf1c3483e)" style="fill: #add8e6; opacity: 0.5; stroke: #000000; stroke-width: 1.5; stroke-linejoin: miter"/>
   </g>
   <g id="patch_20">
    <path d="M 140.939945 65.597296 
L 124.048262 88.9558 
L 136.143614 115.535237 
L 165.1307 118.755841 
L 182.022103 95.397142 
L 169.926702 68.818034 
z
" clip-path="url(#p1cf1c3483e)" style="fill: #add8e6; opacity: 0.5; stroke: #000000; stroke-width: 1.5; stroke-linejoin: miter"/>
   </g>
   <g id="patch_21">
    <path d="M 182.022103 95.397142 
L 165.1307 118.755841 
L 177.226214 145.335322 
L 206.213181 148.555775 
L 223.104305 125.196882 
L 211.008741 98.61773 
z
" clip-path="url(#p1cf1c3483e)" style="fill: #add8e6; opacity: 0.5; stroke: #000000; stroke-width: 1.5; stroke-linejoin: miter"/>
   </g>
   <g id="patch_22">
    <path d="M 95.061058 85.735046 
L 78.168877 109.093864 
L 90.264181 135.673631 
L 119.251714 138.89425 
L 136.143614 115.535237 
L 124.048262 88.9558 
z
" clip-path="url(#p1cf1c3483e)" style="fill: #add8e6; opacity: 0.5; stroke: #000000; stroke-width: 1.5; stroke-linejoin: miter"/>
   </g>
   <g id="patch_23">
    <path d="M 213.513307 225.074598 
L 196.62175 248.434507 
L 208.717652 275.014777 
L 237.70516 278.234809 
L 254.596436 254.874706 
L 242.500485 228.294765 
z
" clip-path="url(#p1cf1c3483e)" style="fill: #add8e6; opacity: 0.5; stroke: #000000; stroke-width: 1.5; stroke-linejoin: miter"/>
   </g>
   <g id="patch_24">
    <path d="M 167.634124 245.214324 
L 150.742071 268.574546 
L 162.837924 295.155145 
L 191.825879 298.375193 
L 208.717652 275.014777 
L 196.62175 248.434507 
z
" clip-path="url(#p1cf1c3483e)" style="fill: #add8e6; opacity: 0.5; stroke: #000000; stroke-width: 1.5; stroke-linejoin: miter"/>
   </g>
   <g id="patch_25">
    <path d="M 208.717652 275.014777 
L 191.825879 298.375193 
L 203.921894 324.955835 
L 232.909731 328.175732 
L 249.801224 304.815122 
L 237.70516 278.234809 
z
" clip-path="url(#p1cf1c3483e)" style="fill: #add8e6; opacity: 0.5; stroke: #000000; stroke-width: 1.5; stroke-linejoin: miter"/>
   </g>
   <g id="patch_26">
    <path d="M 218.308858 175.1353 
L 201.417518 198.494701 
L 213.513307 225.074598 
L 242.500485 228.294765 
L 259.391545 204.935171 
L 247.295706 178.355602 
z
" clip-path="url(#p1cf1c3483e)" style="fill: #add8e6; opacity: 0.5; stroke: #000000; stroke-width: 1.5; stroke-linejoin: miter"/>
   </g>
   <g id="patch_27">
    <path d="M 172.430221 195.274383 
L 155.538384 218.634097 
L 167.634124 245.214324 
L 196.62175 248.434507 
L 213.513307 225.074598 
L 201.417518 198.494701 
z
" clip-path="url(#p1cf1c3483e)" style="fill: #add8e6; opacity: 0.5; stroke: #000000; stroke-width: 1.5; stroke-linejoin: miter"/>
   </g>
   <g id="patch_28">
    <path d="M 44.383803 155.812322 
L 27.490909 179.171961 
L 39.586276 205.752429 
L 68.574586 208.972929 
L 85.467199 185.613096 
L 73.371783 159.032957 
z
" clip-path="url(#p1cf1c3483e)" style="fill: #add8e6; opacity: 0.5; stroke: #000000; stroke-width: 1.5; stroke-linejoin: miter"/>
   </g>
   <g id="patch_29">
    <path d="M 49.181226 105.873095 
L 32.288549 129.232226 
L 44.383803 155.812322 
L 73.371783 159.032957 
L 90.264181 135.673631 
L 78.168877 109.093864 
z
" clip-path="url(#p1cf1c3483e)" style="fill: #add8e6; opacity: 0.5; stroke: #000000; stroke-width: 1.5; stroke-linejoin: miter"/>
   </g>
  </g>
 </g>
 <defs>
  <clipPath id="p1cf1c3483e">
   <rect x="7.2" y="7.2" width="446.4" height="398.699177"/>
  </clipPath>
 </defs>
</svg>
