<?xml version="1.0" encoding="utf-8" standalone="no"?>
<!DOCTYPE svg PUBLIC "-//W3C//DTD SVG 1.1//EN"
  "http://www.w3.org/Graphics/SVG/1.1/DTD/svg11.dtd">
<svg xmlns:xlink="http://www.w3.org/1999/xlink" width="285.734282pt" height="291.6pt" viewBox="0 0 285.734282 291.6" xmlns="http://www.w3.org/2000/svg" version="1.1">
 <metadata>
  <rdf:RDF xmlns:dc="http://purl.org/dc/elements/1.1/" xmlns:cc="http://creativecommons.org/ns#" xmlns:rdf="http://www.w3.org/1999/02/22-rdf-syntax-ns#">
   <cc:Work>
    <dc:type rdf:resource="http://purl.org/dc/dcmitype/StillImage"/>
    <dc:format>image/svg+xml</dc:format>
   </cc:Work>
  </rdf:RDF>
 </metadata>
 <defs>
  <style type="text/css">*{stroke-linejoin: round; stroke-linecap: butt}</style>
 </defs>
 <g id="figure_1">
  <g id="patch_1">
   <path d="M 0 291.6 
L 285.734282 291.6 
L 285.734282 0 
L 0 0 
z
" style="fill: #ffffff"/>
  </g>
  <g id="axes_1">
   <g id="line2d_1">
    <path d="M 82.466468 221.309182 
L 108.730781 185.293313 
" clip-path="url(#pe0dce8db43)" style="fill: none; stroke: #000000; stroke-width: 1.5; stroke-linecap: square"/>
   </g>
   <g id="line2d_2">
    <path d="M 152.392442 271.8 
L 178.656422 235.783909 
" clip-path="url(#pe0dce8db43)" style="fill: none; stroke: #000000; stroke-width: 1.5; stroke-linecap: square"/>
   </g>
   <g id="line2d_3">
    <path d="M 239.937928 151.7469 
L 266.200906 115.731237 
" clip-path="url(#pe0dce8db43)" style="fill: none; stroke: #000000; stroke-width: 1.5; stroke-linecap: square"/>
   </g>
   <g id="line2d_4">
    <path d="M 231.128444 237.01827 
L 257.391756 201.002282 
" clip-path="url(#pe0dce8db43)" style="fill: none; stroke: #000000; stroke-width: 1.5; stroke-linecap: square"/>
   </g>
   <g id="line2d_5">
    <path d="M 170.013065 101.25682 
L 196.276377 65.241378 
" clip-path="url(#pe0dce8db43)" style="fill: none; stroke: #000000; stroke-width: 1.5; stroke-linecap: square"/>
   </g>
   <g id="line2d_6">
    <path d="M 19.533376 175.866918 
L 37.867517 216.596051 
" clip-path="url(#pe0dce8db43)" style="fill: none; stroke: #000000; stroke-width: 1.5; stroke-linecap: square"/>
   </g>
   <g id="line2d_7">
    <path d="M 28.345175 90.595168 
L 46.679153 131.324108 
" clip-path="url(#pe0dce8db43)" style="fill: none; stroke: #000000; stroke-width: 1.5; stroke-linecap: square"/>
   </g>
   <g id="line2d_8">
    <path d="M 89.459033 226.35828 
L 107.793499 267.087251 
" clip-path="url(#pe0dce8db43)" style="fill: none; stroke: #000000; stroke-width: 1.5; stroke-linecap: square"/>
   </g>
   <g id="line2d_9">
    <path d="M 168.195376 191.577154 
L 186.530006 232.305772 
" clip-path="url(#pe0dce8db43)" style="fill: none; stroke: #000000; stroke-width: 1.5; stroke-linecap: square"/>
   </g>
   <g id="line2d_10">
    <path d="M 107.080975 55.81522 
L 125.415116 96.543807 
" clip-path="url(#pe0dce8db43)" style="fill: none; stroke: #000000; stroke-width: 1.5; stroke-linecap: square"/>
   </g>
   <g id="line2d_11">
    <path d="M 37.867517 216.596051 
L 82.466468 221.309182 
" clip-path="url(#pe0dce8db43)" style="fill: none; stroke: #000000; stroke-width: 1.5; stroke-linecap: square"/>
   </g>
   <g id="line2d_12">
    <path d="M 46.679153 131.324108 
L 91.277607 136.037372 
" clip-path="url(#pe0dce8db43)" style="fill: none; stroke: #000000; stroke-width: 1.5; stroke-linecap: square"/>
   </g>
   <g id="line2d_13">
    <path d="M 107.793499 267.087251 
L 152.392442 271.8 
" clip-path="url(#pe0dce8db43)" style="fill: none; stroke: #000000; stroke-width: 1.5; stroke-linecap: square"/>
   </g>
   <g id="line2d_14">
    <path d="M 195.339986 147.034269 
L 239.937928 151.7469 
" clip-path="url(#pe0dce8db43)" style="fill: none; stroke: #000000; stroke-width: 1.5; stroke-linecap: square"/>
   </g>
   <g id="line2d_15">
    <path d="M 186.530006 232.305772 
L 231.128444 237.01827 
" clip-path="url(#pe0dce8db43)" style="fill: none; stroke: #000000; stroke-width: 1.5; stroke-linecap: square"/>
   </g>
   <g id="line2d_16">
    <path d="M 90.396477 144.564533 
L 45.798023 139.85127 
" clip-path="url(#pe0dce8db43)" style="fill: none; stroke: #000000; stroke-width: 1.5; stroke-linecap: square"/>
   </g>
   <g id="line2d_17">
    <path d="M 99.207445 59.29324 
L 54.609488 54.579845 
" clip-path="url(#pe0dce8db43)" style="fill: none; stroke: #000000; stroke-width: 1.5; stroke-linecap: square"/>
   </g>
   <g id="line2d_18">
    <path d="M 247.866276 75.003165 
L 203.268831 70.290402 
" clip-path="url(#pe0dce8db43)" style="fill: none; stroke: #000000; stroke-width: 1.5; stroke-linecap: square"/>
   </g>
   <g id="line2d_19">
    <path d="M 239.056963 160.274018 
L 194.459022 155.561387 
" clip-path="url(#pe0dce8db43)" style="fill: none; stroke: #000000; stroke-width: 1.5; stroke-linecap: square"/>
   </g>
   <g id="line2d_20">
    <path d="M 177.942073 24.513145 
L 133.34462 19.8 
" clip-path="url(#pe0dce8db43)" style="fill: none; stroke: #000000; stroke-width: 1.5; stroke-linecap: square"/>
   </g>
   <g id="line2d_21">
    <path d="M 117.541586 100.021827 
L 99.207445 59.29324 
" clip-path="url(#pe0dce8db43)" style="fill: none; stroke: #000000; stroke-width: 1.5; stroke-linecap: square"/>
   </g>
   <g id="line2d_22">
    <path d="M 178.656422 235.783909 
L 160.321792 195.055291 
" clip-path="url(#pe0dce8db43)" style="fill: none; stroke: #000000; stroke-width: 1.5; stroke-linecap: square"/>
   </g>
   <g id="line2d_23">
    <path d="M 266.200906 115.731237 
L 247.866276 75.003165 
" clip-path="url(#pe0dce8db43)" style="fill: none; stroke: #000000; stroke-width: 1.5; stroke-linecap: square"/>
   </g>
   <g id="line2d_24">
    <path d="M 257.391756 201.002282 
L 239.056963 160.274018 
" clip-path="url(#pe0dce8db43)" style="fill: none; stroke: #000000; stroke-width: 1.5; stroke-linecap: square"/>
   </g>
   <g id="line2d_25">
    <path d="M 196.276377 65.241378 
L 177.942073 24.513145 
" clip-path="url(#pe0dce8db43)" style="fill: none; stroke: #000000; stroke-width: 1.5; stroke-linecap: square"/>
   </g>
   <g id="line2d_26">
    <path d="M 45.798023 139.85127 
L 19.533376 175.866918 
" clip-path="url(#pe0dce8db43)" style="fill: none; stroke: #000000; stroke-width: 1.5; stroke-linecap: square"/>
   </g>
   <g id="line2d_27">
    <path d="M 54.609488 54.579845 
L 28.345175 90.595168 
" clip-path="url(#pe0dce8db43)" style="fill: none; stroke: #000000; stroke-width: 1.5; stroke-linecap: square"/>
   </g>
   <g id="line2d_28">
    <path d="M 115.723346 190.34241 
L 89.459033 226.35828 
" clip-path="url(#pe0dce8db43)" style="fill: none; stroke: #000000; stroke-width: 1.5; stroke-linecap: square"/>
   </g>
   <g id="line2d_29">
    <path d="M 203.268831 70.290402 
L 177.005519 106.305844 
" clip-path="url(#pe0dce8db43)" style="fill: none; stroke: #000000; stroke-width: 1.5; stroke-linecap: square"/>
   </g>
   <g id="line2d_30">
    <path d="M 133.34462 19.8 
L 107.080975 55.81522 
" clip-path="url(#pe0dce8db43)" style="fill: none; stroke: #000000; stroke-width: 1.5; stroke-linecap: square"/>
   </g>
   <g id="patch_2">
    <path d="M 95.073338 204.021565 
Q 95.598624 203.301247 95.135771 203.935951 
" style="fill: none; opacity: 0.4; stroke: #000000; stroke-width: 1.5; stroke-linecap: round"/>
    <path d="M 86.395599 208.453625 
L 95.135771 203.935951 
L 93.505807 213.638693 
" style="fill: none; opacity: 0.4; stroke: #000000; stroke-width: 1.5; stroke-linecap: round"/>
   </g>
   <g id="patch_3">
    <path d="M 164.999153 254.512276 
Q 165.524432 253.791955 165.061585 254.426662 
" style="fill: none; opacity: 0.4; stroke: #000000; stroke-width: 1.5; stroke-linecap: round"/>
    <path d="M 156.321453 258.944415 
L 165.061585 254.426662 
L 163.431708 264.12942 
" style="fill: none; opacity: 0.4; stroke: #000000; stroke-width: 1.5; stroke-linecap: round"/>
   </g>
   <g id="patch_4">
    <path d="M 252.544157 134.459382 
Q 253.069417 133.739068 252.606567 134.373797 
" style="fill: none; opacity: 0.4; stroke: #000000; stroke-width: 1.5; stroke-linecap: round"/>
    <path d="M 243.866491 138.891659 
L 252.606567 134.373797 
L 250.976811 144.076575 
" style="fill: none; opacity: 0.4; stroke: #000000; stroke-width: 1.5; stroke-linecap: round"/>
   </g>
   <g id="patch_5">
    <path d="M 243.734834 219.730596 
Q 244.2601 219.010276 243.797254 219.644996 
" style="fill: none; opacity: 0.4; stroke: #000000; stroke-width: 1.5; stroke-linecap: round"/>
    <path d="M 235.057171 224.162843 
L 243.797254 219.644996 
L 242.167481 229.347771 
" style="fill: none; opacity: 0.4; stroke: #000000; stroke-width: 1.5; stroke-linecap: round"/>
   </g>
   <g id="patch_6">
    <path d="M 182.619455 83.969408 
Q 183.144721 83.249099 182.681865 83.883823 
" style="fill: none; opacity: 0.4; stroke: #000000; stroke-width: 1.5; stroke-linecap: round"/>
    <path d="M 173.941749 88.401607 
L 182.681865 83.883823 
L 181.052023 93.586586 
" style="fill: none; opacity: 0.4; stroke: #000000; stroke-width: 1.5; stroke-linecap: round"/>
   </g>
   <g id="patch_7">
    <path d="M 28.333764 195.416902 
Q 28.700447 196.231484 28.378739 195.516813 
" style="fill: none; opacity: 0.4; stroke: #000000; stroke-width: 1.5; stroke-linecap: round"/>
    <path d="M 28.778774 185.68625 
L 28.378739 195.516813 
L 20.754309 189.298447 
" style="fill: none; opacity: 0.4; stroke: #000000; stroke-width: 1.5; stroke-linecap: round"/>
   </g>
   <g id="patch_8">
    <path d="M 37.145485 110.14506 
Q 37.512164 110.959638 37.190455 110.244962 
" style="fill: none; opacity: 0.4; stroke: #000000; stroke-width: 1.5; stroke-linecap: round"/>
    <path d="M 37.590506 100.4144 
L 37.190455 110.244962 
L 29.566036 104.026584 
" style="fill: none; opacity: 0.4; stroke: #000000; stroke-width: 1.5; stroke-linecap: round"/>
   </g>
   <g id="patch_9">
    <path d="M 98.259577 245.908186 
Q 98.626266 246.722766 98.304552 246.008097 
" style="fill: none; opacity: 0.4; stroke: #000000; stroke-width: 1.5; stroke-linecap: round"/>
    <path d="M 98.704507 236.17753 
L 98.304552 246.008097 
L 90.680072 239.789793 
" style="fill: none; opacity: 0.4; stroke: #000000; stroke-width: 1.5; stroke-linecap: round"/>
   </g>
   <g id="patch_10">
    <path d="M 176.995998 211.12689 
Q 177.362691 211.941463 177.04097 211.226791 
" style="fill: none; opacity: 0.4; stroke: #000000; stroke-width: 1.5; stroke-linecap: round"/>
    <path d="M 177.44086 201.396222 
L 177.04097 211.226791 
L 169.416449 205.008537 
" style="fill: none; opacity: 0.4; stroke: #000000; stroke-width: 1.5; stroke-linecap: round"/>
   </g>
   <g id="patch_11">
    <path d="M 115.881362 75.364942 
Q 116.248045 76.179513 115.92633 75.464835 
" style="fill: none; opacity: 0.4; stroke: #000000; stroke-width: 1.5; stroke-linecap: round"/>
    <path d="M 116.326315 65.634269 
L 115.92633 75.464835 
L 108.301869 69.246507 
" style="fill: none; opacity: 0.4; stroke: #000000; stroke-width: 1.5; stroke-linecap: round"/>
   </g>
   <g id="patch_12">
    <path d="M 59.275013 218.858354 
Q 60.166992 218.952616 59.391207 218.870633 
" style="fill: none; opacity: 0.4; stroke: #000000; stroke-width: 1.5; stroke-linecap: round"/>
    <path d="M 51.102347 213.570181 
L 59.391207 218.870633 
L 50.177529 222.32145 
" style="fill: none; opacity: 0.4; stroke: #000000; stroke-width: 1.5; stroke-linecap: round"/>
   </g>
   <g id="patch_13">
    <path d="M 68.086411 133.586475 
Q 68.97838 133.68074 68.202586 133.598752 
" style="fill: none; opacity: 0.4; stroke: #000000; stroke-width: 1.5; stroke-linecap: round"/>
    <path d="M 59.913747 128.298267 
L 68.202586 133.598752 
L 58.988894 137.049532 
" style="fill: none; opacity: 0.4; stroke: #000000; stroke-width: 1.5; stroke-linecap: round"/>
   </g>
   <g id="patch_14">
    <path d="M 129.200992 269.349371 
Q 130.092971 269.443626 129.317184 269.361649 
" style="fill: none; opacity: 0.4; stroke: #000000; stroke-width: 1.5; stroke-linecap: round"/>
    <path d="M 121.028279 264.061267 
L 129.317184 269.361649 
L 120.103535 272.812544 
" style="fill: none; opacity: 0.4; stroke: #000000; stroke-width: 1.5; stroke-linecap: round"/>
   </g>
   <g id="patch_15">
    <path d="M 216.746998 149.296332 
Q 217.638957 149.390585 216.86315 149.308606 
" style="fill: none; opacity: 0.4; stroke: #000000; stroke-width: 1.5; stroke-linecap: round"/>
    <path d="M 208.574243 144.008226 
L 216.86315 149.308606 
L 207.649503 152.759504 
" style="fill: none; opacity: 0.4; stroke: #000000; stroke-width: 1.5; stroke-linecap: round"/>
   </g>
   <g id="patch_16">
    <path d="M 207.937256 234.567771 
Q 208.829225 234.662021 208.053427 234.580046 
" style="fill: none; opacity: 0.4; stroke: #000000; stroke-width: 1.5; stroke-linecap: round"/>
    <path d="M 199.764499 229.2797 
L 208.053427 234.580046 
L 198.839794 238.030982 
" style="fill: none; opacity: 0.4; stroke: #000000; stroke-width: 1.5; stroke-linecap: round"/>
   </g>
   <g id="patch_17">
    <path d="M 68.989219 142.302167 
Q 68.09725 142.207902 68.873044 142.289889 
" style="fill: none; opacity: 0.4; stroke: #000000; stroke-width: 1.5; stroke-linecap: round"/>
    <path d="M 77.161883 147.590375 
L 68.873044 142.289889 
L 78.086736 138.83911 
" style="fill: none; opacity: 0.4; stroke: #000000; stroke-width: 1.5; stroke-linecap: round"/>
   </g>
   <g id="patch_18">
    <path d="M 77.800426 57.03081 
Q 76.908466 56.936543 77.68427 57.018534 
" style="fill: none; opacity: 0.4; stroke: #000000; stroke-width: 1.5; stroke-linecap: round"/>
    <path d="M 85.973087 62.319054 
L 77.68427 57.018534 
L 86.897976 53.567792 
" style="fill: none; opacity: 0.4; stroke: #000000; stroke-width: 1.5; stroke-linecap: round"/>
   </g>
   <g id="patch_19">
    <path d="M 226.459502 72.741039 
Q 225.567553 72.646783 226.343369 72.728766 
" style="fill: none; opacity: 0.4; stroke: #000000; stroke-width: 1.5; stroke-linecap: round"/>
    <path d="M 234.632255 78.02918 
L 226.343369 72.728766 
L 235.557031 69.277906 
" style="fill: none; opacity: 0.4; stroke: #000000; stroke-width: 1.5; stroke-linecap: round"/>
   </g>
   <g id="patch_20">
    <path d="M 217.649951 158.011955 
Q 216.757992 157.917702 217.533799 157.999681 
" style="fill: none; opacity: 0.4; stroke: #000000; stroke-width: 1.5; stroke-linecap: round"/>
    <path d="M 225.822706 163.300061 
L 217.533799 157.999681 
L 226.747447 154.548783 
" style="fill: none; opacity: 0.4; stroke: #000000; stroke-width: 1.5; stroke-linecap: round"/>
   </g>
   <g id="patch_21">
    <path d="M 156.535295 22.250835 
Q 155.643346 22.156572 156.419161 22.238562 
" style="fill: none; opacity: 0.4; stroke: #000000; stroke-width: 1.5; stroke-linecap: round"/>
    <path d="M 164.708001 27.539046 
L 156.419161 22.238562 
L 165.632852 18.78778 
" style="fill: none; opacity: 0.4; stroke: #000000; stroke-width: 1.5; stroke-linecap: round"/>
   </g>
   <g id="patch_22">
    <path d="M 108.741198 80.472105 
Q 108.374516 79.657533 108.696231 80.372212 
" style="fill: none; opacity: 0.4; stroke: #000000; stroke-width: 1.5; stroke-linecap: round"/>
    <path d="M 108.296246 90.202777 
L 108.696231 80.372212 
L 116.320692 86.59054 
" style="fill: none; opacity: 0.4; stroke: #000000; stroke-width: 1.5; stroke-linecap: round"/>
   </g>
   <g id="patch_23">
    <path d="M 169.8558 216.234173 
Q 169.489107 215.4196 169.810828 216.134272 
" style="fill: none; opacity: 0.4; stroke: #000000; stroke-width: 1.5; stroke-linecap: round"/>
    <path d="M 169.410937 225.964841 
L 169.810828 216.134272 
L 177.435349 222.352526 
" style="fill: none; opacity: 0.4; stroke: #000000; stroke-width: 1.5; stroke-linecap: round"/>
   </g>
   <g id="patch_24">
    <path d="M 257.400284 96.181762 
Q 257.033591 95.367201 257.355319 96.08188 
" style="fill: none; opacity: 0.4; stroke: #000000; stroke-width: 1.5; stroke-linecap: round"/>
    <path d="M 256.955478 105.912451 
L 257.355319 96.08188 
L 264.979872 102.300095 
" style="fill: none; opacity: 0.4; stroke: #000000; stroke-width: 1.5; stroke-linecap: round"/>
   </g>
   <g id="patch_25">
    <path d="M 248.591056 181.452715 
Q 248.22436 180.63815 248.546087 181.352824 
" style="fill: none; opacity: 0.4; stroke: #000000; stroke-width: 1.5; stroke-linecap: round"/>
    <path d="M 248.146262 191.183396 
L 248.546087 181.352824 
L 256.170649 187.571028 
" style="fill: none; opacity: 0.4; stroke: #000000; stroke-width: 1.5; stroke-linecap: round"/>
   </g>
   <g id="patch_26">
    <path d="M 187.475911 45.691826 
Q 187.109225 44.877261 187.430947 45.591943 
" style="fill: none; opacity: 0.4; stroke: #000000; stroke-width: 1.5; stroke-linecap: round"/>
    <path d="M 187.031026 55.422511 
L 187.430947 45.591943 
L 195.055449 51.81022 
" style="fill: none; opacity: 0.4; stroke: #000000; stroke-width: 1.5; stroke-linecap: round"/>
   </g>
   <g id="patch_27">
    <path d="M 33.190993 157.138781 
Q 32.6657 157.859094 33.128558 157.224395 
" style="fill: none; opacity: 0.4; stroke: #000000; stroke-width: 1.5; stroke-linecap: round"/>
    <path d="M 41.868771 152.706799 
L 33.128558 157.224395 
L 34.758609 147.521667 
" style="fill: none; opacity: 0.4; stroke: #000000; stroke-width: 1.5; stroke-linecap: round"/>
   </g>
   <g id="patch_28">
    <path d="M 42.002618 71.8672 
Q 41.477332 72.587507 41.940194 71.9528 
" style="fill: none; opacity: 0.4; stroke: #000000; stroke-width: 1.5; stroke-linecap: round"/>
    <path d="M 50.680399 67.435188 
L 41.940194 71.9528 
L 43.570228 62.250069 
" style="fill: none; opacity: 0.4; stroke: #000000; stroke-width: 1.5; stroke-linecap: round"/>
   </g>
   <g id="patch_29">
    <path d="M 103.116475 207.630028 
Q 102.591189 208.350345 103.054042 207.715642 
" style="fill: none; opacity: 0.4; stroke: #000000; stroke-width: 1.5; stroke-linecap: round"/>
    <path d="M 111.794215 203.197967 
L 103.054042 207.715642 
L 104.684006 198.012899 
" style="fill: none; opacity: 0.4; stroke: #000000; stroke-width: 1.5; stroke-linecap: round"/>
   </g>
   <g id="patch_30">
    <path d="M 190.662441 87.577814 
Q 190.137175 88.298123 190.600031 87.663399 
" style="fill: none; opacity: 0.4; stroke: #000000; stroke-width: 1.5; stroke-linecap: round"/>
    <path d="M 199.340147 83.145615 
L 190.600031 87.663399 
L 192.229874 77.960636 
" style="fill: none; opacity: 0.4; stroke: #000000; stroke-width: 1.5; stroke-linecap: round"/>
   </g>
   <g id="patch_31">
    <path d="M 120.73807 37.087306 
Q 120.212797 37.80761 120.675659 37.17289 
" style="fill: none; opacity: 0.4; stroke: #000000; stroke-width: 1.5; stroke-linecap: round"/>
    <path d="M 129.415815 32.655185 
L 120.675659 37.17289 
L 122.305588 27.470142 
" style="fill: none; opacity: 0.4; stroke: #000000; stroke-width: 1.5; stroke-linecap: round"/>
   </g>
  </g>
 </g>
 <defs>
  <clipPath id="pe0dce8db43">
   <rect x="7.2" y="7.2" width="271.334282" height="277.2"/>
  </clipPath>
 </defs>
</svg>
