<?xml version="1.0" encoding="utf-8" standalone="no"?>
<!DOCTYPE svg PUBLIC "-//W3C//DTD SVG 1.1//EN"
  "http://www.w3.org/Graphics/SVG/1.1/DTD/svg11.dtd">
<svg xmlns:xlink="http://www.w3.org/1999/xlink" width="320.929119pt" height="332.64pt" viewBox="0 0 320.929119 332.64" xmlns="http://www.w3.org/2000/svg" version="1.1">
 <metadata>
  <rdf:RDF xmlns:dc="http://purl.org/dc/elements/1.1/" xmlns:cc="http://creativecommons.org/ns#" xmlns:rdf="http://www.w3.org/1999/02/22-rdf-syntax-ns#">
   <cc:Work>
    <dc:type rdf:resource="http://purl.org/dc/dcmitype/StillImage"/>
    <dc:format>image/svg+xml</dc:format>
   </cc:Work>
  </rdf:RDF>
 </metadata>
 <defs>
  <style type="text/css">*{stroke-linejoin: round; stroke-linecap: butt}</style>
 </defs>
 <g id="figure_1">
  <g id="patch_1">
   <path d="M 0 332.64 
L 320.929119 332.64 
L 320.929119 0 
L 0 0 
z
" style="fill: #ffffff"/>
  </g>
  <g id="axes_1">
   <g id="PatchCollection_1">
    <defs>
     <path id="m4047728109" d="M 14.587687 -118.97386 
L 19.282155 -125.460777 
L 16.005087 -132.796592 
L 20.699546 -139.283501 
L 28.671065 -138.4346 
L 33.365507 -144.921506 
L 30.088439 -152.257308 
L 34.782872 -158.744206 
L 31.505809 -166.080003 
L 36.200234 -172.566892 
L 44.171714 -171.717991 
L 48.866122 -178.204877 
L 45.589058 -185.54066 
L 50.283458 -192.027539 
L 47.006398 -199.363316 
L 39.034943 -200.212225 
L 35.757892 -207.548006 
L 27.786437 -208.396925 
L 24.509394 -215.732711 
L 29.203802 -222.219569 
L 25.926763 -229.55535 
L 30.621162 -236.042201 
L 38.592592 -235.193276 
L 43.286974 -241.680123 
L 40.009935 -249.01589 
L 44.704309 -255.50273 
L 41.427275 -262.838492 
L 46.12164 -269.325323 
L 54.093032 -268.476397 
L 58.78738 -274.963226 
L 66.758759 -274.114307 
L 70.035802 -266.778563 
L 78.00718 -265.929654 
L 82.701503 -272.416485 
L 90.672869 -271.567583 
L 95.367174 -278.054412 
L 103.338527 -277.205515 
L 106.615587 -269.869794 
L 114.586939 -269.020908 
L 119.28122 -275.507739 
L 127.252559 -274.65886 
L 131.946822 -281.145689 
L 128.669754 -288.481392 
L 133.364009 -294.968213 
L 130.086945 -302.303911 
L 134.781191 -308.790723 
L 142.752493 -307.941843 
L 147.446722 -314.428653 
L 155.41801 -313.579779 
L 158.695082 -306.244099 
L 166.666371 -305.395235 
L 171.360574 -311.882047 
L 179.33185 -311.03319 
L 184.026036 -317.52 
L 191.997299 -316.671149 
L 195.274388 -309.335491 
L 203.24565 -308.48665 
L 206.522747 -301.150996 
L 201.828578 -294.664175 
L 205.105679 -287.328516 
L 213.076954 -286.479688 
L 216.354064 -279.144034 
L 224.325338 -278.295215 
L 227.602456 -270.959565 
L 222.908295 -264.472724 
L 226.185417 -257.137069 
L 234.156705 -256.288264 
L 237.433835 -248.952612 
L 245.405122 -248.103817 
L 250.099266 -254.59067 
L 258.07054 -253.741881 
L 262.764666 -260.228731 
L 270.735928 -259.379949 
L 274.013075 -252.04432 
L 281.984336 -251.195548 
L 285.261491 -243.859923 
L 280.567381 -237.373062 
L 283.844541 -230.037432 
L 291.815814 -229.188673 
L 295.092982 -221.853048 
L 303.064255 -221.004298 
L 306.341431 -213.668677 
L 301.64733 -207.181796 
L 304.924511 -199.84617 
L 300.230401 -193.35928 
L 292.259102 -194.208023 
L 287.564976 -187.72113 
L 290.842156 -180.38549 
L 286.148021 -173.89859 
L 289.425205 -166.562944 
L 284.731061 -160.076036 
L 276.759725 -160.924778 
L 272.065564 -154.437866 
L 275.342748 -147.102207 
L 270.648579 -140.615287 
L 273.925767 -133.279623 
L 281.89713 -132.430887 
L 285.174327 -125.095227 
L 293.145689 -124.246502 
L 296.422894 -116.910846 
L 291.728733 -110.423906 
L 295.005942 -103.088245 
L 290.311773 -96.601297 
L 282.340386 -97.450016 
L 277.646199 -90.963065 
L 280.923409 -83.62739 
L 276.229214 -77.140431 
L 279.506427 -69.804751 
L 274.812224 -63.317784 
L 266.840798 -64.166502 
L 262.146578 -57.679532 
L 254.175139 -58.528257 
L 250.897934 -65.863955 
L 242.926495 -66.71269 
L 238.232249 -60.225723 
L 230.260797 -61.074464 
L 225.566534 -54.587494 
L 217.59507 -55.436242 
L 214.317881 -62.771962 
L 206.346416 -63.620719 
L 201.652128 -57.133753 
L 193.68065 -57.982517 
L 188.986344 -51.495547 
L 192.263524 -44.159809 
L 187.56921 -37.672831 
L 190.846395 -30.337087 
L 186.152072 -23.850102 
L 178.180556 -24.698865 
L 173.486216 -18.211876 
L 165.514687 -19.060646 
L 162.237511 -26.396408 
L 154.265982 -27.245188 
L 149.571617 -20.758202 
L 141.600075 -21.606988 
L 136.905692 -15.12 
L 128.934138 -15.968793 
L 125.656978 -23.304577 
L 117.685423 -24.153379 
L 114.408272 -31.489167 
L 119.102672 -37.976144 
L 115.825525 -45.311928 
L 107.853982 -46.160743 
L 104.576844 -53.496531 
L 96.605301 -54.345356 
L 93.328171 -61.681148 
L 98.022579 -68.168105 
L 94.745452 -75.503892 
L 86.773922 -76.35273 
L 83.496804 -83.688521 
L 75.525274 -84.53737 
L 70.830849 -78.050424 
L 62.859306 -78.899279 
L 58.164864 -72.412331 
L 50.193308 -73.261192 
L 46.916206 -80.597005 
L 38.94465 -81.445877 
L 35.667557 -88.781694 
L 40.362016 -95.268631 
L 37.084928 -102.604443 
L 29.113384 -103.453328 
L 25.836303 -110.789145 
L 17.864759 -111.638039 
z
" style="stroke: #000000; stroke-opacity: 0.5; stroke-width: 0.5"/>
    </defs>
    <g clip-path="url(#p1d0cb104ab)">
     <use xlink:href="#m4047728109" x="0" y="332.64" style="fill: #6baed6; fill-opacity: 0.5; stroke: #000000; stroke-opacity: 0.5; stroke-width: 0.5"/>
    </g>
   </g>
  </g>
 </g>
 <defs>
  <clipPath id="p1d0cb104ab">
   <rect x="0" y="-0" width="320.929119" height="332.64"/>
  </clipPath>
 </defs>
</svg>
