<?xml version="1.0" encoding="utf-8" standalone="no"?>
<!DOCTYPE svg PUBLIC "-//W3C//DTD SVG 1.1//EN"
  "http://www.w3.org/Graphics/SVG/1.1/DTD/svg11.dtd">
<svg xmlns:xlink="http://www.w3.org/1999/xlink" width="319.994407pt" height="332.64pt" viewBox="0 0 319.994407 332.64" xmlns="http://www.w3.org/2000/svg" version="1.1">
 <metadata>
  <rdf:RDF xmlns:dc="http://purl.org/dc/elements/1.1/" xmlns:cc="http://creativecommons.org/ns#" xmlns:rdf="http://www.w3.org/1999/02/22-rdf-syntax-ns#">
   <cc:Work>
    <dc:type rdf:resource="http://purl.org/dc/dcmitype/StillImage"/>
    <dc:format>image/svg+xml</dc:format>
   </cc:Work>
  </rdf:RDF>
 </metadata>
 <defs>
  <style type="text/css">*{stroke-linejoin: round; stroke-linecap: butt}</style>
 </defs>
 <g id="figure_1">
  <g id="patch_1">
   <path d="M -0 332.64 
L 319.994407 332.64 
L 319.994407 0 
L -0 0 
z
" style="fill: #ffffff"/>
  </g>
  <g id="axes_1">
   <g id="PatchCollection_1">
    <defs>
     <path id="m8a4385f8f9" d="M 14.5452 -119.111786 
L 17.018046 -120.838875 
L 16.753152 -123.852722 
L 19.225995 -125.57981 
L 18.961101 -128.593656 
L 16.223365 -129.880415 
L 15.958472 -132.89426 
L 18.431313 -134.621346 
L 18.166419 -137.635191 
L 20.639258 -139.362276 
L 23.376991 -138.075518 
L 25.849828 -139.802604 
L 28.58756 -138.515847 
L 31.060394 -140.242933 
L 30.795497 -143.256775 
L 33.268329 -144.98386 
L 33.003431 -147.9977 
L 30.265703 -149.284456 
L 30.000806 -152.298296 
L 32.473636 -154.025379 
L 32.208739 -157.039218 
L 34.681567 -158.766301 
L 34.416669 -161.780138 
L 31.678944 -163.066894 
L 31.414047 -166.080732 
L 33.886873 -167.807812 
L 33.621976 -170.821649 
L 36.0948 -172.548728 
L 38.832521 -171.261973 
L 41.305343 -172.989053 
L 44.043063 -171.702299 
L 46.515883 -173.42938 
L 46.250982 -176.443213 
L 48.723799 -178.170293 
L 48.458897 -181.184125 
L 45.72118 -182.470878 
L 45.456279 -185.48471 
L 47.929095 -187.211788 
L 47.664193 -190.225618 
L 50.137006 -191.952695 
L 49.872105 -194.966525 
L 47.134392 -196.253278 
L 46.869491 -199.267107 
L 44.131779 -200.553862 
L 41.658966 -198.826787 
L 38.921253 -200.113543 
L 38.656355 -203.127373 
L 35.918643 -204.41413 
L 35.653746 -207.427959 
L 32.916035 -208.714717 
L 30.44322 -206.987646 
L 27.705508 -208.274405 
L 27.440614 -211.288235 
L 24.702903 -212.574996 
L 24.438009 -215.588825 
L 26.910825 -217.315894 
L 26.645931 -220.329723 
L 29.118745 -222.056791 
L 28.85385 -225.070619 
L 26.116144 -226.357379 
L 25.851251 -229.371207 
L 28.324062 -231.098273 
L 28.059168 -234.112099 
L 30.531977 -235.839164 
L 33.269681 -234.552404 
L 35.742488 -236.27947 
L 38.48019 -234.992711 
L 40.952995 -236.719778 
L 40.688098 -239.733601 
L 43.1609 -241.460666 
L 42.896002 -244.474488 
L 40.158303 -245.761246 
L 39.893406 -248.775068 
L 42.366207 -250.502131 
L 42.101309 -253.515951 
L 44.574107 -255.243014 
L 44.309209 -258.256833 
L 41.571514 -259.543591 
L 41.306617 -262.55741 
L 43.779413 -264.284471 
L 43.514516 -267.298289 
L 45.98731 -269.025348 
L 48.725002 -267.738591 
L 51.197794 -269.465651 
L 53.935485 -268.178896 
L 56.408274 -269.905956 
L 56.143373 -272.919771 
L 58.616161 -274.646831 
L 61.353849 -273.360077 
L 63.826635 -275.087137 
L 66.564323 -273.800385 
L 66.829227 -270.786571 
L 69.566916 -269.49982 
L 69.831821 -266.486006 
L 72.569511 -265.199256 
L 75.042294 -266.926319 
L 77.779983 -265.63957 
L 80.252764 -267.366633 
L 79.987855 -270.380445 
L 82.460634 -272.107508 
L 85.19832 -270.820761 
L 87.671096 -272.547824 
L 90.408782 -271.261078 
L 92.881556 -272.988142 
L 92.616644 -276.00195 
L 95.089416 -277.729014 
L 97.8271 -276.442269 
L 100.299869 -278.169333 
L 103.037552 -276.88259 
L 103.302467 -273.868783 
L 106.040151 -272.582041 
L 106.305067 -269.568234 
L 109.042752 -268.281493 
L 111.515519 -270.008559 
L 114.253203 -268.72182 
L 116.725968 -270.448887 
L 116.461049 -273.462692 
L 118.933811 -275.189759 
L 121.671493 -273.903021 
L 124.144253 -275.630087 
L 126.881934 -274.343351 
L 129.354692 -276.070418 
L 129.089769 -279.084221 
L 131.562525 -280.811287 
L 131.297602 -283.825088 
L 128.559924 -285.111824 
L 128.295002 -288.125625 
L 130.767755 -289.852689 
L 130.502832 -292.866489 
L 132.975584 -294.593553 
L 132.710661 -297.607351 
L 129.972987 -298.894087 
L 129.708065 -301.907886 
L 132.180814 -303.634947 
L 131.915891 -306.648744 
L 134.388639 -308.375805 
L 137.126309 -307.08907 
L 139.599054 -308.816131 
L 142.336724 -307.529397 
L 144.809466 -309.256459 
L 144.54454 -312.270253 
L 147.017281 -313.997314 
L 149.754948 -312.710582 
L 152.227686 -314.437643 
L 154.965353 -313.150913 
L 155.230282 -310.13712 
L 157.96795 -308.85039 
L 158.23288 -305.836598 
L 160.970549 -304.549869 
L 163.443285 -306.276933 
L 166.180952 -304.990206 
L 168.653686 -306.717271 
L 168.388752 -309.731062 
L 170.861484 -311.458126 
L 173.599149 -310.1714 
L 176.071878 -311.898465 
L 178.809543 -310.611741 
L 181.28227 -312.338806 
L 181.017332 -315.352594 
L 183.490057 -317.079658 
L 186.227719 -315.792935 
L 188.700442 -317.52 
L 191.438103 -316.233279 
L 191.703044 -313.219493 
L 194.440706 -311.932773 
L 194.705648 -308.918986 
L 197.443311 -307.632267 
L 199.916031 -309.359335 
L 202.653694 -308.072617 
L 202.918638 -305.058832 
L 205.656301 -303.772115 
L 205.921246 -300.758329 
L 203.448526 -299.031259 
L 203.713471 -296.017472 
L 201.240749 -294.2904 
L 201.505693 -291.276612 
L 204.24336 -289.989896 
L 204.508305 -286.976107 
L 207.245974 -285.689392 
L 209.718696 -287.416465 
L 212.456364 -286.129751 
L 212.721311 -283.115963 
L 215.45898 -281.82925 
L 215.723929 -278.815462 
L 218.461598 -277.52875 
L 220.934318 -279.255827 
L 223.671987 -277.969116 
L 223.936938 -274.955328 
L 226.674608 -273.668619 
L 226.93956 -270.654831 
L 224.466841 -268.927752 
L 224.731793 -265.913963 
L 222.259071 -264.186883 
L 222.524022 -261.173092 
L 225.261697 -259.886383 
L 225.526649 -256.872593 
L 228.264324 -255.585884 
L 230.737045 -257.312967 
L 233.474719 -256.02626 
L 233.739674 -253.01247 
L 236.477349 -251.725764 
L 236.742305 -248.711974 
L 239.479981 -247.425269 
L 241.9527 -249.152354 
L 244.690375 -247.865651 
L 247.163092 -249.592737 
L 246.898133 -252.606525 
L 249.370847 -254.33361 
L 252.108521 -253.046909 
L 254.581233 -254.773994 
L 257.318905 -253.487294 
L 259.791615 -255.21438 
L 259.526652 -258.228165 
L 261.99936 -259.955251 
L 264.73703 -258.668552 
L 267.209735 -260.395638 
L 269.947405 -259.108941 
L 270.21237 -256.095157 
L 272.950041 -254.808461 
L 273.215007 -251.794677 
L 275.952678 -250.507982 
L 278.425381 -252.235071 
L 281.163052 -250.948377 
L 281.428021 -247.934593 
L 284.165692 -246.6479 
L 284.430662 -243.634117 
L 281.957959 -241.907026 
L 282.222929 -238.893241 
L 279.750224 -237.166149 
L 280.015193 -234.152363 
L 282.752869 -232.86567 
L 283.017839 -229.851884 
L 285.755515 -228.565193 
L 288.22822 -230.292287 
L 290.965896 -229.005597 
L 291.230869 -225.991812 
L 293.968545 -224.705123 
L 294.233519 -221.691337 
L 296.971197 -220.404649 
L 299.443899 -222.131746 
L 302.181576 -220.84506 
L 302.446552 -217.831275 
L 305.18423 -216.544589 
L 305.449207 -213.530803 
L 302.976505 -211.803703 
L 303.241482 -208.789917 
L 300.768778 -207.062815 
L 301.033754 -204.049028 
L 303.771436 -202.762342 
L 304.036413 -199.748554 
L 301.563707 -198.021451 
L 301.828683 -195.007662 
L 299.355975 -193.280558 
L 296.61829 -194.567244 
L 294.145579 -192.840141 
L 291.407893 -194.126829 
L 288.93518 -192.399725 
L 289.200153 -189.385933 
L 286.727438 -187.65883 
L 286.992411 -184.645036 
L 289.7301 -183.358348 
L 289.995073 -180.344554 
L 287.522356 -178.617449 
L 287.787329 -175.603654 
L 285.31461 -173.876547 
L 285.579582 -170.862751 
L 288.317276 -169.576063 
L 288.58225 -166.562267 
L 286.109528 -164.835158 
L 286.374501 -161.821361 
L 283.901777 -160.094251 
L 281.164081 -161.38094 
L 278.691355 -159.653831 
L 275.953657 -160.940522 
L 273.480929 -159.213413 
L 273.745899 -156.199613 
L 271.273168 -154.472503 
L 271.538137 -151.458702 
L 274.275838 -150.172011 
L 274.540808 -147.158209 
L 272.068075 -145.431098 
L 272.333045 -142.417295 
L 269.86031 -140.690183 
L 270.125279 -137.676379 
L 272.862984 -136.389688 
L 273.127954 -133.375884 
L 275.86566 -132.089194 
L 278.338394 -133.816309 
L 281.0761 -132.52962 
L 281.341072 -129.515817 
L 284.078778 -128.229129 
L 284.343752 -125.215325 
L 287.081459 -123.928639 
L 289.554191 -125.655757 
L 292.291897 -124.369072 
L 292.556873 -121.355269 
L 295.29458 -120.068585 
L 295.559557 -117.054781 
L 293.086826 -115.327661 
L 293.351802 -112.313856 
L 290.879068 -110.586735 
L 291.144044 -107.572929 
L 293.881756 -106.286245 
L 294.146733 -103.272439 
L 291.673997 -101.545316 
L 291.938973 -98.531508 
L 289.466235 -96.804384 
L 286.72852 -98.091069 
L 284.25578 -96.363945 
L 281.518065 -97.650631 
L 279.045322 -95.923508 
L 279.310295 -92.909698 
L 276.83755 -91.182574 
L 277.102522 -88.168762 
L 279.840241 -86.882076 
L 280.105215 -83.868264 
L 277.632468 -82.141138 
L 277.897441 -79.127325 
L 275.424692 -77.400199 
L 275.689664 -74.386385 
L 278.427387 -73.099698 
L 278.69236 -70.085884 
L 276.219609 -68.358755 
L 276.484582 -65.34494 
L 274.011829 -63.61781 
L 271.274102 -64.904497 
L 268.801347 -63.177368 
L 266.06362 -64.464056 
L 263.590862 -62.736928 
L 263.855831 -59.723109 
L 261.383071 -57.99598 
L 258.645342 -59.28267 
L 256.17258 -57.555541 
L 253.43485 -58.842233 
L 253.169884 -61.856053 
L 250.432155 -63.142745 
L 250.167189 -66.156565 
L 247.429461 -67.443259 
L 244.956697 -65.716133 
L 242.218968 -67.002828 
L 239.746201 -65.275702 
L 240.011163 -62.261881 
L 237.538394 -60.534754 
L 234.800662 -61.821451 
L 232.327891 -60.094325 
L 229.590159 -61.381023 
L 227.117385 -59.653898 
L 227.382344 -56.640073 
L 224.909568 -54.912947 
L 222.171834 -56.199647 
L 219.699055 -54.472521 
L 216.96132 -55.759223 
L 216.696365 -58.773049 
L 213.958631 -60.059752 
L 213.693677 -63.073578 
L 210.955943 -64.360281 
L 208.483163 -62.633158 
L 205.745429 -63.919863 
L 203.272646 -62.192741 
L 203.537597 -59.178913 
L 201.064812 -57.45179 
L 198.327076 -58.738496 
L 195.854289 -57.011374 
L 193.116552 -58.298082 
L 190.643762 -56.57096 
L 190.90871 -53.557129 
L 188.435918 -51.830006 
L 188.700865 -48.816174 
L 191.438606 -47.529465 
L 191.703554 -44.515633 
L 189.23076 -42.788508 
L 189.495708 -39.774674 
L 187.022912 -38.047548 
L 187.287859 -35.033714 
L 190.025603 -33.747005 
L 190.290551 -30.73317 
L 187.817753 -29.006042 
L 188.082701 -25.992206 
L 185.609901 -24.265078 
L 182.872153 -25.551787 
L 180.399351 -23.824659 
L 177.661602 -25.111369 
L 175.188797 -23.384242 
L 175.453741 -20.370402 
L 172.980935 -18.643274 
L 170.243184 -19.929986 
L 167.770375 -18.202858 
L 165.032623 -19.489572 
L 164.767682 -22.503413 
L 162.029932 -23.790127 
L 161.764992 -26.803968 
L 159.027242 -28.090684 
L 156.55443 -26.363559 
L 153.81668 -27.650276 
L 151.343866 -25.923151 
L 151.608803 -22.909309 
L 149.135987 -21.182183 
L 146.398234 -22.468902 
L 143.925416 -20.741777 
L 141.187662 -22.028497 
L 138.714842 -20.301373 
L 138.979775 -17.287528 
L 136.506952 -15.560403 
L 133.769196 -16.847125 
L 131.296371 -15.12 
L 128.558615 -16.406723 
L 128.293685 -19.42057 
L 125.555929 -20.707295 
L 125.291 -23.721142 
L 122.553245 -25.007867 
L 120.080418 -23.280745 
L 117.342663 -24.567472 
L 117.077736 -27.58132 
L 114.339982 -28.868047 
L 114.075056 -31.881895 
L 116.547884 -33.609014 
L 116.282958 -36.62286 
L 118.755783 -38.349978 
L 118.490857 -41.363823 
L 115.753106 -42.650551 
L 115.488181 -45.664396 
L 112.750432 -46.951125 
L 110.277606 -45.224009 
L 107.539856 -46.510739 
L 107.274933 -49.524585 
L 104.537184 -50.811316 
L 104.272262 -53.825161 
L 101.534514 -55.111893 
L 99.061685 -53.384781 
L 96.323936 -54.671514 
L 96.059017 -57.68536 
L 93.321269 -58.972095 
L 93.056351 -61.985941 
L 95.529179 -63.713051 
L 95.26426 -66.726895 
L 97.737086 -68.454004 
L 97.472167 -71.467847 
L 94.734423 -72.754582 
L 94.469505 -75.768425 
L 91.731762 -77.055161 
L 89.258936 -75.328055 
L 86.521192 -76.614792 
L 86.256276 -79.628635 
L 83.518533 -80.915374 
L 83.253619 -83.929217 
L 80.515877 -85.215956 
L 78.043048 -83.488853 
L 75.305306 -84.775593 
L 72.832475 -83.04849 
L 73.097386 -80.034645 
L 70.624553 -78.307541 
L 67.886808 -79.594283 
L 65.413973 -77.86718 
L 62.676227 -79.153924 
L 60.203389 -77.426821 
L 60.468297 -74.412973 
L 57.995458 -72.685869 
L 55.25771 -73.972614 
L 52.784867 -72.245511 
L 50.047119 -73.532258 
L 49.782214 -76.546108 
L 47.044466 -77.832856 
L 46.779562 -80.846705 
L 44.041815 -82.133454 
L 41.568971 -80.406354 
L 38.831223 -81.693104 
L 38.566322 -84.706955 
L 35.828575 -85.993706 
L 35.563675 -89.007556 
L 38.03652 -90.734654 
L 37.771619 -93.748503 
L 40.244461 -95.4756 
L 39.97956 -98.489447 
L 37.241817 -99.776199 
L 36.976917 -102.790046 
L 34.239176 -104.076799 
L 31.766333 -102.349704 
L 29.028591 -103.636458 
L 28.763693 -106.650307 
L 26.025951 -107.937062 
L 25.761055 -110.950909 
L 23.023314 -112.237665 
L 20.550469 -110.510574 
L 17.812728 -111.797331 
L 17.547834 -114.81118 
L 14.810094 -116.097938 
z
" style="stroke: #000000; stroke-opacity: 0.5; stroke-width: 0.5"/>
    </defs>
    <g clip-path="url(#p7de7662bd5)">
     <use xlink:href="#m8a4385f8f9" x="0" y="332.64" style="fill: #6baed6; fill-opacity: 0.5; stroke: #000000; stroke-opacity: 0.5; stroke-width: 0.5"/>
    </g>
   </g>
  </g>
 </g>
 <defs>
  <clipPath id="p7de7662bd5">
   <rect x="0" y="-0" width="319.994407" height="332.64"/>
  </clipPath>
 </defs>
</svg>
