<?xml version="1.0" encoding="utf-8" standalone="no"?>
<!DOCTYPE svg PUBLIC "-//W3C//DTD SVG 1.1//EN"
  "http://www.w3.org/Graphics/SVG/1.1/DTD/svg11.dtd">
<svg xmlns:xlink="http://www.w3.org/1999/xlink" width="317.811366pt" height="332.64pt" viewBox="0 0 317.811366 332.64" xmlns="http://www.w3.org/2000/svg" version="1.1">
 <metadata>
  <rdf:RDF xmlns:dc="http://purl.org/dc/elements/1.1/" xmlns:cc="http://creativecommons.org/ns#" xmlns:rdf="http://www.w3.org/1999/02/22-rdf-syntax-ns#">
   <cc:Work>
    <dc:type rdf:resource="http://purl.org/dc/dcmitype/StillImage"/>
    <dc:format>image/svg+xml</dc:format>
   </cc:Work>
  </rdf:RDF>
 </metadata>
 <defs>
  <style type="text/css">*{stroke-linejoin: round; stroke-linecap: butt}</style>
 </defs>
 <g id="figure_1">
  <g id="patch_1">
   <path d="M 0 332.64 
L 317.811366 332.64 
L 317.811366 0 
L 0 0 
z
" style="fill: #ffffff"/>
  </g>
  <g id="axes_1">
   <g id="PatchCollection_1">
    <defs>
     <path id="m1fef6dc530" d="M 14.445971 -132.796592 
L 31.806391 -144.921506 
L 29.946693 -166.080003 
L 47.307006 -178.204877 
L 45.447282 -199.363316 
L 26.227321 -208.396925 
L 24.367647 -229.55535 
L 41.727859 -241.680123 
L 39.868159 -262.838492 
L 57.228264 -274.963226 
L 76.448065 -265.929654 
L 93.808059 -278.054412 
L 113.027824 -269.020908 
L 130.387707 -281.145689 
L 128.527829 -302.303911 
L 145.887606 -314.428653 
L 165.107255 -305.395235 
L 182.46692 -317.52 
L 201.686534 -308.48665 
L 203.546563 -287.328516 
L 222.766222 -278.295215 
L 224.626302 -257.137069 
L 243.846006 -248.103817 
L 261.205551 -260.228731 
L 280.42522 -251.195548 
L 282.285425 -230.037432 
L 301.50514 -221.004298 
L 303.365395 -199.84617 
L 286.00586 -187.72113 
L 287.866089 -166.562944 
L 270.506448 -154.437866 
L 272.366652 -133.279623 
L 291.586573 -124.246502 
L 293.446827 -103.088245 
L 276.087083 -90.963065 
L 277.947311 -69.804751 
L 260.587462 -57.679532 
L 241.367379 -66.71269 
L 224.007418 -54.587494 
L 204.787301 -63.620719 
L 187.427228 -51.495547 
L 189.287279 -30.337087 
L 171.9271 -18.211876 
L 152.706866 -27.245188 
L 135.346577 -15.12 
L 116.126308 -24.153379 
L 114.266409 -45.311928 
L 95.046185 -54.345356 
L 93.186337 -75.503892 
L 73.966158 -84.53737 
L 56.605748 -72.412331 
L 37.385534 -81.445877 
L 35.525812 -102.604443 
L 16.305644 -111.638039 
z
" style="stroke: #000000; stroke-opacity: 0.5; stroke-width: 0.5"/>
    </defs>
    <g clip-path="url(#p70c1de8a41)">
     <use xlink:href="#m1fef6dc530" x="0" y="332.64" style="fill: #6baed6; fill-opacity: 0.5; stroke: #000000; stroke-opacity: 0.5; stroke-width: 0.5"/>
    </g>
   </g>
  </g>
 </g>
 <defs>
  <clipPath id="p70c1de8a41">
   <rect x="0" y="-0" width="317.811366" height="332.64"/>
  </clipPath>
 </defs>
</svg>
