<?xml version="1.0" encoding="utf-8" standalone="no"?>
<!DOCTYPE svg PUBLIC "-//W3C//DTD SVG 1.1//EN"
  "http://www.w3.org/Graphics/SVG/1.1/DTD/svg11.dtd">
<svg xmlns:xlink="http://www.w3.org/1999/xlink" width="293.4pt" height="269.192359pt" viewBox="0 0 293.4 269.192359" xmlns="http://www.w3.org/2000/svg" version="1.1">
 <metadata>
  <rdf:RDF xmlns:dc="http://purl.org/dc/elements/1.1/" xmlns:cc="http://creativecommons.org/ns#" xmlns:rdf="http://www.w3.org/1999/02/22-rdf-syntax-ns#">
   <cc:Work>
    <dc:type rdf:resource="http://purl.org/dc/dcmitype/StillImage"/>
    <dc:format>image/svg+xml</dc:format>
   </cc:Work>
  </rdf:RDF>
 </metadata>
 <defs>
  <style type="text/css">*{stroke-linejoin: round; stroke-linecap: butt}</style>
 </defs>
 <g id="figure_1">
  <g id="patch_1">
   <path d="M 0 269.192359 
L 293.4 269.192359 
L 293.4 0 
L 0 0 
z
" style="fill: #ffffff"/>
  </g>
  <g id="axes_1">
   <g id="line2d_1">
    <path d="M 198.835618 250.410888 
L 273.518182 147.997468 
" clip-path="url(#p13113bcf91)" style="fill: none; stroke: #000000; stroke-width: 2.5; stroke-linecap: square"/>
   </g>
   <g id="line2d_2">
    <path d="M 19.881818 121.194262 
L 72.016729 237.009473 
" clip-path="url(#p13113bcf91)" style="fill: none; stroke: #000000; stroke-width: 2.5; stroke-linecap: square"/>
   </g>
   <g id="line2d_3">
    <path d="M 72.016729 237.009473 
L 198.835618 250.410888 
" clip-path="url(#p13113bcf91)" style="fill: none; stroke: #000000; stroke-width: 2.5; stroke-linecap: square"/>
   </g>
   <g id="line2d_4">
    <path d="M 221.382807 32.183262 
L 94.565331 18.781471 
" clip-path="url(#p13113bcf91)" style="fill: none; stroke: #000000; stroke-width: 2.5; stroke-linecap: square"/>
   </g>
   <g id="line2d_5">
    <path d="M 273.518182 147.997468 
L 221.382807 32.183262 
" clip-path="url(#p13113bcf91)" style="fill: none; stroke: #000000; stroke-width: 2.5; stroke-linecap: square"/>
   </g>
   <g id="line2d_6">
    <path d="M 94.565331 18.781471 
L 19.881818 121.194262 
" clip-path="url(#p13113bcf91)" style="fill: none; stroke: #000000; stroke-width: 2.5; stroke-linecap: square"/>
   </g>
   <g id="patch_2">
    <path d="M 235.858915 199.640235 
Q 236.174713 199.207177 234.843637 201.032503 
" style="fill: none; stroke: #000000; stroke-width: 2.5; stroke-linecap: round"/>
    <path d="M 226.103513 205.550272 
L 234.843637 201.032503 
L 233.213777 210.735264 
" style="fill: none; stroke: #000000; stroke-width: 2.5; stroke-linecap: round"/>
   </g>
   <g id="patch_3">
    <path d="M 45.727293 178.608748 
Q 45.948982 179.10122 45.023337 177.044943 
" style="fill: none; stroke: #000000; stroke-width: 2.5; stroke-linecap: round"/>
    <path d="M 45.423307 167.214377 
L 45.023337 177.044943 
L 37.398867 170.826628 
" style="fill: none; stroke: #000000; stroke-width: 2.5; stroke-linecap: round"/>
   </g>
   <g id="patch_4">
    <path d="M 134.876295 243.652073 
Q 135.426336 243.710198 133.196768 243.474591 
" style="fill: none; stroke: #000000; stroke-width: 2.5; stroke-linecap: round"/>
    <path d="M 124.907884 238.174176 
L 133.196768 243.474591 
L 123.983105 246.925449 
" style="fill: none; stroke: #000000; stroke-width: 2.5; stroke-linecap: round"/>
   </g>
   <g id="patch_5">
    <path d="M 158.523941 25.540476 
Q 157.973907 25.482349 160.203479 25.717965 
" style="fill: none; stroke: #000000; stroke-width: 2.5; stroke-linecap: round"/>
    <path d="M 168.492341 31.018415 
L 160.203479 25.717965 
L 169.417156 22.267146 
" style="fill: none; stroke: #000000; stroke-width: 2.5; stroke-linecap: round"/>
   </g>
   <g id="patch_6">
    <path d="M 247.672477 90.58348 
Q 247.450786 90.091012 248.376446 92.147286 
" style="fill: none; stroke: #000000; stroke-width: 2.5; stroke-linecap: round"/>
    <path d="M 247.97654 101.977854 
L 248.376446 92.147286 
L 256.000957 98.365551 
" style="fill: none; stroke: #000000; stroke-width: 2.5; stroke-linecap: round"/>
   </g>
   <g id="patch_7">
    <path d="M 57.541563 69.551812 
Q 57.225761 69.984868 58.556854 68.159553 
" style="fill: none; stroke: #000000; stroke-width: 2.5; stroke-linecap: round"/>
    <path d="M 67.297018 63.641863 
L 58.556854 68.159553 
L 60.186801 58.456808 
" style="fill: none; stroke: #000000; stroke-width: 2.5; stroke-linecap: round"/>
   </g>
   <g id="text_1">
    <g id="patch_8">
     <path d="M 124.899618 142.489915 
L 168.500868 142.489915 
L 168.500868 126.702415 
L 124.899618 126.702415 
z
" style="fill: #ffffff; opacity: 0.8"/>
    </g>
    <!-- origin -->
    <g transform="translate(126.939618 137.86054) scale(0.12 -0.12)">
     <defs>
      <path id="DejaVuSans-Bold-6f" d="M 2203 2784 
Q 1831 2784 1636 2517 
Q 1441 2250 1441 1747 
Q 1441 1244 1636 976 
Q 1831 709 2203 709 
Q 2569 709 2762 976 
Q 2956 1244 2956 1747 
Q 2956 2250 2762 2517 
Q 2569 2784 2203 2784 
z
M 2203 3584 
Q 3106 3584 3614 3096 
Q 4122 2609 4122 1747 
Q 4122 884 3614 396 
Q 3106 -91 2203 -91 
Q 1297 -91 786 396 
Q 275 884 275 1747 
Q 275 2609 786 3096 
Q 1297 3584 2203 3584 
z
" transform="scale(0.015625)"/>
      <path id="DejaVuSans-Bold-72" d="M 3138 2547 
Q 2991 2616 2845 2648 
Q 2700 2681 2553 2681 
Q 2122 2681 1889 2404 
Q 1656 2128 1656 1613 
L 1656 0 
L 538 0 
L 538 3500 
L 1656 3500 
L 1656 2925 
Q 1872 3269 2151 3426 
Q 2431 3584 2822 3584 
Q 2878 3584 2943 3579 
Q 3009 3575 3134 3559 
L 3138 2547 
z
" transform="scale(0.015625)"/>
      <path id="DejaVuSans-Bold-69" d="M 538 3500 
L 1656 3500 
L 1656 0 
L 538 0 
L 538 3500 
z
M 538 4863 
L 1656 4863 
L 1656 3950 
L 538 3950 
L 538 4863 
z
" transform="scale(0.015625)"/>
      <path id="DejaVuSans-Bold-67" d="M 2919 594 
Q 2688 288 2409 144 
Q 2131 0 1766 0 
Q 1125 0 706 504 
Q 288 1009 288 1791 
Q 288 2575 706 3076 
Q 1125 3578 1766 3578 
Q 2131 3578 2409 3434 
Q 2688 3291 2919 2981 
L 2919 3500 
L 4044 3500 
L 4044 353 
Q 4044 -491 3511 -936 
Q 2978 -1381 1966 -1381 
Q 1638 -1381 1331 -1331 
Q 1025 -1281 716 -1178 
L 716 -306 
Q 1009 -475 1290 -558 
Q 1572 -641 1856 -641 
Q 2406 -641 2662 -400 
Q 2919 -159 2919 353 
L 2919 594 
z
M 2181 2772 
Q 1834 2772 1640 2515 
Q 1447 2259 1447 1791 
Q 1447 1309 1634 1061 
Q 1822 813 2181 813 
Q 2531 813 2725 1069 
Q 2919 1325 2919 1791 
Q 2919 2259 2725 2515 
Q 2531 2772 2181 2772 
z
" transform="scale(0.015625)"/>
      <path id="DejaVuSans-Bold-6e" d="M 4056 2131 
L 4056 0 
L 2931 0 
L 2931 347 
L 2931 1631 
Q 2931 2084 2911 2256 
Q 2891 2428 2841 2509 
Q 2775 2619 2662 2680 
Q 2550 2741 2406 2741 
Q 2056 2741 1856 2470 
Q 1656 2200 1656 1722 
L 1656 0 
L 538 0 
L 538 3500 
L 1656 3500 
L 1656 2988 
Q 1909 3294 2193 3439 
Q 2478 3584 2822 3584 
Q 3428 3584 3742 3212 
Q 4056 2841 4056 2131 
z
" transform="scale(0.015625)"/>
     </defs>
     <use xlink:href="#DejaVuSans-Bold-6f"/>
     <use xlink:href="#DejaVuSans-Bold-72" transform="translate(68.701172 0)"/>
     <use xlink:href="#DejaVuSans-Bold-69" transform="translate(118.017578 0)"/>
     <use xlink:href="#DejaVuSans-Bold-67" transform="translate(152.294922 0)"/>
     <use xlink:href="#DejaVuSans-Bold-69" transform="translate(223.876953 0)"/>
     <use xlink:href="#DejaVuSans-Bold-6e" transform="translate(258.154297 0)"/>
    </g>
   </g>
  </g>
 </g>
 <defs>
  <clipPath id="p13113bcf91">
   <rect x="7.2" y="7.2" width="279" height="254.792359"/>
  </clipPath>
 </defs>
</svg>
