<?xml version="1.0" encoding="utf-8" standalone="no"?>
<!DOCTYPE svg PUBLIC "-//W3C//DTD SVG 1.1//EN"
  "http://www.w3.org/Graphics/SVG/1.1/DTD/svg11.dtd">
<svg xmlns:xlink="http://www.w3.org/1999/xlink" width="293.4pt" height="245.753241pt" viewBox="0 0 293.4 245.753241" xmlns="http://www.w3.org/2000/svg" version="1.1">
 <metadata>
  <rdf:RDF xmlns:dc="http://purl.org/dc/elements/1.1/" xmlns:cc="http://creativecommons.org/ns#" xmlns:rdf="http://www.w3.org/1999/02/22-rdf-syntax-ns#">
   <cc:Work>
    <dc:type rdf:resource="http://purl.org/dc/dcmitype/StillImage"/>
    <dc:format>image/svg+xml</dc:format>
   </cc:Work>
  </rdf:RDF>
 </metadata>
 <defs>
  <style type="text/css">*{stroke-linejoin: round; stroke-linecap: butt}</style>
 </defs>
 <g id="figure_1">
  <g id="patch_1">
   <path d="M 0 245.753241 
L 293.4 245.753241 
L 293.4 0 
L 0 0 
z
" style="fill: #ffffff"/>
  </g>
  <g id="axes_1">
   <g id="line2d_1">
    <path d="M 120.195215 147.557019 
L 162.058878 90.148693 
" clip-path="url(#pc822063787)" style="fill: none; stroke: #000000; stroke-width: 1.5; stroke-linecap: square"/>
   </g>
   <g id="line2d_2">
    <path d="M 231.65505 228.037185 
L 273.518182 170.628506 
" clip-path="url(#pc822063787)" style="fill: none; stroke: #000000; stroke-width: 1.5; stroke-linecap: square"/>
   </g>
   <g id="line2d_3">
    <path d="M 19.881818 75.12403 
L 49.106289 140.044793 
" clip-path="url(#pc822063787)" style="fill: none; stroke: #000000; stroke-width: 1.5; stroke-linecap: square"/>
   </g>
   <g id="line2d_4">
    <path d="M 131.341146 155.605061 
L 160.566136 220.525568 
" clip-path="url(#pc822063787)" style="fill: none; stroke: #000000; stroke-width: 1.5; stroke-linecap: square"/>
   </g>
   <g id="line2d_5">
    <path d="M 49.106289 140.044793 
L 120.195215 147.557019 
" clip-path="url(#pc822063787)" style="fill: none; stroke: #000000; stroke-width: 1.5; stroke-linecap: square"/>
   </g>
   <g id="line2d_6">
    <path d="M 160.566136 220.525568 
L 231.65505 228.037185 
" clip-path="url(#pc822063787)" style="fill: none; stroke: #000000; stroke-width: 1.5; stroke-linecap: square"/>
   </g>
   <g id="line2d_7">
    <path d="M 132.834148 25.228493 
L 61.746014 17.716056 
" clip-path="url(#pc822063787)" style="fill: none; stroke: #000000; stroke-width: 1.5; stroke-linecap: square"/>
   </g>
   <g id="line2d_8">
    <path d="M 244.292932 105.708563 
L 173.20481 98.196735 
" clip-path="url(#pc822063787)" style="fill: none; stroke: #000000; stroke-width: 1.5; stroke-linecap: square"/>
   </g>
   <g id="line2d_9">
    <path d="M 162.058878 90.148693 
L 132.834148 25.228493 
" clip-path="url(#pc822063787)" style="fill: none; stroke: #000000; stroke-width: 1.5; stroke-linecap: square"/>
   </g>
   <g id="line2d_10">
    <path d="M 273.518182 170.628506 
L 244.292932 105.708563 
" clip-path="url(#pc822063787)" style="fill: none; stroke: #000000; stroke-width: 1.5; stroke-linecap: square"/>
   </g>
   <g id="line2d_11">
    <path d="M 61.746014 17.716056 
L 19.881818 75.12403 
" clip-path="url(#pc822063787)" style="fill: none; stroke: #000000; stroke-width: 1.5; stroke-linecap: square"/>
   </g>
   <g id="line2d_12">
    <path d="M 173.20481 98.196735 
L 131.341146 155.605061 
" clip-path="url(#pc822063787)" style="fill: none; stroke: #000000; stroke-width: 1.5; stroke-linecap: square"/>
   </g>
   <g id="patch_2">
    <path d="M 141.468824 118.384171 
Q 141.716572 118.04443 140.976195 119.059721 
" style="fill: none; opacity: 0.4; stroke: #000000; stroke-width: 1.5; stroke-linecap: round"/>
    <path d="M 132.236071 123.577489 
L 140.976195 119.059721 
L 139.346335 128.762481 
" style="fill: none; opacity: 0.4; stroke: #000000; stroke-width: 1.5; stroke-linecap: round"/>
   </g>
   <g id="patch_3">
    <path d="M 252.928389 198.864157 
Q 253.176134 198.524414 252.435766 199.539712 
" style="fill: none; opacity: 0.4; stroke: #000000; stroke-width: 1.5; stroke-linecap: round"/>
    <path d="M 243.695683 204.057558 
L 252.435766 199.539712 
L 250.805993 209.242487 
" style="fill: none; opacity: 0.4; stroke: #000000; stroke-width: 1.5; stroke-linecap: round"/>
   </g>
   <g id="patch_4">
    <path d="M 34.730361 108.109356 
Q 34.904452 108.496091 34.390142 107.353577 
" style="fill: none; opacity: 0.4; stroke: #000000; stroke-width: 1.5; stroke-linecap: round"/>
    <path d="M 34.790112 97.523011 
L 34.390142 107.353577 
L 26.765672 101.135261 
" style="fill: none; opacity: 0.4; stroke: #000000; stroke-width: 1.5; stroke-linecap: round"/>
   </g>
   <g id="patch_5">
    <path d="M 146.189953 188.590258 
Q 146.364047 188.976991 145.849728 187.834481 
" style="fill: none; opacity: 0.4; stroke: #000000; stroke-width: 1.5; stroke-linecap: round"/>
    <path d="M 146.249618 178.003912 
L 145.849728 187.834481 
L 138.225207 181.616227 
" style="fill: none; opacity: 0.4; stroke: #000000; stroke-width: 1.5; stroke-linecap: round"/>
   </g>
   <g id="patch_6">
    <path d="M 85.220018 143.861063 
Q 85.646274 143.906107 84.404765 143.774912 
" style="fill: none; opacity: 0.4; stroke: #000000; stroke-width: 1.5; stroke-linecap: round"/>
    <path d="M 76.115882 138.474496 
L 84.404765 143.774912 
L 75.191103 147.225769 
" style="fill: none; opacity: 0.4; stroke: #000000; stroke-width: 1.5; stroke-linecap: round"/>
   </g>
   <g id="patch_7">
    <path d="M 196.67986 224.341528 
Q 197.106116 224.386568 195.864605 224.255384 
" style="fill: none; opacity: 0.4; stroke: #000000; stroke-width: 1.5; stroke-linecap: round"/>
    <path d="M 187.575676 218.955038 
L 195.864605 224.255384 
L 186.650971 227.706319 
" style="fill: none; opacity: 0.4; stroke: #000000; stroke-width: 1.5; stroke-linecap: round"/>
   </g>
   <g id="patch_8">
    <path d="M 96.72082 21.412117 
Q 96.294569 21.367071 97.536082 21.498272 
" style="fill: none; opacity: 0.4; stroke: #000000; stroke-width: 1.5; stroke-linecap: round"/>
    <path d="M 105.824944 26.798721 
L 97.536082 21.498272 
L 106.749759 18.047452 
" style="fill: none; opacity: 0.4; stroke: #000000; stroke-width: 1.5; stroke-linecap: round"/>
   </g>
   <g id="patch_9">
    <path d="M 208.179611 101.892496 
Q 207.75336 101.847454 208.994874 101.978644 
" style="fill: none; opacity: 0.4; stroke: #000000; stroke-width: 1.5; stroke-linecap: round"/>
    <path d="M 217.283781 107.279024 
L 208.994874 101.978644 
L 218.208522 98.527746 
" style="fill: none; opacity: 0.4; stroke: #000000; stroke-width: 1.5; stroke-linecap: round"/>
   </g>
   <g id="patch_10">
    <path d="M 147.210204 57.163653 
Q 147.036111 56.776921 147.55043 57.919434 
" style="fill: none; opacity: 0.4; stroke: #000000; stroke-width: 1.5; stroke-linecap: round"/>
    <path d="M 147.150524 67.750003 
L 147.55043 57.919434 
L 155.174941 64.1377 
" style="fill: none; opacity: 0.4; stroke: #000000; stroke-width: 1.5; stroke-linecap: round"/>
   </g>
   <g id="patch_11">
    <path d="M 258.669243 137.643596 
Q 258.495148 137.256866 259.009475 138.399375 
" style="fill: none; opacity: 0.4; stroke: #000000; stroke-width: 1.5; stroke-linecap: round"/>
    <path d="M 258.60965 148.229946 
L 259.009475 138.399375 
L 266.634037 144.617578 
" style="fill: none; opacity: 0.4; stroke: #000000; stroke-width: 1.5; stroke-linecap: round"/>
   </g>
   <g id="patch_12">
    <path d="M 40.472134 46.888725 
Q 40.224383 47.228464 40.964769 46.21318 
" style="fill: none; opacity: 0.4; stroke: #000000; stroke-width: 1.5; stroke-linecap: round"/>
    <path d="M 49.704933 41.69549 
L 40.964769 46.21318 
L 42.594716 36.510434 
" style="fill: none; opacity: 0.4; stroke: #000000; stroke-width: 1.5; stroke-linecap: round"/>
   </g>
   <g id="patch_13">
    <path d="M 151.931201 127.369584 
Q 151.683453 127.709324 152.423829 126.694034 
" style="fill: none; opacity: 0.4; stroke: #000000; stroke-width: 1.5; stroke-linecap: round"/>
    <path d="M 161.163954 122.176265 
L 152.423829 126.694034 
L 154.053689 116.991273 
" style="fill: none; opacity: 0.4; stroke: #000000; stroke-width: 1.5; stroke-linecap: round"/>
   </g>
  </g>
 </g>
 <defs>
  <clipPath id="pc822063787">
   <rect x="7.2" y="7.2" width="279" height="231.353241"/>
  </clipPath>
 </defs>
</svg>
