<?xml version="1.0" encoding="utf-8" standalone="no"?>
<!DOCTYPE svg PUBLIC "-//W3C//DTD SVG 1.1//EN"
  "http://www.w3.org/Graphics/SVG/1.1/DTD/svg11.dtd">
<svg xmlns:xlink="http://www.w3.org/1999/xlink" width="293.4pt" height="245.753241pt" viewBox="0 0 293.4 245.753241" xmlns="http://www.w3.org/2000/svg" version="1.1">
 <metadata>
  <rdf:RDF xmlns:dc="http://purl.org/dc/elements/1.1/" xmlns:cc="http://creativecommons.org/ns#" xmlns:rdf="http://www.w3.org/1999/02/22-rdf-syntax-ns#">
   <cc:Work>
    <dc:type rdf:resource="http://purl.org/dc/dcmitype/StillImage"/>
    <dc:format>image/svg+xml</dc:format>
   </cc:Work>
  </rdf:RDF>
 </metadata>
 <defs>
  <style type="text/css">*{stroke-linejoin: round; stroke-linecap: butt}</style>
 </defs>
 <g id="figure_1">
  <g id="patch_1">
   <path d="M 0 245.753241 
L 293.4 245.753241 
L 293.4 0 
L 0 0 
z
" style="fill: #ffffff"/>
  </g>
  <g id="axes_1">
   <g id="line2d_1">
    <path d="M 231.65505 228.037185 
L 273.518182 170.628506 
" clip-path="url(#pc822063787)" style="fill: none; stroke: #000000; stroke-width: 1.5; stroke-linecap: square"/>
   </g>
   <g id="line2d_2">
    <path d="M 19.881818 75.12403 
L 49.106289 140.044793 
" clip-path="url(#pc822063787)" style="fill: none; stroke: #000000; stroke-width: 1.5; stroke-linecap: square"/>
   </g>
   <g id="line2d_3">
    <path d="M 131.341146 155.605061 
L 160.566136 220.525568 
" clip-path="url(#pc822063787)" style="fill: none; stroke: #000000; stroke-width: 1.5; stroke-linecap: square"/>
   </g>
   <g id="line2d_4">
    <path d="M 49.106289 140.044793 
L 120.195215 147.557019 
" clip-path="url(#pc822063787)" style="fill: none; stroke: #000000; stroke-width: 1.5; stroke-linecap: square"/>
   </g>
   <g id="line2d_5">
    <path d="M 160.566136 220.525568 
L 231.65505 228.037185 
" clip-path="url(#pc822063787)" style="fill: none; stroke: #000000; stroke-width: 1.5; stroke-linecap: square"/>
   </g>
   <g id="line2d_6">
    <path d="M 132.834148 25.228493 
L 61.746014 17.716056 
" clip-path="url(#pc822063787)" style="fill: none; stroke: #000000; stroke-width: 1.5; stroke-linecap: square"/>
   </g>
   <g id="line2d_7">
    <path d="M 244.292932 105.708563 
L 173.20481 98.196735 
" clip-path="url(#pc822063787)" style="fill: none; stroke: #000000; stroke-width: 1.5; stroke-linecap: square"/>
   </g>
   <g id="line2d_8">
    <path d="M 162.058878 90.148693 
L 132.834148 25.228493 
" clip-path="url(#pc822063787)" style="fill: none; stroke: #000000; stroke-width: 1.5; stroke-linecap: square"/>
   </g>
   <g id="line2d_9">
    <path d="M 273.518182 170.628506 
L 244.292932 105.708563 
" clip-path="url(#pc822063787)" style="fill: none; stroke: #000000; stroke-width: 1.5; stroke-linecap: square"/>
   </g>
   <g id="line2d_10">
    <path d="M 61.746014 17.716056 
L 19.881818 75.12403 
" clip-path="url(#pc822063787)" style="fill: none; stroke: #000000; stroke-width: 1.5; stroke-linecap: square"/>
   </g>
   <g id="patch_2">
    <path d="M 252.928389 198.864157 
Q 253.176134 198.524414 252.435766 199.539712 
" style="fill: none; opacity: 0.4; stroke: #000000; stroke-width: 1.5; stroke-linecap: round"/>
    <path d="M 243.695683 204.057558 
L 252.435766 199.539712 
L 250.805993 209.242487 
" style="fill: none; opacity: 0.4; stroke: #000000; stroke-width: 1.5; stroke-linecap: round"/>
   </g>
   <g id="patch_3">
    <path d="M 34.730361 108.109356 
Q 34.904452 108.496091 34.390142 107.353577 
" style="fill: none; opacity: 0.4; stroke: #000000; stroke-width: 1.5; stroke-linecap: round"/>
    <path d="M 34.790112 97.523011 
L 34.390142 107.353577 
L 26.765672 101.135261 
" style="fill: none; opacity: 0.4; stroke: #000000; stroke-width: 1.5; stroke-linecap: round"/>
   </g>
   <g id="patch_4">
    <path d="M 146.189953 188.590258 
Q 146.364047 188.976991 145.849728 187.834481 
" style="fill: none; opacity: 0.4; stroke: #000000; stroke-width: 1.5; stroke-linecap: round"/>
    <path d="M 146.249618 178.003912 
L 145.849728 187.834481 
L 138.225207 181.616227 
" style="fill: none; opacity: 0.4; stroke: #000000; stroke-width: 1.5; stroke-linecap: round"/>
   </g>
   <g id="text_1">
    <g id="patch_5">
     <path d="M 149.527641 189.228379 
L 163.154204 189.228379 
L 163.154204 177.550254 
L 149.527641 177.550254 
z
" style="fill: #ffffff; opacity: 0.7"/>
    </g>
    <!-- b⁺ -->
    <g transform="translate(150.527641 186.148691) scale(0.1 -0.1)">
     <defs>
      <path id="DejaVuSans-62" d="M 3116 1747 
Q 3116 2381 2855 2742 
Q 2594 3103 2138 3103 
Q 1681 3103 1420 2742 
Q 1159 2381 1159 1747 
Q 1159 1113 1420 752 
Q 1681 391 2138 391 
Q 2594 391 2855 752 
Q 3116 1113 3116 1747 
z
M 1159 2969 
Q 1341 3281 1617 3432 
Q 1894 3584 2278 3584 
Q 2916 3584 3314 3078 
Q 3713 2572 3713 1747 
Q 3713 922 3314 415 
Q 2916 -91 2278 -91 
Q 1894 -91 1617 61 
Q 1341 213 1159 525 
L 1159 0 
L 581 0 
L 581 4863 
L 1159 4863 
L 1159 2969 
z
" transform="scale(0.015625)"/>
      <path id="DejaVuSans-207a" d="M 1853 4334 
L 1853 3359 
L 2950 3359 
L 2950 3063 
L 1853 3063 
L 1853 2088 
L 1525 2088 
L 1525 3063 
L 428 3063 
L 428 3359 
L 1525 3359 
L 1525 4334 
L 1853 4334 
z
" transform="scale(0.015625)"/>
     </defs>
     <use xlink:href="#DejaVuSans-62"/>
     <use xlink:href="#DejaVuSans-207a" transform="translate(63.476562 0)"/>
    </g>
   </g>
   <g id="patch_6">
    <path d="M 85.220018 143.861063 
Q 85.646274 143.906107 84.404765 143.774912 
" style="fill: none; opacity: 0.4; stroke: #000000; stroke-width: 1.5; stroke-linecap: round"/>
    <path d="M 76.115882 138.474496 
L 84.404765 143.774912 
L 75.191103 147.225769 
" style="fill: none; opacity: 0.4; stroke: #000000; stroke-width: 1.5; stroke-linecap: round"/>
   </g>
   <g id="text_2">
    <g id="patch_7">
     <path d="M 79.149583 138.26574 
L 92.555833 138.26574 
L 92.555833 126.587615 
L 79.149583 126.587615 
z
" style="fill: #ffffff; opacity: 0.7"/>
    </g>
    <!-- a⁻ -->
    <g transform="translate(80.149583 135.186053) scale(0.1 -0.1)">
     <defs>
      <path id="DejaVuSans-61" d="M 2194 1759 
Q 1497 1759 1228 1600 
Q 959 1441 959 1056 
Q 959 750 1161 570 
Q 1363 391 1709 391 
Q 2188 391 2477 730 
Q 2766 1069 2766 1631 
L 2766 1759 
L 2194 1759 
z
M 3341 1997 
L 3341 0 
L 2766 0 
L 2766 531 
Q 2569 213 2275 61 
Q 1981 -91 1556 -91 
Q 1019 -91 701 211 
Q 384 513 384 1019 
Q 384 1609 779 1909 
Q 1175 2209 1959 2209 
L 2766 2209 
L 2766 2266 
Q 2766 2663 2505 2880 
Q 2244 3097 1772 3097 
Q 1472 3097 1187 3025 
Q 903 2953 641 2809 
L 641 3341 
Q 956 3463 1253 3523 
Q 1550 3584 1831 3584 
Q 2591 3584 2966 3190 
Q 3341 2797 3341 1997 
z
" transform="scale(0.015625)"/>
      <path id="DejaVuSans-207b" d="M 428 3359 
L 2950 3359 
L 2950 3063 
L 428 3063 
L 428 3359 
z
" transform="scale(0.015625)"/>
     </defs>
     <use xlink:href="#DejaVuSans-61"/>
     <use xlink:href="#DejaVuSans-207b" transform="translate(61.279297 0)"/>
    </g>
   </g>
   <g id="patch_8">
    <path d="M 196.67986 224.341528 
Q 197.106116 224.386568 195.864605 224.255384 
" style="fill: none; opacity: 0.4; stroke: #000000; stroke-width: 1.5; stroke-linecap: round"/>
    <path d="M 187.575676 218.955038 
L 195.864605 224.255384 
L 186.650971 227.706319 
" style="fill: none; opacity: 0.4; stroke: #000000; stroke-width: 1.5; stroke-linecap: round"/>
   </g>
   <g id="patch_9">
    <path d="M 96.72082 21.412117 
Q 96.294569 21.367071 97.536082 21.498272 
" style="fill: none; opacity: 0.4; stroke: #000000; stroke-width: 1.5; stroke-linecap: round"/>
    <path d="M 105.824944 26.798721 
L 97.536082 21.498272 
L 106.749759 18.047452 
" style="fill: none; opacity: 0.4; stroke: #000000; stroke-width: 1.5; stroke-linecap: round"/>
   </g>
   <g id="patch_10">
    <path d="M 208.179611 101.892496 
Q 207.75336 101.847454 208.994874 101.978644 
" style="fill: none; opacity: 0.4; stroke: #000000; stroke-width: 1.5; stroke-linecap: round"/>
    <path d="M 217.283781 107.279024 
L 208.994874 101.978644 
L 218.208522 98.527746 
" style="fill: none; opacity: 0.4; stroke: #000000; stroke-width: 1.5; stroke-linecap: round"/>
   </g>
   <g id="text_3">
    <g id="patch_11">
     <path d="M 200.733697 119.165811 
L 214.36026 119.165811 
L 214.36026 107.487686 
L 200.733697 107.487686 
z
" style="fill: #ffffff; opacity: 0.7"/>
    </g>
    <!-- b⁻ -->
    <g transform="translate(201.733697 116.086124) scale(0.1 -0.1)">
     <use xlink:href="#DejaVuSans-62"/>
     <use xlink:href="#DejaVuSans-207b" transform="translate(63.476562 0)"/>
    </g>
   </g>
   <g id="patch_12">
    <path d="M 147.210204 57.163653 
Q 147.036111 56.776921 147.55043 57.919434 
" style="fill: none; opacity: 0.4; stroke: #000000; stroke-width: 1.5; stroke-linecap: round"/>
    <path d="M 147.150524 67.750003 
L 147.55043 57.919434 
L 155.174941 64.1377 
" style="fill: none; opacity: 0.4; stroke: #000000; stroke-width: 1.5; stroke-linecap: round"/>
   </g>
   <g id="text_4">
    <g id="patch_13">
     <path d="M 130.356156 68.203613 
L 143.762406 68.203613 
L 143.762406 56.525488 
L 130.356156 56.525488 
z
" style="fill: #ffffff; opacity: 0.7"/>
    </g>
    <!-- a⁺ -->
    <g transform="translate(131.356156 65.123925) scale(0.1 -0.1)">
     <use xlink:href="#DejaVuSans-61"/>
     <use xlink:href="#DejaVuSans-207a" transform="translate(61.279297 0)"/>
    </g>
   </g>
   <g id="patch_14">
    <path d="M 258.669243 137.643596 
Q 258.495148 137.256866 259.009475 138.399375 
" style="fill: none; opacity: 0.4; stroke: #000000; stroke-width: 1.5; stroke-linecap: round"/>
    <path d="M 258.60965 148.229946 
L 259.009475 138.399375 
L 266.634037 144.617578 
" style="fill: none; opacity: 0.4; stroke: #000000; stroke-width: 1.5; stroke-linecap: round"/>
   </g>
   <g id="patch_15">
    <path d="M 40.472134 46.888725 
Q 40.224383 47.228464 40.964769 46.21318 
" style="fill: none; opacity: 0.4; stroke: #000000; stroke-width: 1.5; stroke-linecap: round"/>
    <path d="M 49.704933 41.69549 
L 40.964769 46.21318 
L 42.594716 36.510434 
" style="fill: none; opacity: 0.4; stroke: #000000; stroke-width: 1.5; stroke-linecap: round"/>
   </g>
  </g>
 </g>
 <defs>
  <clipPath id="pc822063787">
   <rect x="7.2" y="7.2" width="279" height="231.353241"/>
  </clipPath>
 </defs>
</svg>
